  0
SECTION
  2
HEADER
  9
$ACADVER
  1
AC1018
  9
$ACADMAINTVER
 70
     0
  9
$DWGCODEPAGE
  3
ANSI_1252
  9
$EXTMIN
 10
-4449586.74349325
 20
-3922590.95254635
 30
0.0
  9
$EXTMAX
 10
2724371.84347864
 20
4094475.07172442
 30
0.0
  9
$LIMMIN
 10
0.0
 20
0.0
  9
$LIMMAX
 10
12.0
 20
9.0
  9
$ORTHOMODE
 70
     0
  9
$REGENMODE
 70
     1
  9
$FILLMODE
 70
     1
  9
$QTEXTMODE
 70
     0
  9
$MIRRTEXT
 70
     1
  9
$LTSCALE
 40
1.0
  9
$ATTMODE
 70
     1
  9
$TEXTSIZE
 40
0.2
  9
$TRACEWID
 40
0.05
  9
$TEXTSTYLE
  7
Standard
  9
$CLAYER
  8
0
  9
$CELTYPE
  6
ByLayer
  9
$CECOLOR
 62
   256
  9
$CELTSCALE
 40
1.0
  9
$DISPSILH
 70
     0
  9
$LUNITS
 70
     2
  9
$LUPREC
 70
     4
  9
$SKETCHINC
 40
0.1
  9
$FILLETRAD
 40
0.5
  9
$AUNITS
 70
     0
  9
$AUPREC
 70
     0
  9
$MENU
  1
.
  9
$ELEVATION
 40
0.0
  9
$PELEVATION
 40
0.0
  9
$THICKNESS
 40
0.0
  9
$LIMCHECK
 70
     0
  9
$CHAMFERA
 40
0.5
  9
$CHAMFERB
 40
0.5
  9
$CHAMFERC
 40
1.0
  9
$CHAMFERD
 40
0.0
  9
$SKPOLY
 70
     0
  9
$ANGBASE
 50
0.0
  9
$ANGDIR
 70
     0
  9
$PDMODE
 70
     0
  9
$PDSIZE
 40
0.0
  9
$PLINEWID
 40
0.0
  9
$SPLFRAME
 70
     0
  9
$SPLINETYPE
 70
     6
  9
$SPLINESEGS
 70
     8
  9
$HANDSEED
  5
00020034
  9
$SURFTAB1
 70
     6
  9
$SURFTAB2
 70
     6
  9
$SURFTYPE
 70
     6
  9
$SURFU
 70
     6
  9
$SURFV
 70
     6
  9
$UCSBASE
  2

  9
$UCSNAME
  2

  9
$UCSORG
 10
0.0
 20
0.0
 30
0.0
  9
$UCSXDIR
 10
1.0
 20
0.0
 30
0.0
  9
$UCSYDIR
 10
0.0
 20
1.0
 30
0.0
  9
$UCSORTHOREF
  2

  9
$UCSORTHOVIEW
 70
     0
  9
$UCSORGTOP
 10
0.0
 20
0.0
 30
0.0
  9
$UCSORGBOTTOM
 10
0.0
 20
0.0
 30
0.0
  9
$UCSORGLEFT
 10
0.0
 20
0.0
 30
0.0
  9
$UCSORGRIGHT
 10
0.0
 20
0.0
 30
0.0
  9
$UCSORGFRONT
 10
0.0
 20
0.0
 30
0.0
  9
$UCSORGBACK
 10
0.0
 20
0.0
 30
0.0
  9
$PUCSBASE
  2

  9
$PUCSNAME
  2

  9
$PUCSORG
 10
0.0
 20
0.0
 30
0.0
  9
$PUCSXDIR
 10
1.0
 20
0.0
 30
0.0
  9
$PUCSYDIR
 10
0.0
 20
1.0
 30
0.0
  9
$PUCSORTHOREF
  2

  9
$PUCSORTHOVIEW
 70
     0
  9
$PUCSORGTOP
 10
0.0
 20
0.0
 30
0.0
  9
$PUCSORGBOTTOM
 10
0.0
 20
0.0
 30
0.0
  9
$PUCSORGLEFT
 10
0.0
 20
0.0
 30
0.0
  9
$PUCSORGRIGHT
 10
0.0
 20
0.0
 30
0.0
  9
$PUCSORGFRONT
 10
0.0
 20
0.0
 30
0.0
  9
$PUCSORGBACK
 10
0.0
 20
0.0
 30
0.0
  9
$WORLDVIEW
 70
     1
  9
$SHADEDGE
 70
     3
  9
$SHADEDIF
 70
    70
  9
$TILEMODE
 70
     1
  9
$MAXACTVP
 70
    64
  9
$PINSBASE
 10
0.0
 20
0.0
 30
0.0
  9
$PLIMCHECK
 70
     0
  9
$PEXTMIN
 10
1.000000000000000E+20
 20
1.000000000000000E+20
 30
1.000000000000000E+20
  9
$PEXTMAX
 10
-1.000000000000000E+20
 20
-1.000000000000000E+20
 30
-1.000000000000000E+20
  9
$PLIMMIN
 10
0.0
 20
0.0
  9
$PLIMMAX
 10
12.0
 20
9.0
  9
$UNITMODE
 70
     0
  9
$VISRETAIN
 70
     1
  9
$PLINEGEN
 70
     0
  9
$PSLTSCALE
 70
     1
  9
$TREEDEPTH
 70
  3020
  9
$CMLSTYLE
  2
Standard
  9
$CMLJUST
 70
     0
  9
$CMLSCALE
 40
1.0
  9
$PROXYGRAPHICS
 70
     1
  9
$MEASUREMENT
 70
     0
  9
$CELWEIGHT
370
    -1
  9
$ENDCAPS
280
     0
  9
$JOINSTYLE
280
     0
  9
$LWDISPLAY
290
     0
  9
$INSUNITS
 70
     1
  9
$HYPERLINKBASE
  1

  9
$STYLESHEET
  1

  9
$XEDIT
290
     1
  9
$CEPSNTYPE
380
     0
  9
$PSTYLEMODE
290
     1
  9
$EXTNAMES
290
     1
  9
$PSVPSCALE
 40
0.0
  9
$OLESTARTUP
290
     0
  9
$SORTENTS
280
   127
  9
$INDEXCTL
280
     0
  9
$HIDETEXT
280
     1
  9
$XCLIPFRAME
290
     0
  9
$HALOGAP
280
     0
  9
$OBSCOLOR
 70
   257
  9
$OBSLTYPE
280
     0
  9
$INTERSECTIONDISPLAY
280
     0
  9
$INTERSECTIONCOLOR
 70
   257
  9
$DIMASSOC
280
     2
  9
$PROJECTNAME
  1

  0
ENDSEC
  0
SECTION
  2
CLASSES
  0
CLASS
  1
ACDBDICTIONARYWDFLT
  2
AcDbDictionaryWithDefault
  3
ObjectDBX Classes
 90
        0
 91
        4
280
     0
281
     0
  0
ENDSEC
  0
SECTION
  2
TABLES
  0
TABLE
  2
VPORT
  5
8
330
0
100
AcDbSymbolTable
 70
     1
  0
VPORT
  5
29
330
8
100
AcDbSymbolTableRecord
100
AcDbViewportTableRecord
  2
*Active
 70
     0
 10
0.0
 20
0.0
 11
1.0
 21
1.0
 12
80.25
 22
106.4409457059851
 13
0.0
 23
0.0
 14
0.5
 24
0.5
 15
0.5
 25
0.5
 16
0.0
 26
0.0
 36
1.0
 17
0.0
 27
0.0
 37
0.0
 40
113.3818914119703
 41
0.8863849310366128
 42
50.0
 43
0.0
 44
0.0
 50
0.0
 51
0.0
 71
     0
 72
  1000
 73
     1
 74
     3
 75
     0
 76
     0
 77
     0
 78
     0
281
     0
 65
     1
110
0.0
120
0.0
130
0.0
111
1.0
121
0.0
131
0.0
112
0.0
122
1.0
132
0.0
 79
     0
146
0.0
  0
ENDTAB
  0
TABLE
  2
LTYPE
  5
5
330
0
100
AcDbSymbolTable
 70
     1
  0
LTYPE
  5
14
330
5
100
AcDbSymbolTableRecord
100
AcDbLinetypeTableRecord
  2
ByBlock
 70
     0
  3

 72
    65
 73
     0
 40
0.0
  0
LTYPE
  5
15
330
5
100
AcDbSymbolTableRecord
100
AcDbLinetypeTableRecord
  2
ByLayer
 70
     0
  3

 72
    65
 73
     0
 40
0.0
  0
LTYPE
  5
16
330
5
100
AcDbSymbolTableRecord
100
AcDbLinetypeTableRecord
  2
Continuous
 70
     0
  3
Solid line
 72
    65
 73
     0
 40
0.0
  0
ENDTAB
  0
TABLE
  2
LAYER
  5
2
330
0
100
AcDbSymbolTable
 70
     1
  0
LAYER
  5
10
330
2
100
AcDbSymbolTableRecord
100
AcDbLayerTableRecord
  2
0
 70
     0
 62
     7
  6
Continuous
370
    -3
390
F
  0
ENDTAB
  0
TABLE
  2
STYLE
  5
3
330
0
100
AcDbSymbolTable
 70
     1
  0
STYLE
  5
11
330
3
100
AcDbSymbolTableRecord
100
AcDbTextStyleTableRecord
  2
Standard
 70
     0
 40
0.0
 41
1.0
 50
0.0
 71
     0
 42
0.2
  3
txt
  4

  0
ENDTAB
  0
TABLE
  2
VIEW
  5
6
330
0
100
AcDbSymbolTable
 70
     0
  0
ENDTAB
  0
TABLE
  2
UCS
  5
7
330
0
100
AcDbSymbolTable
 70
     0
  0
ENDTAB
  0
TABLE
  2
APPID
  5
9
330
0
100
AcDbSymbolTable
 70
     1
  0
APPID
  5
12
330
9
100
AcDbSymbolTableRecord
100
AcDbRegAppTableRecord
  2
ACAD
 70
     0
  0
ENDTAB
  0
TABLE
  2
DIMSTYLE
  5
A
330
0
100
AcDbSymbolTable
 70
     1
100
AcDbDimStyleTable
  0
DIMSTYLE
105
27
330
A
100
AcDbSymbolTableRecord
100
AcDbDimStyleTableRecord
  2
Standard
 70
     0
340
11
  0
ENDTAB
  0
TABLE
  2
BLOCK_RECORD
  5
1
330
0
100
AcDbSymbolTable
 70
     1
  0
BLOCK_RECORD
  5
1F
330
1
100
AcDbSymbolTableRecord
100
AcDbBlockTableRecord
  2
*Model_Space
340
22
  0
BLOCK_RECORD
  5
1B
330
1
100
AcDbSymbolTableRecord
100
AcDbBlockTableRecord
  2
*Paper_Space
340
1E
  0
ENDTAB
  0
ENDSEC
  0
SECTION
  2
BLOCKS
  0
BLOCK
  5
20
330
1F
100
AcDbEntity
  8
0
100
AcDbBlockBegin
  2
*Model_Space
 70
     0
 10
0.0
 20
0.0
 30
0.0
  3
*Model_Space
  1

  0
ENDBLK
  5
21
330
1F
100
AcDbEntity
  8
0
100
AcDbBlockEnd
  0
BLOCK
  5
1C
330
1B
100
AcDbEntity
 67
     1
  8
0
100
AcDbBlockBegin
  2
*Paper_Space
 70
     0
 10
0.0
 20
0.0
 30
0.0
  3
*Paper_Space
  1

  0
ENDBLK
  5
1D
330
1B
100
AcDbEntity
 67
     1
  8
0
100
AcDbBlockEnd
  0
ENDSEC
  0
SECTION
  2
ENTITIES
  0
HATCH
  5
20000
100
AcDbEntity
  8
0
100
AcDbHatch
 10
0
 20
0
 30
0
210
0
220
0
230
1
  2
SOLID
 70
1
 71
0
 91
1
 92
2
 72
0
 73
1
 93
46
 10
-3440708.97619566
 20
1178576.31774244
 10
-3427278.94797435
 20
1189333.17135813
 10
-3398199.77460166
 20
1172270.07988111
 10
-3317748.88327813
 20
1172414.69333578
 10
-3299036.0993996
 20
1206610.99093693
 10
-3281036.02503566
 20
1204584.93603519
 10
-3251130.75330476
 20
1218091.05193598
 10
-3234349.52744399
 20
1168569.17880997
 10
-3210218.44865196
 20
1183571.88401683
 10
-3167464.66234916
 20
1201364.23475243
 10
-3120296.28495218
 20
1176608.39003103
 10
-3101603.94949331
 20
1138336.63537226
 10
-3054469.15390327
 20
1114320.89723167
 10
-3018404.33970724
 20
1144078.71065087
 10
-2969659.46568671
 20
1149099.25383781
 10
-2898022.99391186
 20
1119910.8179544
 10
-2868444.64251245
 20
954013.632499796
 10
-2911125.30010495
 20
855038.526808057
 10
-2936658.00374467
 20
721997.914570066
 10
-2890369.0277649
 20
621055.908782029
 10
-2894537.84661435
 20
574454.65977935
 10
-2941796.05187864
 20
572688.240900093
 10
-3014578.6828544
 20
594872.76830444
 10
-3081180.48118183
 20
592678.686742029
 10
-3204003.13058667
 20
570498.005557937
 10
-3275683.36386638
 20
535472.578545015
 10
-3377951.25754675
 20
490746.904789174
 10
-3398064.00379678
 20
493572.953605049
 10
-3391438.17519585
 20
590913.623201419
 10
-3381703.12236444
 20
605816.70203968
 10
-3385510.00418094
 20
652219.244086156
 10
-3430224.7958466
 20
700934.551098988
 10
-3463359.49806139
 20
708336.866401832
 10
-3494129.89416943
 20
740207.90608154
 10
-3472264.6371278
 20
792755.717750972
 10
-3483472.83207903
 20
849371.190221092
 10
-3479158.05543236
 20
883555.250351813
 10
-3462660.19625218
 20
883922.831796837
 10
-3457253.93376225
 20
935119.073860641
 10
-3465613.57342249
 20
957614.639859958
 10
-3455899.74175187
 20
974022.260953559
 10
-3417442.78709082
 20
988631.78625844
 10
-3444468.82777025
 20
1081777.57444239
 10
-3469152.15540285
 20
1129620.7835863
 10
-3461350.74801564
 20
1169265.13372786
 10
-3440708.97619566
 20
1178576.31774244
 97
0
 75
0
 76
1
 98
0
  0
HATCH
  5
20001
100
AcDbEntity
  8
0
100
AcDbHatch
 10
0
 20
0
 30
0
210
0
220
0
230
1
  2
SOLID
 70
1
 71
0
 91
1
 92
2
 72
0
 73
1
 93
13
 10
566323.517474081
 20
-287375.202697792
 10
572217.31792096
 20
-334158.446764529
 10
594444.2678236
 20
-361134.113272135
 10
595305.158762946
 20
-399729.669042279
 10
569715.75296882
 20
-424515.681134591
 10
529304.350608361
 20
-486334.854264952
 10
491683.4929581
 20
-529246.283108533
 10
448900.866511774
 20
-534810.533738498
 10
442581.644217751
 20
-391637.70072017
 10
416649.722039447
 20
-337599.75687403
 10
479492.129115922
 20
-347050.41179308
 10
511328.233543173
 20
-279488.864077317
 10
566323.517474081
 20
-287375.202697792
 97
0
 75
0
 76
1
 98
0
  0
HATCH
  5
20002
100
AcDbEntity
  8
0
100
AcDbHatch
 10
0
 20
0
 30
0
210
0
220
0
230
1
  2
SOLID
 70
1
 71
0
 91
1
 92
2
 72
0
 73
1
 93
26
 10
2496133.35637152
 20
1329813.49035907
 10
2496133.35637152
 20
1329813.49035907
 10
2495467.90255045
 20
1327926.32803038
 10
2494615.16740167
 20
1280181.1514293
 10
2493393.71673566
 20
1162936.71415638
 10
2492763.49993844
 20
1102136.23594202
 10
2445043.12406958
 20
1030911.50688943
 10
2371505.40037422
 20
933964.13870298
 10
2283977.0966159
 20
934080.361963555
 10
1944849.7991249
 20
1075811.00096963
 10
1905425.64354074
 20
1117763.54830523
 10
1867440.74414677
 20
1174153.29598167
 10
1829446.50677224
 20
1238482.18136515
 10
1852480.28965614
 20
1279447.93449577
 10
1891354.12641496
 20
1341186.19958899
 10
1925098.55560822
 20
1319570.30051829
 10
1945146.07426346
 20
1271451.79923483
 10
1991759.6332599
 20
1222451.0102599
 10
2043477.68190007
 20
1221637.27950357
 10
2141946.91892874
 20
1250520.11179212
 10
2255483.59334283
 20
1263262.06029874
 10
2347550.41525302
 20
1298441.39928385
 10
2399308.67190802
 20
1305572.52044837
 10
2436743.81665957
 20
1326341.76156175
 10
2496133.53350438
 20
1329813.99470985
 10
2496133.35637152
 20
1329813.49035907
 97
0
 75
0
 76
1
 98
0
  0
HATCH
  5
20003
100
AcDbEntity
  8
0
100
AcDbHatch
 10
0
 20
0
 30
0
210
0
220
0
230
1
  2
SOLID
 70
1
 71
0
 91
2
 92
2
 72
0
 73
1
 93
82
 10
-836298.723099331
 20
-3228670.43344068
 10
-795808.056562345
 20
-3257652.50688588
 10
-778420.911628171
 20
-3302932.04012008
 10
-732520.09929297
 20
-3310496.45261046
 10
-668173.844212484
 20
-3330289.77018076
 10
-613265.378824928
 20
-3322431.33106512
 10
-522116.662120947
 20
-3268068.45593192
 10
-522875.747523257
 20
-2869977.56326705
 10
-495187.646900249
 20
-2886333.092597
 10
-434270.36352854
 20
-2989639.84501163
 10
-443582.771214832
 20
-3055578.08829998
 10
-420675.975972529
 20
-3093374.76978627
 10
-347383.847721075
 20
-3082275.0628318
 10
-296261.128668107
 20
-3034051.95227415
 10
-247816.195076033
 20
-3001441.87766895
 10
-222807.038627703
 20
-2949419.5197076
 10
-172869.054009615
 20
-2924149.06445648
 10
-129696.164360297
 20
-2937346.91604577
 10
-80764.6056433567
 20
-2967780.48519508
 10
2577.35110464524
 20
-2973137.48257864
 10
68066.0590620453
 20
-2947842.15576538
 10
78438.8576882985
 20
-2913871.56115498
 10
96465.7094384827
 20
-2861616.54248729
 10
152210.626567113
 20
-2852883.96156955
 10
183042.911831006
 20
-2811722.15669716
 10
217229.961767465
 20
-2738418.27387961
 10
309359.105918772
 20
-2655954.65523655
 10
454589.318533971
 20
-2574333.77096532
 10
496315.358071649
 20
-2575630.85900343
 10
545898.213621538
 20
-2594599.12885124
 10
580490.15748077
 20
-2581315.96404827
 10
634977.19668465
 20
-2592580.23606659
 10
683658.492782538
 20
-2748625.00307177
 10
710095.308585974
 20
-2826825.54508869
 10
691489.366451162
 20
-2948550.69836426
 10
700118.220358628
 20
-2987576.29082155
 10
648503.991766515
 20
-2967551.95384021
 10
618883.085998422
 20
-2975212.64937374
 10
609135.751623004
 20
-3006765.73133388
 10
581081.595686944
 20
-3047301.61485585
 10
581948.815689729
 20
-3084592.76293678
 10
642875.571732437
 20
-3142991.37688129
 10
702797.919233841
 20
-3131580.08076612
 10
723776.14683875
 20
-3083898.09984446
 10
801399.792677163
 20
-3085045.8563545
 10
775575.421840501
 20
-3163124.43351636
 10
763207.287784274
 20
-3251709.74731381
 10
736596.940336519
 20
-3299507.39575168
 10
666670.226550507
 20
-3352639.49716395
 10
646648.578323208
 20
-3367811.41502621
 10
603190.707293747
 20
-3421031.86862882
 10
574552.215393758
 20
-3474649.7128649
 10
516444.861775426
 20
-3548940.37093677
 10
400820.50553509
 20
-3654962.21442331
 10
328670.888310303
 20
-3716110.01497245
 10
251537.400940909
 20
-3762219.72821382
 10
144845.338100487
 20
-3801349.9995057
 10
92822.9517900977
 20
-3806576.92271722
 10
79646.7164970926
 20
-3834514.96465545
 10
17638.0058814295
 20
-3819636.59094763
 10
-32867.7254199794
 20
-3838777.28651272
 10
-143457.364215603
 20
-3819439.56280528
 10
-205265.460891471
 20
-3831753.47565226
 10
-247514.601678306
 20
-3826529.10514362
 10
-352688.216780955
 20
-3866282.82512562
 10
-439754.455328271
 20
-3882269.91791539
 10
-502695.460690499
 20
-3920097.57589727
 10
-549081.896730792
 20
-3922590.95254635
 10
-592325.075697915
 20
-3887138.26157742
 10
-626804.392235845
 20
-3885397.89153744
 10
-670861.190780375
 20
-3840788.20914676
 10
-675640.903432106
 20
-3854717.02603732
 10
-689278.225431397
 20
-3827761.27272776
 10
-688878.750542917
 20
-3768592.88750164
 10
-722241.035438045
 20
-3700604.61159895
 10
-689349.335452238
 20
-3681916.63190336
 10
-692245.99647233
 20
-3603207.30406261
 10
-759429.764502049
 20
-3506590.06302249
 10
-811068.148438734
 20
-3418363.37114543
 10
-811222.267601314
 20
-3418082.34180276
 10
-885104.67902555
 20
-3281394.26873003
 10
-836298.723099331
 20
-3228670.43344068
 97
0
 92
2
 72
0
 73
1
 93
12
 10
362180.811311183
 20
-3287540.99987124
 10
314359.319350075
 20
-3309066.20092426
 10
258911.522585304
 20
-3350307.28004302
 10
204338.140496028
 20
-3416799.13128254
 10
280913.053499533
 20
-3497171.72097423
 10
317484.84359741
 20
-3486876.48707286
 10
336318.244071341
 20
-3453586.28249701
 10
393299.167280099
 20
-3437352.37799953
 10
410732.858609323
 20
-3403204.68097283
 10
442180.823340013
 20
-3352121.36829853
 10
406769.264384685
 20
-3320212.96979412
 10
362180.811311183
 20
-3287540.99987124
 97
0
 75
0
 76
1
 98
0
  0
HATCH
  5
20004
100
AcDbEntity
  8
0
100
AcDbHatch
 10
0
 20
0
 30
0
210
0
220
0
230
1
  2
SOLID
 70
1
 71
0
 91
1
 92
2
 72
0
 73
1
 93
27
 10
-3534537.08367118
 20
3108469.6445137
 10
-3536271.01893858
 20
3088236.65107639
 10
-3534292.22061085
 20
2929034.85898694
 10
-3878695.29432875
 20
2929389.74972858
 10
-3871017.12806958
 20
2655886.5496058
 10
-3969049.55617871
 20
2644623.54702345
 10
-3993770.68782898
 20
2588578.32737621
 10
-3971358.3701947
 20
2431327.50282868
 10
-4381362.7947042
 20
2425052.73256193
 10
-4403554.10669186
 20
2388016.7496532
 10
-4399883.14318565
 20
2434481.94416317
 10
-4395849.45086335
 20
2485281.30221238
 10
-4356152.22518607
 20
2515734.09422368
 10
-4322878.25514296
 20
2573040.86363248
 10
-4330279.85582569
 20
2609627.98593844
 10
-4295588.55707985
 20
2686479.07350283
 10
-4238429.12889449
 20
2755804.33089715
 10
-4203428.96127034
 20
2773666.55938807
 10
-4176734.49553201
 20
2836417.78177605
 10
-4175206.19172666
 20
2893076.06845783
 10
-4138438.89868587
 20
2959083.48315512
 10
-4069180.98097659
 20
2998622.93991557
 10
-4006506.36650626
 20
3103076.57138065
 10
-3550658.84773389
 20
3115038.31043158
 10
-3550668.88740132
 20
3115212.58628923
 10
-3534685.8281153
 20
3115442.12275184
 10
-3534537.08367118
 20
3108469.6445137
 97
0
 75
0
 76
1
 98
0
  0
HATCH
  5
20005
100
AcDbEntity
  8
0
100
AcDbHatch
 10
0
 20
0
 30
0
210
0
220
0
230
1
  2
SOLID
 70
1
 71
0
 91
1
 92
2
 72
0
 73
1
 93
58
 10
-2319495.86697977
 20
729619.58854477
 10
-2315324.92114109
 20
919002.354812108
 10
-2318660.47439377
 20
993462.21527281
 10
-2299732.04741765
 20
1067364.85617068
 10
-2267991.64413871
 20
1103436.91677821
 10
-2218132.98055014
 20
1176030.48016354
 10
-2229393.2929111
 20
1207222.84388461
 10
-2209288.57966905
 20
1254185.50004883
 10
-2233348.96901246
 20
1322773.29957965
 10
-2229638.13214304
 20
1361274.43854069
 10
-2223333.83113695
 20
1464442.71410926
 10
-2193856.54869989
 20
1511151.74663608
 10
-2179772.50678964
 20
1577378.83762563
 10
-2152822.49201078
 20
1602429.57389522
 10
-2040796.4138077
 20
1616966.23087458
 10
-1935862.055502
 20
1575012.61166192
 10
-1896400.40246471
 20
1531923.78792811
 10
-1843154.2360458
 20
1530368.74463649
 10
-1793924.5656174
 20
1558952.53198318
 10
-1667260.03496183
 20
1500398.26770966
 10
-1614086.34298182
 20
1503568.64606728
 10
-1552871.16533644
 20
1552983.01998895
 10
-1491694.60209988
 20
1549876.76802321
 10
-1461687.91911592
 20
1566189.73493467
 10
-1405499.34975923
 20
1559816.14242014
 10
-1324542.654783
 20
1526720.87153702
 10
-1243306.06374122
 20
1591369.00825959
 10
-1218793.68130621
 20
1586925.61293786
 10
-1147604.41726853
 20
1461310.39927844
 10
-1128221.25546365
 20
1463948.05097501
 10
-1086737.40997359
 20
1418167.39892484
 10
-1098007.19609511
 20
1397247.72065467
 10
-1103340.08817902
 20
1358777.00708215
 10
-1190717.94802891
 20
1268668.03094994
 10
-1217886.3683336
 20
1194358.18834215
 10
-1232277.4005675
 20
1133755.35403402
 10
-1254236.31674939
 20
1107656.37934219
 10
-1274823.7733065
 20
1025798.41314791
 10
-1330232.88283451
 20
977311.088806754
 10
-1346030.73569482
 20
917946.188944845
 10
-1369140.00600524
 20
870574.357256861
 10
-1378595.19314584
 20
821711.744545322
 10
-1449814.05382157
 20
781693.66033339
 10
-1508495.44339601
 20
829634.969694214
 10
-1547914.62070183
 20
827439.862881505
 10
-1609408.51675618
 20
758236.167389108
 10
-1639509.14404255
 20
756978.196481306
 10
-1688181.0755782
 20
643011.02922247
 10
-1714331.42306216
 20
559329.730574863
 10
-1821879.79389368
 20
516045.339010601
 10
-1861351.02787123
 20
521959.699782921
 10
-1901090.32417514
 20
495173.58700996
 10
-1984198.11346047
 20
497095.502593468
 10
-2040425.50336827
 20
570515.507592817
 10
-2075359.29069339
 20
655605.063738046
 10
-2149628.05328529
 20
732566.190639731
 10
-2227742.58594353
 20
730412.688018376
 10
-2319495.86697977
 20
729619.58854477
 97
0
 75
0
 76
1
 98
0
  0
HATCH
  5
20006
100
AcDbEntity
  8
0
100
AcDbHatch
 10
0
 20
0
 30
0
210
0
220
0
230
1
  2
SOLID
 70
1
 71
0
 91
1
 92
2
 72
0
 73
1
 93
19
 10
-2511508.70269005
 20
1281750.0315594
 10
-2524136.20606949
 20
1220477.69536523
 10
-2491963.81168208
 20
1186476.30679926
 10
-2455381.47418635
 20
1146071.33064695
 10
-2450852.51697869
 20
1088894.90791821
 10
-2429639.40774081
 20
1065056.19675731
 10
-2431701.97698334
 20
795951.596619923
 10
-2405288.88463024
 20
715056.973664564
 10
-2488737.18866238
 20
689099.700716152
 10
-2512363.91853464
 20
730202.962533986
 10
-2540852.89683674
 20
804515.926243737
 10
-2549722.78441364
 20
862836.049916958
 10
-2527816.34498708
 20
968641.47609786
 10
-2554367.43845334
 20
1011042.12217869
 10
-2565250.9470238
 20
1102933.09016622
 10
-2565962.9127751
 20
1187527.56964507
 10
-2610077.28201915
 20
1247009.04253466
 10
-2602794.72130669
 20
1283272.48430176
 10
-2511508.70269005
 20
1281750.0315594
 97
0
 75
0
 76
1
 98
0
  0
HATCH
  5
20007
100
AcDbEntity
  8
0
100
AcDbHatch
 10
0
 20
0
 30
0
210
0
220
0
230
1
  2
SOLID
 70
1
 71
0
 91
1
 92
2
 72
0
 73
1
 93
28
 10
1193005.36212072
 20
1686217.00166114
 10
1182131.29268297
 20
1731990.71984356
 10
1227927.76010641
 20
1898764.58315883
 10
1238611.48013912
 20
1973824.95735145
 10
1271701.92891639
 20
2008208.07018498
 10
1348782.36016846
 20
2026299.49256381
 10
1402046.35398046
 20
2090101.36080607
 10
1461965.86397909
 20
1959516.50515536
 10
1490122.22228711
 20
1855479.95533924
 10
1547031.48912687
 20
1799803.52861271
 10
1688830.55202364
 20
1691186.32041619
 10
1746367.86409874
 20
1625555.79626269
 10
1802427.59927539
 20
1558943.58820101
 10
1834758.90324732
 20
1519202.28693803
 10
1885775.11379195
 20
1484183.98849263
 10
1854109.14238827
 20
1456273.64822479
 10
1809542.3002159
 20
1466617.40099492
 10
1774166.45902289
 20
1504156.53504582
 10
1731755.04367195
 20
1571868.8269537
 10
1685752.73249471
 20
1609049.88390036
 10
1659036.55753314
 20
1648793.14842039
 10
1568497.64833972
 20
1695243.01547109
 10
1496937.16286148
 20
1697056.63686261
 10
1471902.15020301
 20
1721083.58669255
 10
1410526.1471603
 20
1694589.094496
 10
1347463.25161535
 20
1746755.30674137
 10
1314400.89462749
 20
1661693.27427862
 10
1193005.36212072
 20
1686217.00166114
 97
0
 75
0
 76
1
 98
0
  0
HATCH
  5
20008
100
AcDbEntity
  8
0
100
AcDbHatch
 10
0
 20
0
 30
0
210
0
220
0
230
1
  2
SOLID
 70
1
 71
0
 91
1
 92
2
 72
0
 73
1
 93
66
 10
-1237727.31396063
 20
-713540.986832146
 10
-1201547.44160382
 20
-699125.420216667
 10
-896522.564083602
 20
-699375.269818716
 10
-870711.372193512
 20
-787522.771604471
 10
-840809.996078359
 20
-858356.394742909
 10
-816943.439414374
 20
-896503.141095857
 10
-777192.258672169
 20
-958133.739856669
 10
-708943.813512311
 20
-948375.747315258
 10
-674919.85019966
 20
-931666.761268872
 10
-617815.910826668
 20
-948193.704332926
 10
-602414.910167285
 20
-918620.344431688
 10
-576669.247940569
 20
-849677.82688615
 10
-512610.629629096
 20
-844913.994062459
 10
-507085.653428584
 20
-824407.904050613
 10
-454377.533576488
 20
-823857.260777041
 10
-463291.921170537
 20
-866482.677689325
 10
-337962.453737538
 20
-865243.273227049
 10
-335964.583380139
 20
-939590.624967867
 10
-314977.014419397
 20
-985109.134885952
 10
-330090.792742642
 20
-1056221.18213453
 10
-322420.754536904
 20
-1128644.91017321
 10
-287950.801221288
 20
-1172257.39859202
 10
-293299.280063274
 20
-1311979.43155573
 10
-267790.176254667
 20
-1301196.65100044
 10
-222982.607844535
 20
-1304029.1675616
 10
-159125.631492423
 20
-1286417.50206292
 10
-112162.051790265
 20
-1293306.32209304
 10
-101250.295966694
 20
-1329694.4427556
 10
-112949.823378791
 20
-1386482.60608595
 10
-94813.4887308958
 20
-1441308.57243074
 10
-110145.936394008
 20
-1485045.99503698
 10
-101349.529645065
 20
-1525298.12405693
 10
-315847.662888969
 20
-1524013.38157273
 10
-320102.442589489
 20
-1892675.266869
 10
-250614.961235445
 20
-1986595.09333188
 10
-183466.336785495
 20
-2058065.03151583
 10
-372300.257416877
 20
-2104830.07287649
 10
-621134.839576364
 20
-2089185.44685923
 10
-692500.130364143
 20
-2034602.71587318
 10
-1109166.37636813
 20
-2041095.01699115
 10
-1124671.65826612
 20
-2049207.69715641
 10
-1186202.33143513
 20
-1997720.19844158
 10
-1252870.26180622
 20
-1994632.26395513
 10
-1314309.32100719
 20
-2014480.19260869
 10
-1363661.83226442
 20
-2036536.79620028
 10
-1373744.85591105
 20
-1964518.43861368
 10
-1360078.819623
 20
-1863290.90139906
 10
-1325164.24675205
 20
-1757375.36303928
 10
-1320080.08322285
 20
-1707650.23216274
 10
-1287237.10358667
 20
-1602819.85930315
 10
-1262937.52765156
 20
-1555002.07166914
 10
-1204150.57526278
 20
-1478420.88446641
 10
-1171348.65584827
 20
-1426285.04481692
 10
-1160942.76935354
 20
-1339550.83434096
 10
-1166659.3471042
 20
-1273127.29878198
 10
-1197704.6685914
 20
-1231311.69454069
 10
-1225534.67913473
 20
-1160142.33605209
 10
-1251238.81664077
 20
-1089650.76929053
 10
-1245823.77444604
 20
-1065134.61460409
 10
-1214334.7032069
 20
-1018232.62409568
 10
-1246238.8929263
 20
-904337.127690863
 10
-1267797.20385362
 20
-825299.987006466
 10
-1319957.3464314
 20
-750696.286553303
 10
-1310255.34819062
 20
-727626.771411167
 10
-1267681.26936863
 20
-711479.439604863
 10
-1237727.31396063
 20
-713540.986832146
 97
0
 75
0
 76
1
 98
0
  0
HATCH
  5
20009
100
AcDbEntity
  8
0
100
AcDbHatch
 10
0
 20
0
 30
0
210
0
220
0
230
1
  2
SOLID
 70
1
 71
0
 91
1
 92
2
 72
0
 73
1
 93
9
 10
-1295748.57316767
 20
-626614.038028474
 10
-1298710.16674314
 20
-678304.374941058
 10
-1324934.75773755
 20
-690962.526331395
 10
-1353068.72996321
 20
-601980.849876598
 10
-1311606.34316879
 20
-550540.761147146
 10
-1280460.9037892
 20
-530417.429588238
 10
-1241489.83073445
 20
-570917.453259007
 10
-1278992.95736765
 20
-596039.497295906
 10
-1295748.57316767
 20
-626614.038028474
 97
0
 75
0
 76
1
 98
0
  0
HATCH
  5
2000A
100
AcDbEntity
  8
0
100
AcDbHatch
 10
0
 20
0
 30
0
210
0
220
0
230
1
  2
SOLID
 70
1
 71
0
 91
1
 92
2
 72
0
 73
1
 93
11
 10
723776.14683875
 20
-3083898.09984446
 10
702797.919233841
 20
-3131580.08076612
 10
642875.571732437
 20
-3142991.37688129
 10
581948.815689729
 20
-3084592.76293678
 10
581081.595686944
 20
-3047301.61485585
 10
609135.751623004
 20
-3006765.73133388
 10
618883.085998422
 20
-2975212.64937374
 10
648503.991766515
 20
-2967551.95384021
 10
700118.220358628
 20
-2987576.29082155
 10
715127.622629271
 20
-3036178.20753872
 10
723776.14683875
 20
-3083898.09984446
 97
0
 75
0
 76
1
 98
0
  0
HATCH
  5
2000B
100
AcDbEntity
  8
0
100
AcDbHatch
 10
0
 20
0
 30
0
210
0
220
0
230
1
  2
SOLID
 70
1
 71
0
 91
1
 92
2
 72
0
 73
1
 93
22
 10
-3981601.17393129
 20
1018370.916036
 10
-3926776.92007347
 20
1070600.99728929
 10
-3915296.47700262
 20
1103150.80443601
 10
-3897912.22172961
 20
1128561.2106597
 10
-3869253.7431079
 20
1131664.96898928
 10
-3845326.87384418
 20
1153984.02762621
 10
-3762024.25006701
 20
1155149.43831639
 10
-3732400.18124412
 20
1113943.01514754
 10
-3709084.99147563
 20
1065268.30068871
 10
-3711940.60992083
 20
1031273.80545031
 10
-3694775.34824468
 20
1000953.35401196
 10
-3695289.09559642
 20
958050.647450765
 10
-3666730.81479304
 20
965188.460023955
 10
-3714345.94112836
 20
909805.782899479
 10
-3760303.81355743
 20
845444.847744482
 10
-3765300.97066634
 20
811215.154307464
 10
-3789573.15884071
 20
773244.20560131
 10
-3817725.82177572
 20
781525.979020154
 10
-3893344.7760149
 20
827658.356836942
 10
-3948545.35133429
 20
889628.275785247
 10
-3967444.25694946
 20
932130.186440585
 10
-3981601.17393129
 20
1018370.916036
 97
0
 75
0
 76
1
 98
0
  0
HATCH
  5
2000C
100
AcDbEntity
  8
0
100
AcDbHatch
 10
0
 20
0
 30
0
210
0
220
0
230
1
  2
SOLID
 70
1
 71
0
 91
1
 92
2
 72
0
 73
1
 93
31
 10
-1424154.84559671
 20
264110.763589236
 10
-1374883.92750959
 20
272181.135387442
 10
-1311731.79263184
 20
256653.17798711
 10
-1250382.92001295
 20
272241.959527738
 10
-1237431.10775771
 20
265846.480722066
 10
-1244712.35917124
 20
214096.670516455
 10
-1215406.17865123
 20
152957.111651411
 10
-1138275.2372414
 20
162997.49688249
 10
-1112276.82818079
 20
139538.06721434
 10
-1156529.26428638
 20
1856.45159321419
 10
-1107167.78566473
 20
-68145.8989259243
 10
-1095450.66086427
 20
-160836.103648726
 10
-1108169.05664792
 20
-239874.684418936
 10
-1139678.25710572
 20
-296150.154381496
 10
-1231102.86918036
 20
-291599.144963742
 10
-1286727.75876031
 20
-234841.830178067
 10
-1294689.16529424
 20
-287528.099326086
 10
-1364469.0393812
 20
-302457.021512236
 10
-1399800.9104305
 20
-332524.813753796
 10
-1360326.18855871
 20
-410828.053016333
 10
-1438727.32343211
 20
-476806.585393705
 10
-1545806.18164769
 20
-357621.207126165
 10
-1614864.48266771
 20
-260057.764605829
 10
-1678591.43769689
 20
-137774.990591586
 10
-1675538.30356089
 20
-98290.1896784514
 10
-1653172.63543253
 20
-60162.2118214987
 10
-1628574.3645113
 20
26456.2399203436
 10
-1608261.29840754
 20
114602.606603686
 10
-1573314.36272263
 20
121686.63970499
 10
-1422426.24566988
 20
121399.926691807
 10
-1424154.84559671
 20
264110.763589236
 97
0
 75
0
 76
1
 98
0
  0
HATCH
  5
2000D
100
AcDbEntity
  8
0
100
AcDbHatch
 10
0
 20
0
 30
0
210
0
220
0
230
1
  2
SOLID
 70
1
 71
0
 91
1
 92
2
 72
0
 73
1
 93
27
 10
-3479158.05543236
 20
883555.250351813
 10
-3483472.83207903
 20
849371.190221092
 10
-3472264.6371278
 20
792755.717750972
 10
-3494129.89416943
 20
740207.90608154
 10
-3463359.49806139
 20
708336.866401832
 10
-3430224.7958466
 20
700934.551098988
 10
-3385510.00418094
 20
652219.244086156
 10
-3381703.12236444
 20
605816.70203968
 10
-3391438.17519585
 20
590913.623201419
 10
-3398064.00379678
 20
493572.953605049
 10
-3425258.15418148
 20
492151.638291885
 10
-3533130.34681625
 20
546917.512268653
 10
-3628864.78019974
 20
635311.71307174
 10
-3718391.29525279
 20
698427.648468669
 10
-3789573.15884071
 20
773244.20560131
 10
-3765300.97066634
 20
811215.154307464
 10
-3760303.81355743
 20
845444.847744482
 10
-3714345.94112836
 20
909805.782899479
 10
-3666730.81479304
 20
965188.460023955
 10
-3644547.56337778
 20
968129.74817151
 10
-3617555.91991364
 20
981700.134227527
 10
-3572996.46178391
 20
910631.502281464
 10
-3579181.27219174
 20
863443.415986066
 10
-3558577.42887075
 20
838747.287770817
 10
-3529161.00376756
 20
838600.512033511
 10
-3508625.43178439
 20
886140.029172119
 10
-3479158.05543236
 20
883555.250351813
 97
0
 75
0
 76
1
 98
0
  0
HATCH
  5
2000E
100
AcDbEntity
  8
0
100
AcDbHatch
 10
0
 20
0
 30
0
210
0
220
0
230
1
  2
SOLID
 70
1
 71
0
 91
1
 92
2
 72
0
 73
1
 93
28
 10
800730.128390739
 20
-1095243.35563883
 10
901814.813939909
 20
-1117564.78615781
 10
922443.372213526
 20
-1150185.67697022
 10
957218.663550555
 20
-1205151.42296303
 10
985449.927020946
 20
-1364789.70198193
 10
956238.268235052
 20
-1453542.69194937
 10
984471.95809923
 20
-1605154.25276579
 10
1020229.09449657
 20
-1603607.88129867
 10
1057220.47216576
 20
-1641234.87928419
 10
1099968.79376232
 20
-1725306.82535395
 10
1108042.73610874
 20
-1873877.65714529
 10
1063412.4315123
 20
-1897925.65745886
 10
1031675.71799633
 20
-1977523.97042251
 10
964867.574402686
 20
-1906271.71203915
 10
957578.398037465
 20
-1825011.09909261
 10
979440.197285509
 20
-1771388.18251712
 10
973654.920790951
 20
-1724992.74077187
 10
933131.723198474
 20
-1695508.89737599
 10
904770.65897095
 20
-1706051.47209184
 10
845708.203693137
 20
-1650160.56952598
 10
791664.864038036
 20
-1619891.18121173
 10
823294.7355992
 20
-1511851.63490959
 10
855853.551708982
 20
-1471353.4108835
 10
836391.643571687
 20
-1374433.65726494
 10
857448.271171365
 20
-1279517.37449189
 10
875131.800672977
 20
-1247778.10496873
 10
849255.380298132
 20
-1147923.80323931
 10
800730.128390739
 20
-1095243.35563883
 97
0
 75
0
 76
1
 98
0
  0
HATCH
  5
2000F
100
AcDbEntity
  8
0
100
AcDbHatch
 10
0
 20
0
 30
0
210
0
220
0
230
1
  2
SOLID
 70
1
 71
0
 91
1
 92
2
 72
0
 73
1
 93
37
 10
634977.19668465
 20
-2592580.23606659
 10
580490.15748077
 20
-2581315.96404827
 10
545898.213621538
 20
-2594599.12885124
 10
496315.358071649
 20
-2575630.85900343
 10
454589.318533971
 20
-2574333.77096532
 10
389282.038915806
 20
-2523803.89825464
 10
309975.118518313
 20
-2506531.79949243
 10
279880.322204115
 20
-2435429.11999321
 10
279671.741365698
 20
-2395781.88243409
 10
235728.188491585
 20
-2383631.48298852
 10
119623.228283182
 20
-2259487.55371973
 10
87358.3884663063
 20
-2193812.80360326
 10
66692.3888419888
 20
-2173523.98066166
 10
27155.7122047381
 20
-2082386.27149021
 10
142020.594656729
 20
-2094930.07869187
 10
175394.437473743
 20
-2108097.26182486
 10
210095.306888045
 20
-2105477.65288896
 10
267089.943515215
 20
-2031569.13188007
 10
356627.251100277
 20
-1937360.49324715
 10
393453.556713604
 20
-1928378.27193258
 10
406025.381844466
 20
-1888515.16284442
 10
464677.507076102
 20
-1842716.65172818
 10
542633.938145938
 20
-1827087.04710932
 10
549192.638794011
 20
-1870116.14342924
 10
634999.295094742
 20
-1868034.07982156
 10
682602.216465252
 20
-1892469.54935235
 10
704688.92334078
 20
-1920999.5544924
 10
753636.695493574
 20
-1929500.49705085
 10
806928.352277711
 20
-1966581.46726159
 10
806672.969329136
 20
-2111414.95897373
 10
786379.756460969
 20
-2190267.64906861
 10
781698.935532141
 20
-2275027.33696195
 10
798092.216762924
 20
-2308587.71154666
 10
786276.640042952
 20
-2374974.59197929
 10
770738.561573484
 20
-2385172.50127885
 10
743420.53898252
 20
-2466107.37149453
 10
634977.19668465
 20
-2592580.23606659
 97
0
 75
0
 76
1
 98
0
  0
HATCH
  5
20010
100
AcDbEntity
  8
0
100
AcDbHatch
 10
0
 20
0
 30
0
210
0
220
0
230
1
  2
SOLID
 70
1
 71
0
 91
1
 92
2
 72
0
 73
1
 93
80
 10
-167145.423638653
 20
1092996.10791069
 10
-150257.784880804
 20
1141543.30227928
 10
-150593.795810322
 20
1189066.92935059
 10
-210735.775840725
 20
1261707.67904917
 10
-222594.670720719
 20
1311351.5367066
 10
-221363.731051299
 20
1339421.80481247
 10
-259707.91870406
 20
1373505.58765606
 10
-260933.406027022
 20
1440631.13855275
 10
-282841.645928681
 20
1485101.9968454
 10
-319460.642610487
 20
1478387.53095817
 10
-309003.615325313
 20
1520701.39257159
 10
-282043.994612864
 20
1568662.06518625
 10
-293920.350820435
 20
1616176.65767926
 10
-259654.984826476
 20
1651353.18894498
 10
-281446.545758806
 20
1678062.50774862
 10
-253918.569839128
 20
1748598.47502472
 10
-206313.465931966
 20
1832447.28444806
 10
-116250.38423587
 20
1824567.93893554
 10
-121612.482479039
 20
2270592.12030606
 10
-120344.144451721
 20
2317100.93230511
 10
0
 20
2317466.92009803
 10
0
 20
2537023.21992741
 10
421057.292976496
 20
2536663.0294706
 10
827449.743849456
 20
2535632.19800248
 10
1242871.61217486
 20
2533884.84516593
 10
1276091.39508757
 20
2426223.7060321
 10
1253029.39543428
 20
2406385.65618645
 10
1267652.75680182
 20
2292589.21378131
 10
1305358.10964591
 20
2159544.12810326
 10
1345049.27200611
 20
2131806.39539866
 10
1402046.35398046
 20
2090101.36080607
 10
1348782.36016846
 20
2026299.49256381
 10
1271701.92891639
 20
2008208.07018498
 10
1238611.48013912
 20
1973824.95735145
 10
1227927.76010641
 20
1898764.58315883
 10
1182131.29268297
 20
1731990.71984356
 10
1193005.36212072
 20
1686217.00166114
 10
1175907.09703324
 20
1587935.44817732
 10
1132960.95834465
 20
1474835.51622519
 10
1069810.65822937
 20
1417953.03375088
 10
1024726.03604331
 20
1329772.70134253
 10
1014057.01269713
 20
1282416.94097978
 10
964566.152737117
 20
1250098.85987695
 10
933278.229020102
 20
1128428.00941047
 10
933409.781671699
 20
1114516.19908688
 10
919003.070313398
 20
1116877.20666288
 10
921009.134173874
 20
1174884.8910008
 10
908640.246863442
 20
1214883.56502894
 10
855146.627078075
 20
1260960.93021256
 10
842912.809567755
 20
1344618.6783288
 10
855736.829209613
 20
1429936.14458664
 10
807432.03884659
 20
1438027.703565
 10
800187.486384915
 20
1412278.5441358
 10
737522.892726365
 20
1406524.25938857
 10
762475.915444325
 20
1372702.31093286
 10
771204.795749916
 20
1303076.01899074
 10
713767.432852342
 20
1239477.3492933
 10
661669.978224188
 20
1155729.33330605
 10
607999.245330098
 20
1143866.47134814
 10
520534.499439501
 20
1212023.50392755
 10
481141.66892811
 20
1188135.63777423
 10
470346.751368141
 20
1154171.77988178
 10
416668.709144266
 20
1132260.79259292
 10
413052.434919989
 20
1108242.01573898
 10
309366.790307164
 20
1108395.08428747
 10
295094.289502762
 20
1132437.60510616
 10
220007.766698947
 20
1136519.17691835
 10
182447.15845364
 20
1116532.75963017
 10
153849.554036768
 20
1126562.49696853
 10
100242.893060294
 20
1194581.76156244
 10
82370.5053860119
 20
1226536.59131154
 10
7251.04520729251
 20
1210580.16272843
 10
-21359.1357434352
 20
1156622.89217704
 10
-48159.1777944916
 20
1052465.04880498
 10
-83897.1150454715
 20
1030384.47594668
 10
-115858.786952045
 20
1017629.991619
 10
-45025.892419233
 20
971952.890498178
 10
-124310.467303467
 20
1023074.01294899
 10
-160433.208127594
 20
1056710.63674552
 10
-167145.423638653
 20
1092996.10791069
 97
0
 75
0
 76
1
 98
0
  0
HATCH
  5
20011
100
AcDbEntity
  8
0
100
AcDbHatch
 10
0
 20
0
 30
0
210
0
220
0
230
1
  2
SOLID
 70
1
 71
0
 91
1
 92
2
 72
0
 73
1
 93
40
 10
454589.318533971
 20
-2574333.77096532
 10
309359.105918772
 20
-2655954.65523655
 10
217229.961767465
 20
-2738418.27387961
 10
183042.911831006
 20
-2811722.15669716
 10
152210.626567113
 20
-2852883.96156955
 10
96465.7094384827
 20
-2861616.54248729
 10
78438.8576882985
 20
-2913871.56115498
 10
68066.0590620453
 20
-2947842.15576538
 10
2577.35110464524
 20
-2973137.48257864
 10
-80764.6056433567
 20
-2967780.48519508
 10
-129696.164360297
 20
-2937346.91604577
 10
-172869.054009615
 20
-2924149.06445648
 10
-222807.038627703
 20
-2949419.5197076
 10
-247816.195076033
 20
-3001441.87766895
 10
-296261.128668107
 20
-3034051.95227415
 10
-347383.847721075
 20
-3082275.0628318
 10
-420675.975972529
 20
-3093374.76978627
 10
-443582.771214832
 20
-3055578.08829998
 10
-434270.36352854
 20
-2989639.84501163
 10
-495187.646900249
 20
-2886333.092597
 10
-522875.747523257
 20
-2869977.56326705
 10
-523608.137714368
 20
-2547473.67994656
 10
-422507.446718778
 20
-2543388.30086046
 10
-420179.950965475
 20
-2141573.15126338
 10
-343698.67529731
 20
-2137684.19999639
 10
-185305.681580051
 20
-2097584.35545761
 10
-146004.666911004
 20
-2144559.86350376
 10
-80429.2977970238
 20
-2099844.60098115
 10
-49255.8642037528
 20
-2099582.62272438
 10
8678.9493250151
 20
-2073848.58475649
 10
27155.7122047381
 20
-2082386.27149021
 10
66692.3888419888
 20
-2173523.98066166
 10
87358.3884663063
 20
-2193812.80360326
 10
119623.228283182
 20
-2259487.55371973
 10
235728.188491585
 20
-2383631.48298852
 10
279671.741365698
 20
-2395781.88243409
 10
279880.322204115
 20
-2435429.11999321
 10
309975.118518313
 20
-2506531.79949243
 10
389282.038915806
 20
-2523803.89825464
 10
454589.318533971
 20
-2574333.77096532
 97
0
 75
0
 76
1
 98
0
  0
HATCH
  5
20012
100
AcDbEntity
  8
0
100
AcDbHatch
 10
0
 20
0
 30
0
210
0
220
0
230
1
  2
SOLID
 70
1
 71
0
 91
1
 92
2
 72
0
 73
1
 93
52
 10
922537.240399998
 20
-114575.436843339
 10
939987.875740467
 20
-127687.146833805
 10
1314363.58540243
 20
-371402.98949977
 10
1321049.2402391
 20
-440323.323608442
 10
1468849.54351862
 20
-559808.809378597
 10
1420247.07641376
 20
-705602.783353184
 10
1425974.96626137
 20
-772750.747379686
 10
1491866.20504156
 20
-816266.31986931
 10
1494776.20863432
 20
-847040.431963614
 10
1465905.31215207
 20
-918250.187585437
 10
1471609.09923824
 20
-954180.281086848
 10
1464504.47776971
 20
-1010517.26235713
 10
1500097.58495392
 20
-1084634.9394906
 10
1542069.41979634
 20
-1200927.60096749
 10
1579756.46303098
 20
-1226867.04417901
 10
1579756.85014138
 20
-1226867.31099995
 10
1497280.02612216
 20
-1294395.0669591
 10
1384274.75406876
 20
-1339240.97222283
 10
1322439.22997969
 20
-1336972.71722572
 10
1285515.96186708
 20
-1371902.04665367
 10
1213744.82468183
 20
-1374548.95131647
 10
1186762.37035403
 20
-1389206.83183056
 10
1063049.80164034
 20
-1355648.86705016
 10
985449.927020946
 20
-1364789.70198193
 10
957218.663550555
 20
-1205151.42296303
 10
922443.372213526
 20
-1150185.67697022
 10
901814.813939909
 20
-1117564.78615781
 10
800730.128390739
 20
-1095243.35563883
 10
742274.232490612
 20
-1059684.40375528
 10
676737.921127439
 20
-1039652.90919617
 10
635647.119987995
 20
-1019793.93552297
 10
592598.298158661
 20
-989653.004291822
 10
592598.893422455
 20
-989653.181566589
 10
537176.923062864
 20
-840664.545847077
 10
477395.014009235
 20
-774283.213712676
 10
456853.859160513
 20
-705558.057356784
 10
467307.838437806
 20
-643953.510399409
 10
448900.866511774
 20
-534810.533738498
 10
491683.4929581
 20
-529246.283108533
 10
529304.350608361
 20
-486334.854264952
 10
569715.75296882
 20
-424515.681134591
 10
595305.158762946
 20
-399729.669042279
 10
594444.2678236
 20
-361134.113272135
 10
572217.31792096
 20
-334158.446764529
 10
566323.517474081
 20
-287375.202697792
 10
566323.146404345
 20
-287372.260811536
 10
596245.270046822
 20
-272408.252943701
 10
602405.848860184
 20
-202535.563598248
 10
561438.149393602
 20
-135409.649687762
 10
597812.56933236
 20
-121228.995780052
 10
711396.005618555
 20
-123056.04507603
 10
922537.240399998
 20
-114575.436843339
 97
0
 75
0
 76
1
 98
0
  0
HATCH
  5
20013
100
AcDbEntity
  8
0
100
AcDbHatch
 10
0
 20
0
 30
0
210
0
220
0
230
1
  2
SOLID
 70
1
 71
0
 91
1
 92
2
 72
0
 73
1
 93
7
 10
-1593041.55498426
 20
265769.996987168
 10
-1424154.84559671
 20
264110.763589236
 10
-1422426.24566988
 20
121399.926691807
 10
-1573314.36272263
 20
121686.63970499
 10
-1608261.29840754
 20
114602.606603686
 10
-1627803.08261968
 20
132366.216145253
 10
-1593041.55498426
 20
265769.996987168
 97
0
 75
0
 76
1
 98
0
  0
HATCH
  5
20014
100
AcDbEntity
  8
0
100
AcDbHatch
 10
0
 20
0
 30
0
210
0
220
0
230
1
  2
SOLID
 70
1
 71
0
 91
1
 92
2
 72
0
 73
1
 93
28
 10
922537.240399998
 20
-114575.436843339
 10
711396.005618555
 20
-123056.04507603
 10
597812.56933236
 20
-121228.995780052
 10
561438.149393602
 20
-135409.649687762
 10
499450.984062135
 20
-171940.427215138
 10
474400.933136825
 20
-159772.596098975
 10
475443.022311253
 20
-70223.6307175074
 10
499543.831540421
 20
-24892.7551501689
 10
505574.584285602
 20
70398.9004826968
 10
527507.972532167
 20
125532.229073872
 10
567307.54466065
 20
187310.754251447
 10
607239.269106677
 20
218711.733217074
 10
640704.619551657
 20
260721.060380303
 10
599152.02328689
 20
276876.713991342
 10
605775.796489248
 20
415330.080277544
 10
605775.021440238
 20
415330.749555642
 10
648611.536231806
 20
447484.435425184
 10
714572.08732161
 20
420845.728137791
 10
798250.732105336
 20
448273.214199305
 10
871317.70375619
 20
447748.856795024
 10
935394.71456849
 20
501883.158639138
 10
984313.516742592
 20
419590.719871211
 10
996213.915141865
 20
360141.464802321
 10
1041302.88974928
 20
223936.853623515
 10
1003191.13449852
 20
137639.699987589
 10
951843.813305885
 20
59285.0735645589
 10
921962.792250844
 20
11294.4613132638
 10
922537.240399998
 20
-114575.436843339
 97
0
 75
0
 76
1
 98
0
  0
HATCH
  5
20015
100
AcDbEntity
  8
0
100
AcDbHatch
 10
0
 20
0
 30
0
210
0
220
0
230
1
  2
SOLID
 70
1
 71
0
 91
1
 92
2
 72
0
 73
1
 93
25
 10
-2319495.86697977
 20
729619.58854477
 10
-2405288.88463024
 20
715056.973664564
 10
-2431701.97698334
 20
795951.596619923
 10
-2429639.40774081
 20
1065056.19675731
 10
-2450852.51697869
 20
1088894.90791821
 10
-2455381.47418635
 20
1146071.33064695
 10
-2491963.81168208
 20
1186476.30679926
 10
-2524136.20606949
 20
1220477.69536523
 10
-2511508.70269005
 20
1281750.0315594
 10
-2475804.09280623
 20
1295239.76461595
 10
-2455082.91157967
 20
1346104.0288782
 10
-2404238.73777005
 20
1357422.22853122
 10
-2381800.03147896
 20
1392220.86558208
 10
-2347127.26016566
 20
1426388.93251348
 10
-2309752.11633423
 20
1427042.4246403
 10
-2229638.13214304
 20
1361274.43854069
 10
-2233348.96901246
 20
1322773.29957965
 10
-2209288.57966905
 20
1254185.50004883
 10
-2229393.2929111
 20
1207222.84388461
 10
-2218132.98055014
 20
1176030.48016354
 10
-2267991.64413871
 20
1103436.91677821
 10
-2299732.04741765
 20
1067364.85617068
 10
-2318660.47439377
 20
993462.21527281
 10
-2315324.92114109
 20
919002.354812108
 10
-2319495.86697977
 20
729619.58854477
 97
0
 75
0
 76
1
 98
0
  0
HATCH
  5
20016
100
AcDbEntity
  8
0
100
AcDbHatch
 10
0
 20
0
 30
0
210
0
220
0
230
1
  2
SOLID
 70
1
 71
0
 91
1
 92
2
 72
0
 73
1
 93
44
 10
1242871.61217486
 20
2533884.84516593
 10
827449.743849456
 20
2535632.19800248
 10
421057.292976496
 20
2536663.0294706
 10
0
 20
2537023.21992741
 10
0
 20
2933341.00474227
 10
0
 20
3304292.7453449
 10
-31523.3125472696
 20
3386567.79861997
 10
-4455.36175662007
 20
3449172.20430442
 10
-20727.6735690049
 20
3492299.20174697
 10
17333.7443472397
 20
3540453.00878611
 10
157261.495750555
 20
3542057.88171509
 10
258436.270256952
 20
3515474.13118991
 10
362798.898348112
 20
3485640.81689815
 10
411459.870076963
 20
3469873.98287466
 10
492467.87343156
 20
3501620.56453673
 10
535811.500082878
 20
3530284.25170432
 10
628576.066200946
 20
3538323.88228359
 10
703316.799391971
 20
3525474.75848934
 10
731820.326169286
 20
3475539.23572211
 10
756319.751572378
 20
3508335.88480992
 10
840514.597356322
 20
3484306.26511008
 10
922450.773507268
 20
3478312.68766709
 10
974283.845368492
 20
3503455.94311423
 10
974284.399533616
 20
3503456.21119156
 10
1032321.22284475
 20
3355571.93842532
 10
1042650.47160476
 20
3328994.52820911
 10
1012969.3019861
 20
3287925.25183072
 10
990048.979698321
 20
3210147.9116997
 10
961266.980138508
 20
3156256.50060666
 10
936716.258400349
 20
3138181.89704083
 10
901848.794637391
 20
3171864.65867947
 10
854612.252414616
 20
3218272.26915226
 10
780134.628375026
 20
3365674.69283083
 10
769305.386488893
 20
3356465.06812514
 10
812493.975139472
 20
3248104.97725259
 10
876614.161753566
 20
3143732.74073231
 10
955338.429991832
 20
2980131.09727514
 10
993858.879489042
 20
2922436.02262273
 10
1027303.88219846
 20
2862237.11967112
 10
1120876.54664903
 20
2743282.85656838
 10
1099964.3667362
 20
2724610.79958306
 10
1103031.45407345
 20
2654409.30029126
 10
1224596.84767492
 20
2556322.79513217
 10
1242871.61217486
 20
2533884.84516593
 97
0
 75
0
 76
1
 98
0
  0
HATCH
  5
20017
100
AcDbEntity
  8
0
100
AcDbHatch
 10
0
 20
0
 30
0
210
0
220
0
230
1
  2
SOLID
 70
1
 71
0
 91
1
 92
2
 72
0
 73
1
 93
61
 10
-1095622.57856511
 20
1507389.81697496
 10
-1053837.22235205
 20
1433748.96534281
 10
-1046545.04657196
 20
1357082.2595398
 10
-1050028.65188092
 20
1280078.44604513
 10
-992879.97518745
 20
1174653.02168724
 10
-1051060.64732365
 20
1175550.23529342
 10
-1080413.47391046
 20
1167130.56244204
 10
-1127935.59130214
 20
1178613.22791298
 10
-1150306.20646217
 20
1123529.80516264
 10
-1088535.14364923
 20
1055693.67247878
 10
-1043107.51209654
 20
1036054.53701922
 10
-1028239.12116182
 20
987701.107641509
 10
-995101.253889926
 20
907081.210593741
 10
-1011266.79856704
 20
875236.991006561
 10
-1063068.6111785
 20
755931.72393019
 10
-1087927.78287964
 20
734458.472233435
 10
-1095539.95803698
 20
643098.516898738
 10
-1084974.70668547
 20
593465.036279243
 10
-1093188.83192887
 20
558251.873613235
 10
-1043824.50436765
 20
496775.663229455
 10
-1034787.72016418
 20
454368.170424751
 10
-996197.832452491
 20
393472.887839116
 10
-948565.181738065
 20
355571.104221536
 10
-943721.047753913
 20
301560.563907519
 10
-932642.896192438
 20
267267.066687687
 10
-939860.964271526
 20
203221.702226188
 10
-1022413.73129104
 20
230914.412556687
 10
-1106447.98178993
 20
261827.143105816
 10
-1237431.10775771
 20
265846.480722066
 10
-1250382.92001295
 20
272241.959527738
 10
-1311731.79263184
 20
256653.17798711
 10
-1374883.92750959
 20
272181.135387442
 10
-1424154.84559671
 20
264110.763589236
 10
-1593041.55498426
 20
265769.996987168
 10
-1578491.87671247
 20
359396.776049546
 10
-1619584.61784449
 20
437368.298525462
 10
-1667101.969255
 20
457107.073316195
 10
-1688570.95924497
 20
509927.217661661
 10
-1715294.01730651
 20
526683.530233282
 10
-1714331.42306216
 20
559329.730574863
 10
-1688181.0755782
 20
643011.02922247
 10
-1639509.14404255
 20
756978.196481306
 10
-1609408.51675618
 20
758236.167389108
 10
-1547914.62070183
 20
827439.862881505
 10
-1508495.44339601
 20
829634.969694214
 10
-1449814.05382157
 20
781693.66033339
 10
-1378595.19314584
 20
821711.744545322
 10
-1369140.00600524
 20
870574.357256861
 10
-1346030.73569482
 20
917946.188944845
 10
-1330232.88283451
 20
977311.088806754
 10
-1274823.7733065
 20
1025798.41314791
 10
-1254236.31674939
 20
1107656.37934219
 10
-1232277.4005675
 20
1133755.35403402
 10
-1217886.3683336
 20
1194358.18834215
 10
-1190717.94802891
 20
1268668.03094994
 10
-1103340.08817902
 20
1358777.00708215
 10
-1098007.19609511
 20
1397247.72065467
 10
-1086737.40997359
 20
1418167.39892484
 10
-1128221.25546365
 20
1463948.05097501
 10
-1125032.31865573
 20
1500651.81075428
 10
-1095622.57856511
 20
1507389.81697496
 97
0
 75
0
 76
1
 98
0
  0
HATCH
  5
20018
100
AcDbEntity
  8
0
100
AcDbHatch
 10
0
 20
0
 30
0
210
0
220
0
230
1
  2
SOLID
 70
1
 71
0
 91
1
 92
2
 72
0
 73
1
 93
39
 10
-4403554.10669186
 20
2388016.7496532
 10
-4381362.7947042
 20
2425052.73256193
 10
-3971358.3701947
 20
2431327.50282868
 10
-3993770.68782898
 20
2588578.32737621
 10
-3969049.55617871
 20
2644623.54702345
 10
-3871017.12806958
 20
2655886.5496058
 10
-3878695.29432875
 20
2929389.74972858
 10
-3534292.22061085
 20
2929034.85898694
 10
-3536271.01893858
 20
3088236.65107639
 10
-3138194.18698697
 20
2838086.06128593
 10
-3298664.21080596
 20
2834071.89325498
 10
-3241877.59805701
 20
2366554.68531395
 10
-3185105.75178617
 20
1884934.11674202
 10
-3166827.95433238
 20
1871214.16168244
 10
-3189033.64476655
 20
1791466.26953685
 10
-3608001.5377235
 20
1783935.50583405
 10
-3623292.68290237
 20
1758407.97193004
 10
-3663769.17211408
 20
1765362.01729806
 10
-3722310.27442612
 20
1741966.39075881
 10
-3795705.00077243
 20
1772546.11086884
 10
-3828761.9616147
 20
1769410.5153285
 10
-3845264.92976352
 20
1702029.72454859
 10
-3880065.90475478
 20
1680674.682434
 10
-3950205.10858823
 20
1757867.70803216
 10
-4014747.63473283
 20
1840395.6598834
 10
-4084575.21461525
 20
1869258.96670611
 10
-4135047.20933545
 20
1901669.39681487
 10
-4193361.01331799
 20
1899438.8105312
 10
-4243908.38352217
 20
1873917.60149562
 10
-4295997.55535659
 20
1882779.52127432
 10
-4331125.72180217
 20
1845858.60618967
 10
-4341249.84269094
 20
1906656.37697664
 10
-4313062.72067727
 20
1962789.07001815
 10
-4301936.14302796
 20
2068782.33361461
 10
-4315429.84867366
 20
2178948.92716219
 10
-4329033.95181908
 20
2233985.57438796
 10
-4319563.17391923
 20
2289426.56161214
 10
-4347537.9905128
 20
2341447.91034604
 10
-4403554.10669186
 20
2388016.7496532
 97
0
 75
0
 76
1
 98
0
  0
HATCH
  5
20019
100
AcDbEntity
  8
0
100
AcDbHatch
 10
0
 20
0
 30
0
210
0
220
0
230
1
  2
SOLID
 70
1
 71
0
 91
1
 92
2
 72
0
 73
1
 93
39
 10
-3167464.66234916
 20
1201364.23475243
 10
-3175237.67972886
 20
1268697.07864725
 10
-3147451.27555965
 20
1318199.77421486
 10
-3150363.0191249
 20
1357374.40138255
 10
-3068819.41389175
 20
1454129.60483873
 10
-3054498.95137714
 20
1533260.15875253
 10
-3026261.63043114
 20
1561647.70280399
 10
-2975623.00974768
 20
1546781.96618853
 10
-2932182.8444347
 20
1570687.56042957
 10
-2918343.48889069
 20
1600322.26325692
 10
-2837981.58589432
 20
1652605.95381927
 10
-2818480.60641999
 20
1688567.07534971
 10
-2721444.86020114
 20
1737000.25089991
 10
-2664147.68077033
 20
1753850.60434325
 10
-2637852.77666632
 20
1732268.96549347
 10
-2570923.33858191
 20
1733503.99842005
 10
-2578614.7809533
 20
1678091.51941688
 10
-2564054.18641347
 20
1626124.01908262
 10
-2504525.72784981
 20
1551828.50710902
 10
-2500717.86006165
 20
1496208.46614123
 10
-2380208.0691767
 20
1471281.58370704
 10
-2381800.03147896
 20
1392220.86558208
 10
-2404238.73777005
 20
1357422.22853122
 10
-2455082.91157967
 20
1346104.0288782
 10
-2475804.09280623
 20
1295239.76461595
 10
-2511508.70269005
 20
1281750.0315594
 10
-2602794.72130669
 20
1283272.48430176
 10
-2651090.88963421
 20
1291993.45362991
 10
-2684532.58538908
 20
1272905.17965827
 10
-2730661.68461716
 20
1280851.77575207
 10
-2911607.20113245
 20
1273299.20248952
 10
-2913270.41647836
 20
1207381.76377355
 10
-2898022.99391186
 20
1119910.8179544
 10
-2969659.46568671
 20
1149099.25383781
 10
-3018404.33970724
 20
1144078.71065087
 10
-3054469.15390327
 20
1114320.89723167
 10
-3101603.94949331
 20
1138336.63537226
 10
-3120296.28495218
 20
1176608.39003103
 10
-3167464.66234916
 20
1201364.23475243
 97
0
 75
0
 76
1
 98
0
  0
HATCH
  5
2001A
100
AcDbEntity
  8
0
100
AcDbHatch
 10
0
 20
0
 30
0
210
0
220
0
230
1
  2
SOLID
 70
1
 71
0
 91
1
 92
2
 72
0
 73
1
 93
59
 10
2371505.40037422
 20
933964.13870298
 10
2074454.13142346
 20
583643.199281954
 10
1939046.71641479
 20
579554.774682876
 10
1845814.48257499
 20
497015.620948862
 10
1779210.03333723
 20
495328.536664908
 10
1750530.99776282
 20
458270.973127508
 10
1679568.04288721
 20
458790.767862885
 10
1637948.82834386
 20
499022.695638286
 10
1542743.69043597
 20
450198.01846107
 10
1511743.98595717
 20
401090.949197388
 10
1442556.33119382
 20
410820.487430595
 10
1419649.59265212
 20
424600.444999509
 10
1395314.3432095
 20
421480.207713104
 10
1362501.75078281
 20
422860.000231166
 10
1231564.07670397
 20
523962.06169502
 10
1159259.29364396
 20
524316.165587332
 10
1123948.20605019
 20
563349.97846662
 10
1124253.1218011
 20
629580.342712678
 10
1070354.92469048
 20
649605.170962995
 10
1009458.60342793
 20
778005.526960595
 10
962072.72983491
 20
805455.178184657
 10
944030.628107111
 20
852501.628216943
 10
891518.874526919
 20
909888.009870965
 10
827650.251720647
 20
918511.026823702
 10
863327.931249227
 20
985112.105388955
 10
918574.070076412
 20
987787.655228412
 10
934268.605966809
 20
1023454.21030237
 10
933278.229020102
 20
1128428.00941047
 10
964566.152737117
 20
1250098.85987695
 10
1014057.01269713
 20
1282416.94097978
 10
1024726.03604331
 20
1329772.70134253
 10
1069810.65822937
 20
1417953.03375088
 10
1132960.95834465
 20
1474835.51622519
 10
1175907.09703324
 20
1587935.44817732
 10
1193005.36212072
 20
1686217.00166114
 10
1314400.89462749
 20
1661693.27427862
 10
1347463.25161535
 20
1746755.30674137
 10
1410526.1471603
 20
1694589.094496
 10
1471902.15020301
 20
1721083.58669255
 10
1496937.16286148
 20
1697056.63686261
 10
1568497.64833972
 20
1695243.01547109
 10
1659036.55753314
 20
1648793.14842039
 10
1685752.73249471
 20
1609049.88390036
 10
1731755.04367195
 20
1571868.8269537
 10
1774166.45902289
 20
1504156.53504582
 10
1809542.3002159
 20
1466617.40099492
 10
1772510.60000879
 20
1415856.42738421
 10
1736860.17147954
 20
1361912.61433139
 10
1744745.47944503
 20
1329889.60186888
 10
1746159.58302925
 20
1294618.12384815
 10
1804354.89958293
 20
1292258.07195011
 10
1829509.27407666
 20
1300295.18322024
 10
1852480.28965614
 20
1279447.93449577
 10
1829446.50677224
 20
1238482.18136515
 10
1867440.74414677
 20
1174153.29598167
 10
1905425.64354074
 20
1117763.54830523
 10
1944849.7991249
 20
1075811.00096963
 10
2283977.0966159
 20
934080.361963555
 10
2371505.40037422
 20
933964.13870298
 97
0
 75
0
 76
1
 98
0
  0
HATCH
  5
2001B
100
AcDbEntity
  8
0
100
AcDbHatch
 10
0
 20
0
 30
0
210
0
220
0
230
1
  2
SOLID
 70
1
 71
0
 91
1
 92
2
 72
0
 73
1
 93
76
 10
-3807633.41591224
 20
1432269.16935102
 10
-3803389.67929629
 20
1468245.8607497
 10
-3812998.26213887
 20
1512604.24969242
 10
-3852548.57693816
 20
1544264.58394627
 10
-3874154.79741074
 20
1609610.05761854
 10
-3880065.90475478
 20
1680674.682434
 10
-3845264.92976352
 20
1702029.72454859
 10
-3828761.9616147
 20
1769410.5153285
 10
-3795705.00077243
 20
1772546.11086884
 10
-3722310.27442612
 20
1741966.39075881
 10
-3663769.17211408
 20
1765362.01729806
 10
-3623292.68290237
 20
1758407.97193004
 10
-3608001.5377235
 20
1783935.50583405
 10
-3189033.64476655
 20
1791466.26953685
 10
-3166827.95433238
 20
1871214.16168244
 10
-3185105.75178617
 20
1884934.11674202
 10
-3241877.59805701
 20
2366554.68531395
 10
-3298664.21080596
 20
2834071.89325498
 10
-3138194.18698697
 20
2838086.06128593
 10
-2781786.2866946
 20
2607585.6217296
 10
-2426007.98498717
 20
2372645.97890844
 10
-2400615.98610216
 20
2321150.43487191
 10
-2335161.09602011
 20
2290117.41816728
 10
-2286539.46937284
 20
2272540.58788981
 10
-2284681.7723721
 20
2201834.88002909
 10
-2168748.56183971
 20
2213786.90601405
 10
-2166178.93946922
 20
1955622.83475836
 10
-2222630.67737747
 20
1879590.20971895
 10
-2230891.25837392
 20
1809599.88366335
 10
-2323482.95264672
 20
1790708.3026897
 10
-2465865.80495402
 20
1779538.32588761
 10
-2504060.75005988
 20
1738673.46547758
 10
-2570923.33858191
 20
1733503.99842005
 10
-2637852.77666632
 20
1732268.96549347
 10
-2664147.68077033
 20
1753850.60434325
 10
-2721444.86020114
 20
1737000.25089991
 10
-2818480.60641999
 20
1688567.07534971
 10
-2837981.58589432
 20
1652605.95381927
 10
-2918343.48889069
 20
1600322.26325692
 10
-2932182.8444347
 20
1570687.56042957
 10
-2975623.00974768
 20
1546781.96618853
 10
-3026261.63043114
 20
1561647.70280399
 10
-3054498.95137714
 20
1533260.15875253
 10
-3068819.41389175
 20
1454129.60483873
 10
-3150363.0191249
 20
1357374.40138255
 10
-3147451.27555965
 20
1318199.77421486
 10
-3175237.67972886
 20
1268697.07864725
 10
-3167464.66234916
 20
1201364.23475243
 10
-3210218.44865196
 20
1183571.88401683
 10
-3234349.52744399
 20
1168569.17880997
 10
-3251130.75330476
 20
1218091.05193598
 10
-3281036.02503566
 20
1204584.93603519
 10
-3299036.0993996
 20
1206610.99093693
 10
-3317748.88327813
 20
1172414.69333578
 10
-3398199.77460166
 20
1172270.07988111
 10
-3427278.94797435
 20
1189333.17135813
 10
-3440708.97619566
 20
1178576.31774244
 10
-3472999.22937099
 20
1211644.29479454
 10
-3467965.71912871
 20
1246308.68337635
 10
-3481177.30966635
 20
1259662.86757899
 10
-3503208.98104362
 20
1247930.77347069
 10
-3499683.29429591
 20
1285730.60003064
 10
-3478744.26786758
 20
1315860.73606148
 10
-3522150.44648443
 20
1363726.85680909
 10
-3535032.36748162
 20
1395418.47445817
 10
-3558567.07538131
 20
1420445.57187851
 10
-3579479.25750939
 20
1423167.52633031
 10
-3604296.23681013
 20
1406638.03734733
 10
-3637751.11517081
 20
1390693.86161301
 10
-3665965.12977872
 20
1365261.83770715
 10
-3710721.58028725
 20
1373824.52176813
 10
-3740108.52881409
 20
1402713.57526644
 10
-3757445.86394585
 20
1406299.94006195
 10
-3784421.6573967
 20
1390492.68340515
 10
-3800953.56863624
 20
1390105.38189859
 10
-3807633.41591224
 20
1432269.16935102
 97
0
 75
0
 76
1
 98
0
  0
HATCH
  5
2001C
100
AcDbEntity
  8
0
100
AcDbHatch
 10
0
 20
0
 30
0
210
0
220
0
230
1
  2
SOLID
 70
1
 71
0
 91
1
 92
2
 72
0
 73
1
 93
19
 10
-4345906.50011884
 20
1416605.26654052
 10
-4291003.16847138
 20
1436363.20070952
 10
-4256409.67508758
 20
1433254.34129622
 10
-4228678.87845862
 20
1446716.35308773
 10
-4035894.55786077
 20
1445127.89565193
 10
-4037155.11547214
 20
1405999.50336065
 10
-4048375.00223662
 20
1393742.9601243
 10
-4038870.44332526
 20
1355601.7667348
 10
-4055048.56678958
 20
1340000.80518415
 10
-4078039.56895616
 20
1339433.6847169
 10
-4104895.85734054
 20
1319556.56941357
 10
-4136563.18400646
 20
1321171.7584876
 10
-4181938.68104383
 20
1263913.57976922
 10
-4238405.57894005
 20
1311399.65653655
 10
-4282419.1025006
 20
1318290.61598872
 10
-4306919.10927988
 20
1350484.98851453
 10
-4306619.7167251
 20
1368086.09685804
 10
-4338836.60917233
 20
1392034.94226827
 10
-4345906.50011884
 20
1416605.26654052
 97
0
 75
0
 76
1
 98
0
  0
HATCH
  5
2001D
100
AcDbEntity
  8
0
100
AcDbHatch
 10
0
 20
0
 30
0
210
0
220
0
230
1
  2
SOLID
 70
1
 71
0
 91
1
 92
2
 72
0
 73
1
 93
70
 10
-4035894.55786077
 20
1445127.89565193
 10
-3985545.52775066
 20
1444763.58406179
 10
-3910146.59569318
 20
1417859.60608072
 10
-3887202.23916146
 20
1420803.87468306
 10
-3879581.85450706
 20
1433754.11764865
 10
-3822584.19800408
 20
1425529.37989549
 10
-3807633.41591224
 20
1432269.16935102
 10
-3800953.56863624
 20
1390105.38189859
 10
-3784421.6573967
 20
1390492.68340515
 10
-3757445.86394585
 20
1406299.94006195
 10
-3740108.52881409
 20
1402713.57526644
 10
-3710721.58028725
 20
1373824.52176813
 10
-3665965.12977872
 20
1365261.83770715
 10
-3637751.11517081
 20
1390693.86161301
 10
-3604296.23681013
 20
1406638.03734733
 10
-3579479.25750939
 20
1423167.52633031
 10
-3558567.07538131
 20
1420445.57187851
 10
-3535032.36748162
 20
1395418.47445817
 10
-3522150.44648443
 20
1363726.85680909
 10
-3478744.26786758
 20
1315860.73606148
 10
-3499683.29429591
 20
1285730.60003064
 10
-3503208.98104362
 20
1247930.77347069
 10
-3481177.30966635
 20
1259662.86757899
 10
-3467965.71912871
 20
1246308.68337635
 10
-3472999.22937099
 20
1211644.29479454
 10
-3440708.97619566
 20
1178576.31774244
 10
-3461350.74801564
 20
1169265.13372786
 10
-3469152.15540285
 20
1129620.7835863
 10
-3444468.82777025
 20
1081777.57444239
 10
-3417442.78709082
 20
988631.78625844
 10
-3455899.74175187
 20
974022.260953559
 10
-3465613.57342249
 20
957614.639859958
 10
-3457253.93376225
 20
935119.073860641
 10
-3462660.19625218
 20
883922.831796837
 10
-3479158.05543236
 20
883555.250351813
 10
-3508625.43178439
 20
886140.029172119
 10
-3529161.00376756
 20
838600.512033511
 10
-3558577.42887075
 20
838747.287770817
 10
-3579181.27219174
 20
863443.415986066
 10
-3572996.46178391
 20
910631.502281464
 10
-3617555.91991364
 20
981700.134227527
 10
-3644547.56337778
 20
968129.74817151
 10
-3666730.81479304
 20
965188.460023955
 10
-3695289.09559642
 20
958050.647450765
 10
-3694775.34824468
 20
1000953.35401196
 10
-3711940.60992083
 20
1031273.80545031
 10
-3709084.99147563
 20
1065268.30068871
 10
-3732400.18124412
 20
1113943.01514754
 10
-3762024.25006701
 20
1155149.43831639
 10
-3845326.87384418
 20
1153984.02762621
 10
-3869253.7431079
 20
1131664.96898928
 10
-3897912.22172961
 20
1128561.2106597
 10
-3915296.47700262
 20
1103150.80443601
 10
-3926776.92007347
 20
1070600.99728929
 10
-3981601.17393129
 20
1018370.916036
 10
-4028394.43168239
 20
1086686.14126688
 10
-4069645.62995598
 20
1131628.83729752
 10
-4096561.81248379
 20
1146267.3653102
 10
-4122949.3157675
 20
1168957.05839911
 10
-4135642.34222875
 20
1220110.6621518
 10
-4151319.77219906
 20
1245423.16730648
 10
-4181938.68104383
 20
1263913.57976922
 10
-4136563.18400646
 20
1321171.7584876
 10
-4104895.85734054
 20
1319556.56941357
 10
-4078039.56895616
 20
1339433.6847169
 10
-4055048.56678958
 20
1340000.80518415
 10
-4038870.44332526
 20
1355601.7667348
 10
-4048375.00223662
 20
1393742.9601243
 10
-4037155.11547214
 20
1405999.50336065
 10
-4035894.55786077
 20
1445127.89565193
 97
0
 75
0
 76
1
 98
0
  0
HATCH
  5
2001E
100
AcDbEntity
  8
0
100
AcDbHatch
 10
0
 20
0
 30
0
210
0
220
0
230
1
  2
SOLID
 70
1
 71
0
 91
1
 92
2
 72
0
 73
1
 93
124
 10
448900.866511774
 20
-534810.533738498
 10
467307.838437806
 20
-643953.510399409
 10
456853.859160513
 20
-705558.057356784
 10
477395.014009235
 20
-774283.213712676
 10
537176.923062864
 20
-840664.545847077
 10
592598.893422455
 20
-989653.181566589
 10
592598.298158661
 20
-989653.004291822
 10
551957.031722208
 20
-977549.439653032
 10
413247.18307128
 20
-997189.695935821
 10
385552.662189904
 20
-1011244.75439982
 10
356021.934195962
 20
-1086446.43095055
 10
379037.684966496
 20
-1138402.45224986
 10
360505.337187544
 20
-1277486.30264689
 10
347568.935569301
 20
-1395054.30664714
 10
375381.767356219
 20
-1415901.98760066
 10
447348.953660601
 20
-1461493.791583
 10
475670.074015821
 20
-1440308.29653974
 10
484034.634174769
 20
-1566083.7709057
 10
405211.71409114
 20
-1564976.44180072
 10
363005.375328148
 20
-1500780.31702189
 10
325113.316981064
 20
-1450991.44703236
 10
246166.728610737
 20
-1434574.39260907
 10
223100.825148376
 20
-1373273.66339328
 10
160062.441072592
 20
-1410153.80688089
 10
77538.8515607087
 20
-1393801.78208009
 10
43103.9482333669
 20
-1340646.77823947
 10
-22354.1020781502
 20
-1329837.79182909
 10
-70669.0968706713
 20
-1332674.51206062
 10
-76594.1593391279
 20
-1296243.61787995
 10
-112162.051790265
 20
-1293306.32209304
 10
-159125.631492423
 20
-1286417.50206292
 10
-222982.607844535
 20
-1304029.1675616
 10
-267790.176254667
 20
-1301196.65100044
 10
-293299.280063274
 20
-1311979.43155573
 10
-287950.801221288
 20
-1172257.39859202
 10
-322420.754536904
 20
-1128644.91017321
 10
-330090.792742642
 20
-1056221.18213453
 10
-314977.014419397
 20
-985109.134885952
 10
-335964.583380139
 20
-939590.624967867
 10
-337962.453737538
 20
-865243.273227049
 10
-463291.921170537
 20
-866482.677689325
 10
-454377.533576488
 20
-823857.260777041
 10
-507085.653428584
 20
-824407.904050613
 10
-512610.629629096
 20
-844913.994062459
 10
-576669.247940569
 20
-849677.82688615
 10
-602414.910167285
 20
-918620.344431688
 10
-617815.910826668
 20
-948193.704332926
 10
-674919.85019966
 20
-931666.761268872
 10
-708943.813512311
 20
-948375.747315258
 10
-777192.258672169
 20
-958133.739856669
 10
-816943.439414374
 20
-896503.141095857
 10
-840809.996078359
 20
-858356.394742909
 10
-870711.372193512
 20
-787522.771604471
 10
-896522.564083602
 20
-699375.269818716
 10
-1201547.44160382
 20
-699125.420216667
 10
-1237727.31396063
 20
-713540.986832146
 10
-1267681.26936863
 20
-711479.439604863
 10
-1310255.34819062
 20
-727626.771411167
 10
-1324934.75773755
 20
-690962.526331395
 10
-1298710.16674314
 20
-678304.374941058
 10
-1295748.57316767
 20
-626614.038028474
 10
-1278992.95736765
 20
-596039.497295906
 10
-1241489.83073445
 20
-570917.453259007
 10
-1214259.17851195
 20
-582861.165570623
 10
-1179112.84689729
 20
-537274.686474981
 10
-1122765.64785681
 20
-538178.922147476
 10
-1115983.62922708
 20
-571730.755390995
 10
-1077256.85826348
 20
-592566.966575483
 10
-1016723.39464787
 20
-517955.774689616
 10
-956692.349314636
 20
-459752.815239731
 10
-930686.982675771
 20
-421658.3040432
 10
-934527.55786348
 20
-323970.416964812
 10
-889990.65405753
 20
-208408.146577719
 10
-842744.13798665
 20
-147049.372211791
 10
-774716.144649475
 20
-89571.2052636789
 10
-762925.641385431
 20
-51645.9158929218
 10
-760480.187320539
 20
-8084.4408029812
 10
-743711.104312268
 20
33169.9608636752
 10
-749345.192498298
 20
100426.919445197
 10
-736736.932620132
 20
205599.390081568
 10
-716677.685288705
 20
279621.72788454
 10
-685771.972544625
 20
343058.949026883
 10
-679818.241782573
 20
414569.403483015
 10
-670708.14213188
 20
497069.284130606
 10
-630422.328340333
 20
557157.919867112
 10
-574877.399776953
 20
595308.665551734
 10
-489286.355016575
 20
555376.323360651
 10
-423037.374830109
 20
511923.939110625
 10
-347030.189623761
 20
500410.107618637
 10
-269514.662035674
 20
477436.229597171
 10
-238529.028011464
 20
548826.670660883
 10
-224266.859234798
 20
557942.125299069
 10
-176908.185581314
 20
546120.498226583
 10
-61256.7048785171
 20
605094.018787568
 10
-20259.0224772782
 20
580136.048003748
 10
13386.9988032774
 20
583677.417575911
 10
28973.168762225
 20
612370.648049615
 10
67599.1280559961
 20
622470.317563907
 10
145775.70202226
 20
610024.287025784
 10
212418.053367728
 20
607259.194383894
 10
246740.795291961
 20
619743.010938159
 10
309569.681636637
 20
522211.788339177
 10
356194.030319063
 20
507820.131096112
 10
384031.461045837
 20
527619.018220603
 10
432054.411428559
 20
519763.591409582
 10
489958.27358436
 20
544643.138445129
 10
514526.915757602
 20
494128.883983125
 10
605775.021440238
 20
415330.749555642
 10
605775.796489248
 20
415330.080277544
 10
599152.02328689
 20
276876.713991342
 10
640704.619551657
 20
260721.060380303
 10
607239.269106677
 20
218711.733217074
 10
567307.54466065
 20
187310.754251447
 10
527507.972532167
 20
125532.229073872
 10
505574.584285602
 20
70398.9004826968
 10
499543.831540421
 20
-24892.7551501689
 10
475443.022311253
 20
-70223.6307175074
 10
474400.933136825
 20
-159772.596098975
 10
444549.259014314
 20
-192828.330667014
 10
440583.454380047
 20
-263507.383477552
 10
426344.363033591
 20
-272640.481117982
 10
416649.722039447
 20
-337599.75687403
 10
442581.644217751
 20
-391637.70072017
 10
448900.866511774
 20
-534810.533738498
 97
0
 75
0
 76
1
 98
0
  0
HATCH
  5
2001F
100
AcDbEntity
  8
0
100
AcDbHatch
 10
0
 20
0
 30
0
210
0
220
0
230
1
  2
SOLID
 70
1
 71
0
 91
1
 92
2
 72
0
 73
1
 93
58
 10
-121612.482479039
 20
2270592.12030606
 10
-116250.38423587
 20
1824567.93893554
 10
-206313.465931966
 20
1832447.28444806
 10
-253918.569839128
 20
1748598.47502472
 10
-281446.545758806
 20
1678062.50774862
 10
-259654.984826476
 20
1651353.18894498
 10
-293920.350820435
 20
1616176.65767926
 10
-282043.994612864
 20
1568662.06518625
 10
-309003.615325313
 20
1520701.39257159
 10
-319460.642610487
 20
1478387.53095817
 10
-282841.645928681
 20
1485101.9968454
 10
-260933.406027022
 20
1440631.13855275
 10
-259707.91870406
 20
1373505.58765606
 10
-221363.731051299
 20
1339421.80481247
 10
-222594.670720719
 20
1311351.5367066
 10
-288545.790325032
 20
1291507.88809846
 10
-341347.063582961
 20
1244437.99783056
 10
-416455.771584659
 20
1117306.76760444
 10
-514353.483889656
 20
1063046.978859
 10
-614911.605251216
 20
1070072.61976103
 10
-644243.95407918
 20
1059259.39280616
 10
-633829.014145092
 20
1018141.88108296
 10
-687995.620316253
 20
977090.792703875
 10
-732052.320700832
 20
931234.544801046
 10
-862895.821688725
 20
885944.248901596
 10
-888981.483874876
 20
912410.477002801
 10
-906222.915278155
 20
914637.48868064
 10
-925288.276708533
 20
884397.330972427
 10
-1011266.79856704
 20
875236.991006561
 10
-995101.253889926
 20
907081.210593741
 10
-1028239.12116182
 20
987701.107641509
 10
-1043107.51209654
 20
1036054.53701922
 10
-1088535.14364923
 20
1055693.67247878
 10
-1150306.20646217
 20
1123529.80516264
 10
-1127935.59130214
 20
1178613.22791298
 10
-1080413.47391046
 20
1167130.56244204
 10
-1051060.64732365
 20
1175550.23529342
 10
-992879.97518745
 20
1174653.02168724
 10
-1050028.65188092
 20
1280078.44604513
 10
-1046545.04657196
 20
1357082.2595398
 10
-1053837.22235205
 20
1433748.96534281
 10
-1095622.57856511
 20
1507389.81697496
 10
-1085432.84328345
 20
1561608.5971931
 10
-1152349.67615254
 20
1563948.00064282
 10
-1152464.63858855
 20
1637733.36893133
 10
-1196116.13866973
 20
1679916.89854435
 10
-1151753.60444282
 20
1830245.77092962
 10
-1018977.39064114
 20
1937662.77932173
 10
-1014074.45190749
 20
2084119.51125404
 10
-974688.761849078
 20
2310457.48093272
 10
-952112.264835502
 20
2358142.75916743
 10
-995816.084179749
 20
2395776.02676018
 10
-997642.113395368
 20
2430764.39358673
 10
-1036936.61048447
 20
2459161.33887504
 10
-1063383.9374908
 20
2628631.10387817
 10
-957833.723864308
 20
2688245.41175064
 10
-539370.481986216
 20
2481211.07193394
 10
-121612.482479039
 20
2270592.12030606
 97
0
 75
0
 76
1
 98
0
  0
HATCH
  5
20020
100
AcDbEntity
  8
0
100
AcDbHatch
 10
0
 20
0
 30
0
210
0
220
0
230
1
  2
SOLID
 70
1
 71
0
 91
1
 92
2
 72
0
 73
1
 93
39
 10
-3550658.84773389
 20
3115038.31043158
 10
-4006506.36650626
 20
3103076.57138065
 10
-4004399.72919231
 20
3106568.85271291
 10
-4002499.21110691
 20
3108057.93349452
 10
-3950354.88757158
 20
3148825.11988735
 10
-3852891.14201174
 20
3161823.28286095
 10
-3771228.58917621
 20
3233707.22312231
 10
-3718979.34657058
 20
3261902.64826014
 10
-3632542.18929785
 20
3348592.60653868
 10
-3660669.06403974
 20
3474073.87103456
 10
-3621985.28482158
 20
3560727.88547906
 10
-3608644.24213871
 20
3613207.52424809
 10
-3541932.73909567
 20
3680792.99155552
 10
-3436979.81788954
 20
3727028.21269292
 10
-3359471.95525571
 20
3768386.86117427
 10
-3290463.76081541
 20
3869350.14829127
 10
-3258133.51114828
 20
3928508.61411641
 10
-3180588.69606378
 20
3929059.45662851
 10
-3116577.17285497
 20
3889326.52581289
 10
-3016507.18786984
 20
3897186.23614885
 10
-2907173.58520251
 20
3877339.53677225
 10
-2861415.35711426
 20
3876846.34568142
 10
-2821017.06261412
 20
3815597.32434183
 10
-2814077.52681209
 20
3756625.5221036
 10
-2776557.81070985
 20
3653535.90374572
 10
-2748600.26862592
 20
3632859.41244694
 10
-2767458.53091038
 20
3594130.8910825
 10
-2904924.65067371
 20
3575796.39207984
 10
-2952066.15527507
 20
3538356.02487104
 10
-3012800.65304322
 20
3528904.93827148
 10
-3016408.94008883
 20
3454513.04467143
 10
-3138820.34423615
 20
3413001.56348804
 10
-3178370.26315865
 20
3361664.39089586
 10
-3264025.86596608
 20
3333157.85035187
 10
-3368745.02144676
 20
3316178.54815945
 10
-3537339.35767318
 20
3238112.17834694
 10
-3534685.8281153
 20
3115442.12275184
 10
-3550668.88740132
 20
3115212.58628923
 10
-3550658.84773389
 20
3115038.31043158
 97
0
 75
0
 76
1
 98
0
  0
HATCH
  5
20021
100
AcDbEntity
  8
0
100
AcDbHatch
 10
0
 20
0
 30
0
210
0
220
0
230
1
  2
SOLID
 70
1
 71
0
 91
1
 92
2
 72
0
 73
1
 93
49
 10
-679818.241782573
 20
414569.403483015
 10
-685771.972544625
 20
343058.949026883
 10
-716677.685288705
 20
279621.72788454
 10
-736736.932620132
 20
205599.390081568
 10
-749345.192498298
 20
100426.919445197
 10
-743711.104312268
 20
33169.9608636752
 10
-760480.187320539
 20
-8084.4408029812
 10
-762925.641385431
 20
-51645.9158929218
 10
-774716.144649475
 20
-89571.2052636789
 10
-842744.13798665
 20
-147049.372211791
 10
-889990.65405753
 20
-208408.146577719
 10
-934527.55786348
 20
-323970.416964812
 10
-930686.982675771
 20
-421658.3040432
 10
-956692.349314636
 20
-459752.815239731
 10
-1016723.39464787
 20
-517955.774689616
 10
-1077256.85826348
 20
-592566.966575483
 10
-1115983.62922708
 20
-571730.755390995
 10
-1122765.64785681
 20
-538178.922147476
 10
-1179112.84689729
 20
-537274.686474981
 10
-1214259.17851195
 20
-582861.165570623
 10
-1241489.83073445
 20
-570917.453259007
 10
-1280460.9037892
 20
-530417.429588238
 10
-1311606.34316879
 20
-550540.761147146
 10
-1353068.72996321
 20
-601980.849876598
 10
-1438727.32343211
 20
-476806.585393705
 10
-1360326.18855871
 20
-410828.053016333
 10
-1399800.9104305
 20
-332524.813753796
 10
-1364469.0393812
 20
-302457.021512236
 10
-1294689.16529424
 20
-287528.099326086
 10
-1286727.75876031
 20
-234841.830178067
 10
-1231102.86918036
 20
-291599.144963742
 10
-1139678.25710572
 20
-296150.154381496
 10
-1108169.05664792
 20
-239874.684418936
 10
-1095450.66086427
 20
-160836.103648726
 10
-1107167.78566473
 20
-68145.8989259243
 10
-1156529.26428638
 20
1856.45159321419
 10
-1112276.82818079
 20
139538.06721434
 10
-1138275.2372414
 20
162997.49688249
 10
-1215406.17865123
 20
152957.111651411
 10
-1244712.35917124
 20
214096.670516455
 10
-1237431.10775771
 20
265846.480722066
 10
-1106447.98178993
 20
261827.143105816
 10
-1022413.73129104
 20
230914.412556687
 10
-939860.964271526
 20
203221.702226188
 10
-932642.896192438
 20
267267.066687687
 10
-878640.630705274
 20
377702.714026175
 10
-816974.472127917
 20
440626.78560529
 10
-746622.971623307
 20
420977.684439881
 10
-679818.241782573
 20
414569.403483015
 97
0
 75
0
 76
1
 98
0
  0
HATCH
  5
20022
100
AcDbEntity
  8
0
100
AcDbHatch
 10
0
 20
0
 30
0
210
0
220
0
230
1
  2
SOLID
 70
1
 71
0
 91
1
 92
2
 72
0
 73
1
 93
79
 10
985449.927020946
 20
-1364789.70198193
 10
1063049.80164034
 20
-1355648.86705016
 10
1186762.37035403
 20
-1389206.83183056
 10
1213744.82468183
 20
-1374548.95131647
 10
1285515.96186708
 20
-1371902.04665367
 10
1322439.22997969
 20
-1336972.71722572
 10
1384274.75406876
 20
-1339240.97222283
 10
1497280.02612216
 20
-1294395.0669591
 10
1579756.85014138
 20
-1226867.31099995
 10
1579756.46303098
 20
-1226867.04417901
 10
1579756.70671646
 20
-1226866.84490132
 10
1596097.73114752
 20
-1279607.66801789
 10
1591089.26334066
 20
-1396295.83251396
 10
1603145.15319217
 20
-1498884.71176818
 10
1605936.31255679
 20
-1680719.57516202
 10
1623658.69191046
 20
-1737603.33198882
 10
1592420.81491252
 20
-1820008.39196598
 10
1551988.16297608
 20
-1899802.11889214
 10
1486063.03938377
 20
-1970664.30807999
 10
1391810.88555831
 20
-2013694.68485185
 10
1275634.93133883
 20
-2068595.28284934
 10
1158920.38939345
 20
-2190359.00078462
 10
1119295.93436334
 20
-2210916.56312021
 10
1047237.81153609
 20
-2291133.83434989
 10
1004820.70190671
 20
-2317091.76676733
 10
995813.658720958
 20
-2397448.85475028
 10
1044121.1628228
 20
-2482670.82799609
 10
1064075.58871433
 20
-2548325.39359942
 10
1065202.21627985
 20
-2581682.69719196
 10
1083349.71111796
 20
-2576193.78643433
 10
1079926.95076816
 20
-2685100.59819947
 10
1063075.90474527
 20
-2736368.00586271
 10
1087148.67312677
 20
-2755354.51164709
 10
1071702.33959543
 20
-2801068.62760014
 10
1028702.44506892
 20
-2839919.76946866
 10
944043.286165947
 20
-2876566.78677095
 10
820649.995832177
 20
-2935167.10461789
 10
775604.863154023
 20
-2975218.00278744
 10
784234.419409272
 20
-3020907.16969897
 10
810376.150719611
 20
-3028272.57170205
 10
801399.792677163
 20
-3085045.8563545
 10
723776.14683875
 20
-3083898.09984446
 10
715127.622629271
 20
-3036178.20753872
 10
700118.220358628
 20
-2987576.29082155
 10
691489.366451162
 20
-2948550.69836426
 10
710095.308585974
 20
-2826825.54508869
 10
683658.492782538
 20
-2748625.00307177
 10
634977.19668465
 20
-2592580.23606659
 10
743420.53898252
 20
-2466107.37149453
 10
770738.561573484
 20
-2385172.50127885
 10
786276.640042952
 20
-2374974.59197929
 10
798092.216762924
 20
-2308587.71154666
 10
781698.935532141
 20
-2275027.33696195
 10
786379.756460969
 20
-2190267.64906861
 10
806672.969329136
 20
-2111414.95897373
 10
806928.352277711
 20
-1966581.46726159
 10
753636.695493574
 20
-1929500.49705085
 10
704688.92334078
 20
-1920999.5544924
 10
682602.216465252
 20
-1892469.54935235
 10
634999.295094742
 20
-1868034.07982156
 10
549192.638794011
 20
-1870116.14342924
 10
542633.938145938
 20
-1827087.04710932
 10
533064.51636942
 20
-1744818.00013176
 10
845708.203693137
 20
-1650160.56952598
 10
904770.65897095
 20
-1706051.47209184
 10
933131.723198474
 20
-1695508.89737599
 10
973654.920790951
 20
-1724992.74077187
 10
979440.197285509
 20
-1771388.18251712
 10
957578.398037465
 20
-1825011.09909261
 10
964867.574402686
 20
-1906271.71203915
 10
1031675.71799633
 20
-1977523.97042251
 10
1063412.4315123
 20
-1897925.65745886
 10
1108042.73610874
 20
-1873877.65714529
 10
1099968.79376232
 20
-1725306.82535395
 10
1057220.47216576
 20
-1641234.87928419
 10
1020229.09449657
 20
-1603607.88129867
 10
984471.95809923
 20
-1605154.25276579
 10
956238.268235052
 20
-1453542.69194937
 10
985449.927020946
 20
-1364789.70198193
 97
0
 75
0
 76
1
 98
0
  0
HATCH
  5
20023
100
AcDbEntity
  8
0
100
AcDbHatch
 10
0
 20
0
 30
0
210
0
220
0
230
1
  2
SOLID
 70
1
 71
0
 91
1
 92
2
 72
0
 73
1
 93
16
 10
-4352160.60114891
 20
1555752.10779576
 10
-4238595.30845133
 20
1561027.58831503
 10
-4215502.74556598
 20
1588582.28128746
 10
-4182455.74833837
 20
1590996.36562437
 10
-4140796.29449355
 20
1563475.95890785
 10
-4108413.03317977
 20
1563484.19028662
 10
-4074335.28045862
 20
1583368.04606411
 10
-4052708.46466354
 20
1550564.31599166
 10
-4097421.10314452
 20
1524037.09443302
 10
-4142777.27890287
 20
1525299.83084581
 10
-4187937.27693138
 20
1548804.39354636
 10
-4226146.07432925
 20
1521619.63949066
 10
-4244820.54947883
 20
1520352.5493271
 10
-4269604.77739118
 20
1503817.87016736
 10
-4364585.38839274
 20
1504572.44377633
 10
-4352160.60114891
 20
1555752.10779576
 97
0
 75
0
 76
1
 98
0
  0
HATCH
  5
20024
100
AcDbEntity
  8
0
100
AcDbHatch
 10
0
 20
0
 30
0
210
0
220
0
230
1
  2
SOLID
 70
1
 71
0
 91
1
 92
2
 72
0
 73
1
 93
44
 10
-4352160.60114891
 20
1555752.10779576
 10
-4396779.80936885
 20
1644148.30141262
 10
-4449586.74349325
 20
1683872.03554372
 10
-4404063.1205274
 20
1706365.04184711
 10
-4354909.05944879
 20
1787164.29403178
 10
-4331125.72180217
 20
1845858.60618967
 10
-4295997.55535659
 20
1882779.52127432
 10
-4243908.38352217
 20
1873917.60149562
 10
-4193361.01331799
 20
1899438.8105312
 10
-4135047.20933545
 20
1901669.39681487
 10
-4084575.21461525
 20
1869258.96670611
 10
-4014747.63473283
 20
1840395.6598834
 10
-3950205.10858823
 20
1757867.70803216
 10
-3880065.90475478
 20
1680674.682434
 10
-3874154.79741074
 20
1609610.05761854
 10
-3852548.57693816
 20
1544264.58394627
 10
-3812998.26213887
 20
1512604.24969242
 10
-3803389.67929629
 20
1468245.8607497
 10
-3807633.41591224
 20
1432269.16935102
 10
-3822584.19800408
 20
1425529.37989549
 10
-3879581.85450706
 20
1433754.11764865
 10
-3887202.23916146
 20
1420803.87468306
 10
-3910146.59569318
 20
1417859.60608072
 10
-3985545.52775066
 20
1444763.58406179
 10
-4035894.55786077
 20
1445127.89565193
 10
-4228678.87845862
 20
1446716.35308773
 10
-4256409.67508758
 20
1433254.34129622
 10
-4291003.16847138
 20
1436363.20070952
 10
-4345906.50011884
 20
1416605.26654052
 10
-4364585.38839274
 20
1504572.44377633
 10
-4269604.77739118
 20
1503817.87016736
 10
-4244820.54947883
 20
1520352.5493271
 10
-4226146.07432925
 20
1521619.63949066
 10
-4187937.27693138
 20
1548804.39354636
 10
-4142777.27890287
 20
1525299.83084581
 10
-4097421.10314452
 20
1524037.09443302
 10
-4052708.46466354
 20
1550564.31599166
 10
-4074335.28045862
 20
1583368.04606411
 10
-4108413.03317977
 20
1563484.19028662
 10
-4140796.29449355
 20
1563475.95890785
 10
-4182455.74833837
 20
1590996.36562437
 10
-4215502.74556598
 20
1588582.28128746
 10
-4238595.30845133
 20
1561027.58831503
 10
-4352160.60114891
 20
1555752.10779576
 97
0
 75
0
 76
1
 98
0
  0
HATCH
  5
20025
100
AcDbEntity
  8
0
100
AcDbHatch
 10
0
 20
0
 30
0
210
0
220
0
230
1
  2
SOLID
 70
1
 71
0
 91
1
 92
2
 72
0
 73
1
 93
12
 10
406769.264384685
 20
-3320212.96979412
 10
442180.823340013
 20
-3352121.36829853
 10
410732.858609323
 20
-3403204.68097283
 10
393299.167280099
 20
-3437352.37799953
 10
336318.244071341
 20
-3453586.28249701
 10
317484.84359741
 20
-3486876.48707286
 10
280913.053499533
 20
-3497171.72097423
 10
204338.140496028
 20
-3416799.13128254
 10
258911.522585304
 20
-3350307.28004302
 10
314359.319350075
 20
-3309066.20092426
 10
362180.811311183
 20
-3287540.99987124
 10
406769.264384685
 20
-3320212.96979412
 97
0
 75
0
 76
1
 98
0
  0
HATCH
  5
20026
100
AcDbEntity
  8
0
100
AcDbHatch
 10
0
 20
0
 30
0
210
0
220
0
230
1
  2
SOLID
 70
1
 71
0
 91
1
 92
2
 72
0
 73
1
 93
15
 10
1809542.3002159
 20
1466617.40099492
 10
1854109.14238827
 20
1456273.64822479
 10
1885775.11379195
 20
1484183.98849263
 10
1910175.33014521
 20
1448314.54415077
 10
1906520.52166899
 20
1400400.32874487
 10
1846832.48531012
 20
1373191.63199449
 10
1891354.12641496
 20
1341186.19958899
 10
1852480.28965614
 20
1279447.93449577
 10
1829509.27407666
 20
1300295.18322024
 10
1804354.89958293
 20
1292258.07195011
 10
1746159.58302925
 20
1294618.12384815
 10
1744745.47944503
 20
1329889.60186888
 10
1736860.17147954
 20
1361912.61433139
 10
1772510.60000879
 20
1415856.42738421
 10
1809542.3002159
 20
1466617.40099492
 97
0
 75
0
 76
1
 98
0
  0
HATCH
  5
20027
100
AcDbEntity
  8
0
100
AcDbHatch
 10
0
 20
0
 30
0
210
0
220
0
230
1
  2
SOLID
 70
1
 71
0
 91
1
 92
2
 72
0
 73
1
 93
14
 10
561438.149393602
 20
-135409.649687762
 10
602405.848860184
 20
-202535.563598248
 10
596245.270046822
 20
-272408.252943701
 10
566323.146404345
 20
-287372.260811536
 10
566323.517474081
 20
-287375.202697792
 10
511328.233543173
 20
-279488.864077317
 10
479492.129115922
 20
-347050.41179308
 10
416649.722039447
 20
-337599.75687403
 10
426344.363033591
 20
-272640.481117982
 10
440583.454380047
 20
-263507.383477552
 10
444549.259014314
 20
-192828.330667014
 10
474400.933136825
 20
-159772.596098975
 10
499450.984062135
 20
-171940.427215138
 10
561438.149393602
 20
-135409.649687762
 97
0
 75
0
 76
1
 98
0
  0
HATCH
  5
20028
100
AcDbEntity
  8
0
100
AcDbHatch
 10
0
 20
0
 30
0
210
0
220
0
230
1
  2
SOLID
 70
1
 71
0
 91
1
 92
2
 72
0
 73
1
 93
49
 10
2528763.20530479
 20
-1487023.044735
 10
2555589.25988818
 20
-1536931.66190329
 10
2580266.56876069
 20
-1614091.28895653
 10
2595339.19689346
 20
-1753839.22440395
 10
2621418.45448357
 20
-1808212.60659166
 10
2610590.66170094
 20
-1863447.0239236
 10
2592036.28214868
 20
-1897147.53033829
 10
2557814.94367336
 20
-1829214.05712199
 10
2538114.63910509
 20
-1863151.7725764
 10
2556833.08742862
 20
-1948629.95837217
 10
2547190.43501088
 20
-1997209.12440731
 10
2518543.44368953
 20
-2023389.12330519
 10
2511060.60572209
 20
-2120159.2020516
 10
2469234.81299097
 20
-2252334.26224388
 10
2417016.51065604
 20
-2407487.41606031
 10
2351540.21413868
 20
-2618791.70631796
 10
2310785.54465835
 20
-2772294.77043623
 10
2263271.78794981
 20
-2899050.70875135
 10
2179735.26597724
 20
-2924124.91250782
 10
2089928.72480897
 20
-2969370.91139633
 10
2031189.11024692
 20
-2941091.33994834
 10
1950207.17810334
 20
-2901411.86139594
 10
1922403.43635457
 20
-2843460.68823358
 10
1916418.38829681
 20
-2745922.63556687
 10
1881016.94063143
 20
-2657460.55564169
 10
1872260.22580426
 20
-2577400.46877809
 10
1891262.2180422
 20
-2497023.03948694
 10
1938652.85499983
 20
-2478003.16016107
 10
1939228.85463911
 20
-2440668.11850339
 10
1988981.14072168
 20
-2355751.03638718
 10
1998823.97268393
 20
-2283859.60522467
 10
1975441.90570409
 20
-2229999.44524916
 10
1956564.58126727
 20
-2158153.03501256
 10
1949205.09598765
 20
-2052917.72044689
 10
1985644.06558918
 20
-1989125.20800268
 10
2000029.21335377
 20
-1916379.42741635
 10
2051325.23758071
 20
-1912570.24908956
 10
2108898.64577641
 20
-1889467.12051418
 10
2147167.70051197
 20
-1868959.78681924
 10
2192365.3518819
 20
-1867816.88371413
 10
2251605.07684851
 20
-1802598.81607964
 10
2336969.53620906
 20
-1732157.42033522
 10
2368426.45278239
 20
-1674133.71053121
 10
2354891.33458918
 20
-1624362.12346456
 10
2398492.27610265
 20
-1638759.8852172
 10
2456069.4004941
 20
-1558493.80471334
 10
2458681.59071629
 20
-1488406.24125256
 10
2493336.31573681
 20
-1436512.53250619
 10
2528763.20530479
 20
-1487023.044735
 97
0
 75
0
 76
1
 98
0
  0
HATCH
  5
20029
100
AcDbEntity
  8
0
100
AcDbHatch
 10
0
 20
0
 30
0
210
0
220
0
230
1
  2
SOLID
 70
1
 71
0
 91
1
 92
2
 72
0
 73
1
 93
31
 10
-1631126.56853111
 20
3407936.90153263
 10
-1677184.42746598
 20
3588007.90257324
 10
-1742315.1299734
 20
3627625.52123682
 10
-1743391.8836087
 20
3651561.1545329
 10
-1829873.89291346
 20
3709586.94707287
 10
-1839698.99261007
 20
3783085.97713963
 10
-1775187.19964547
 20
3837609.65220134
 10
-1750963.04729843
 20
3917029.92269046
 10
-1768309.02413907
 20
4007486.3471182
 10
-1747245.69116641
 20
4055941.40137139
 10
-1632724.74322507
 20
4094475.07172442
 10
-1558870.74982916
 20
4083747.43172716
 10
-1561665.25256381
 20
4036290.8925727
 10
-1472486.48806824
 20
4071378.50698435
 10
-1464880.31222117
 20
4053416.29813287
 10
-1517292.77775553
 20
4006962.96851592
 10
-1517731.91892717
 20
3963135.08981402
 10
-1481115.66747833
 20
3939708.59919665
 10
-1494484.58330238
 20
3856671.63820277
 10
-1563493.09278916
 20
3807648.32902608
 10
-1543151.87220338
 20
3754755.86363104
 10
-1488704.27128214
 20
3753430.14536533
 10
-1461939.37615051
 20
3707053.53106694
 10
-1421830.15888016
 20
3691926.13866061
 10
-1427341.27861825
 20
3616026.30147258
 10
-1478451.74435385
 20
3587199.00507111
 10
-1510642.4927158
 20
3555060.2125218
 10
-1582615.85663812
 20
3516039.83472235
 10
-1571167.53803198
 20
3474471.62201405
 10
-1579995.32725404
 20
3431752.8228633
 10
-1631126.56853111
 20
3407936.90153263
 97
0
 75
0
 76
1
 98
0
  0
HATCH
  5
2002A
100
AcDbEntity
  8
0
100
AcDbHatch
 10
0
 20
0
 30
0
210
0
220
0
230
1
  2
SOLID
 70
1
 71
0
 91
1
 92
2
 72
0
 73
1
 93
44
 10
-522875.747523257
 20
-2869977.56326705
 10
-522116.662120947
 20
-3268068.45593192
 10
-613265.378824928
 20
-3322431.33106512
 10
-668173.844212484
 20
-3330289.77018076
 10
-732520.09929297
 20
-3310496.45261046
 10
-778420.911628171
 20
-3302932.04012008
 10
-795808.056562345
 20
-3257652.50688588
 10
-836298.723099331
 20
-3228670.43344068
 10
-885104.67902555
 20
-3281394.26873003
 10
-961424.752016128
 20
-3201322.91595089
 10
-1001784.5352333
 20
-3123303.70857779
 10
-1024822.63347897
 20
-3018433.89570981
 10
-1050401.29561178
 20
-2939908.33351479
 10
-1085475.65429609
 20
-2771478.41204209
 10
-1088371.51525487
 20
-2639233.02891412
 10
-1101773.89389517
 20
-2578640.04549611
 10
-1141896.24722828
 20
-2532850.56213062
 10
-1195302.44124225
 20
-2440590.62013797
 10
-1249946.27650653
 20
-2305709.77385003
 10
-1272734.26495457
 20
-2234728.81713784
 10
-1356927.58169873
 20
-2124153.31655491
 10
-1363661.83226442
 20
-2036536.79620028
 10
-1314309.32100719
 20
-2014480.19260869
 10
-1252870.26180622
 20
-1994632.26395513
 10
-1186202.33143513
 20
-1997720.19844158
 10
-1124671.65826612
 20
-2049207.69715641
 10
-1109166.37636813
 20
-2041095.01699115
 10
-692500.130364143
 20
-2034602.71587318
 10
-621134.839576364
 20
-2089185.44685923
 10
-372300.257416877
 20
-2104830.07287649
 10
-183466.336785495
 20
-2058065.03151583
 10
-99315.2903764264
 20
-2032015.64470495
 10
-32652.3946497807
 20
-2038585.90062102
 10
7909.13380480037
 20
-2064363.99836663
 10
8678.9493250151
 20
-2073848.58475649
 10
-49255.8642037528
 20
-2099582.62272438
 10
-80429.2977970238
 20
-2099844.60098115
 10
-146004.666911004
 20
-2144559.86350376
 10
-185305.681580051
 20
-2097584.35545761
 10
-343698.67529731
 20
-2137684.19999639
 10
-420179.950965475
 20
-2141573.15126338
 10
-422507.446718778
 20
-2543388.30086046
 10
-523608.137714368
 20
-2547473.67994656
 10
-522875.747523257
 20
-2869977.56326705
 97
0
 75
0
 76
1
 98
0
  0
HATCH
  5
2002B
100
AcDbEntity
  8
0
100
AcDbHatch
 10
0
 20
0
 30
0
210
0
220
0
230
1
  2
SOLID
 70
1
 71
0
 91
1
 92
2
 72
0
 73
1
 93
25
 10
-2602794.72130669
 20
1283272.48430176
 10
-2610077.28201915
 20
1247009.04253466
 10
-2565962.9127751
 20
1187527.56964507
 10
-2565250.9470238
 20
1102933.09016622
 10
-2554367.43845334
 20
1011042.12217869
 10
-2527816.34498708
 20
968641.47609786
 10
-2549722.78441364
 20
862836.049916958
 10
-2540852.89683674
 20
804515.926243737
 10
-2512363.91853464
 20
730202.962533986
 10
-2488737.18866238
 20
689099.700716152
 10
-2650962.87660534
 20
618396.917693388
 10
-2708294.47196243
 20
577308.345870889
 10
-2801529.67668836
 20
542009.445837971
 10
-2894537.84661435
 20
574454.65977935
 10
-2890369.0277649
 20
621055.908782029
 10
-2936658.00374467
 20
721997.914570066
 10
-2911125.30010495
 20
855038.526808057
 10
-2868444.64251245
 20
954013.632499796
 10
-2898022.99391186
 20
1119910.8179544
 10
-2913270.41647836
 20
1207381.76377355
 10
-2911607.20113245
 20
1273299.20248952
 10
-2730661.68461716
 20
1280851.77575207
 10
-2684532.58538908
 20
1272905.17965827
 10
-2651090.88963421
 20
1291993.45362991
 10
-2602794.72130669
 20
1283272.48430176
 97
0
 75
0
 76
1
 98
0
  0
HATCH
  5
2002C
100
AcDbEntity
  8
0
100
AcDbHatch
 10
0
 20
0
 30
0
210
0
220
0
230
1
  2
SOLID
 70
1
 71
0
 91
1
 92
2
 72
0
 73
1
 93
63
 10
605775.021440238
 20
415330.749555642
 10
514526.915757602
 20
494128.883983125
 10
489958.27358436
 20
544643.138445129
 10
432054.411428559
 20
519763.591409582
 10
384031.461045837
 20
527619.018220603
 10
356194.030319063
 20
507820.131096112
 10
309569.681636637
 20
522211.788339177
 10
246740.795291961
 20
619743.010938159
 10
230063.146544441
 20
657141.895525956
 10
152396.669732227
 20
703836.68678361
 10
126184.041052897
 20
774457.952613837
 10
82861.1054718846
 20
825343.117951208
 10
12914.3567850831
 20
886499.818605676
 10
11959.2360835575
 20
924616.501083234
 10
-45025.892419233
 20
971952.890498178
 10
-115858.786952045
 20
1017629.991619
 10
-83897.1150454715
 20
1030384.47594668
 10
-48159.1777944916
 20
1052465.04880498
 10
-21359.1357434352
 20
1156622.89217704
 10
7251.04520729251
 20
1210580.16272843
 10
82370.5053860119
 20
1226536.59131154
 10
100242.893060294
 20
1194581.76156244
 10
153849.554036768
 20
1126562.49696853
 10
182447.15845364
 20
1116532.75963017
 10
220007.766698947
 20
1136519.17691835
 10
295094.289502762
 20
1132437.60510616
 10
309366.790307164
 20
1108395.08428747
 10
413052.434919989
 20
1108242.01573898
 10
416668.709144266
 20
1132260.79259292
 10
470346.751368141
 20
1154171.77988178
 10
481141.66892811
 20
1188135.63777423
 10
520534.499439501
 20
1212023.50392755
 10
607999.245330098
 20
1143866.47134814
 10
661669.978224188
 20
1155729.33330605
 10
713767.432852342
 20
1239477.3492933
 10
771204.795749916
 20
1303076.01899074
 10
762475.915444325
 20
1372702.31093286
 10
737522.892726365
 20
1406524.25938857
 10
800187.486384915
 20
1412278.5441358
 10
807432.03884659
 20
1438027.703565
 10
855736.829209613
 20
1429936.14458664
 10
842912.809567755
 20
1344618.6783288
 10
855146.627078075
 20
1260960.93021256
 10
908640.246863442
 20
1214883.56502894
 10
921009.134173874
 20
1174884.8910008
 10
919003.070313398
 20
1116877.20666288
 10
933409.781671699
 20
1114516.19908688
 10
934268.605966809
 20
1023454.21030237
 10
918574.070076412
 20
987787.655228412
 10
863327.931249227
 20
985112.105388955
 10
827650.251720647
 20
918511.026823702
 10
891518.874526919
 20
909888.009870965
 10
944030.628107111
 20
852501.628216943
 10
962072.72983491
 20
805455.178184657
 10
1009458.60342793
 20
778005.526960595
 10
1070354.92469048
 20
649605.170962995
 10
999586.733026055
 20
572173.652014184
 10
935394.71456849
 20
501883.158639138
 10
871317.70375619
 20
447748.856795024
 10
798250.732105336
 20
448273.214199305
 10
714572.08732161
 20
420845.728137791
 10
648611.536231806
 20
447484.435425184
 10
605775.021440238
 20
415330.749555642
 97
0
 75
0
 76
1
 98
0
  0
HATCH
  5
2002D
100
AcDbEntity
  8
0
100
AcDbHatch
 10
0
 20
0
 30
0
210
0
220
0
230
1
  2
SOLID
 70
1
 71
0
 91
1
 92
2
 72
0
 73
1
 93
58
 10
-1063383.9374908
 20
2628631.10387817
 10
-1036936.61048447
 20
2459161.33887504
 10
-997642.113395368
 20
2430764.39358673
 10
-995816.084179749
 20
2395776.02676018
 10
-952112.264835502
 20
2358142.75916743
 10
-974688.761849078
 20
2310457.48093272
 10
-1014074.45190749
 20
2084119.51125404
 10
-1018977.39064114
 20
1937662.77932173
 10
-1151753.60444282
 20
1830245.77092962
 10
-1196116.13866973
 20
1679916.89854435
 10
-1152464.63858855
 20
1637733.36893133
 10
-1152349.67615254
 20
1563948.00064282
 10
-1085432.84328345
 20
1561608.5971931
 10
-1095622.57856511
 20
1507389.81697496
 10
-1125032.31865573
 20
1500651.81075428
 10
-1128221.25546365
 20
1463948.05097501
 10
-1147604.41726853
 20
1461310.39927844
 10
-1218793.68130621
 20
1586925.61293786
 10
-1243306.06374122
 20
1591369.00825959
 10
-1324542.654783
 20
1526720.87153702
 10
-1405499.34975923
 20
1559816.14242014
 10
-1461687.91911592
 20
1566189.73493467
 10
-1491694.60209988
 20
1549876.76802321
 10
-1552871.16533644
 20
1552983.01998895
 10
-1614086.34298182
 20
1503568.64606728
 10
-1667260.03496183
 20
1500398.26770966
 10
-1793924.5656174
 20
1558952.53198318
 10
-1843154.2360458
 20
1530368.74463649
 10
-1896400.40246471
 20
1531923.78792811
 10
-1935862.055502
 20
1575012.61166192
 10
-2040796.4138077
 20
1616966.23087458
 10
-2152822.49201078
 20
1602429.57389522
 10
-2179772.50678964
 20
1577378.83762563
 10
-2193856.54869989
 20
1511151.74663608
 10
-2223333.83113695
 20
1464442.71410926
 10
-2229638.13214304
 20
1361274.43854069
 10
-2309752.11633423
 20
1427042.4246403
 10
-2347127.26016566
 20
1426388.93251348
 10
-2381800.03147896
 20
1392220.86558208
 10
-2380208.0691767
 20
1471281.58370704
 10
-2500717.86006165
 20
1496208.46614123
 10
-2504525.72784981
 20
1551828.50710902
 10
-2564054.18641347
 20
1626124.01908262
 10
-2578614.7809533
 20
1678091.51941688
 10
-2570923.33858191
 20
1733503.99842005
 10
-2504060.75005988
 20
1738673.46547758
 10
-2465865.80495402
 20
1779538.32588761
 10
-2323482.95264672
 20
1790708.3026897
 10
-2230891.25837392
 20
1809599.88366335
 10
-2222630.67737747
 20
1879590.20971895
 10
-2166178.93946922
 20
1955622.83475836
 10
-2168748.56183971
 20
2213786.90601405
 10
-2021650.10693354
 20
2264611.49903873
 10
-1720240.1695534
 20
2483519.18895045
 10
-1362557.57127041
 20
2693027.97109098
 10
-1196534.41435668
 20
2647265.68754733
 10
-1137321.55414111
 20
2587931.24324341
 10
-1063383.9374908
 20
2628631.10387817
 97
0
 75
0
 76
1
 98
0
  0
HATCH
  5
2002E
100
AcDbEntity
  8
0
100
AcDbHatch
 10
0
 20
0
 30
0
210
0
220
0
230
1
  2
SOLID
 70
1
 71
0
 91
1
 92
2
 72
0
 73
1
 93
62
 10
246740.795291961
 20
619743.010938159
 10
212418.053367728
 20
607259.194383894
 10
145775.70202226
 20
610024.287025784
 10
67599.1280559961
 20
622470.317563907
 10
28973.168762225
 20
612370.648049615
 10
13386.9988032774
 20
583677.417575911
 10
-20259.0224772782
 20
580136.048003748
 10
-61256.7048785171
 20
605094.018787568
 10
-176908.185581314
 20
546120.498226583
 10
-224266.859234798
 20
557942.125299069
 10
-238529.028011464
 20
548826.670660883
 10
-269514.662035674
 20
477436.229597171
 10
-347030.189623761
 20
500410.107618637
 10
-423037.374830109
 20
511923.939110625
 10
-489286.355016575
 20
555376.323360651
 10
-574877.399776953
 20
595308.665551734
 10
-630422.328340333
 20
557157.919867112
 10
-670708.14213188
 20
497069.284130606
 10
-679818.241782573
 20
414569.403483015
 10
-746622.971623307
 20
420977.684439881
 10
-816974.472127917
 20
440626.78560529
 10
-878640.630705274
 20
377702.714026175
 10
-932642.896192438
 20
267267.066687687
 10
-943721.047753913
 20
301560.563907519
 10
-948565.181738065
 20
355571.104221536
 10
-996197.832452491
 20
393472.887839116
 10
-1034787.72016418
 20
454368.170424751
 10
-1043824.50436765
 20
496775.663229455
 10
-1093188.83192887
 20
558251.873613235
 10
-1084974.70668547
 20
593465.036279243
 10
-1095539.95803698
 20
643098.516898738
 10
-1087927.78287964
 20
734458.472233435
 10
-1063068.6111785
 20
755931.72393019
 10
-1011266.79856704
 20
875236.991006561
 10
-925288.276708533
 20
884397.330972427
 10
-906222.915278155
 20
914637.48868064
 10
-888981.483874876
 20
912410.477002801
 10
-862895.821688725
 20
885944.248901596
 10
-732052.320700832
 20
931234.544801046
 10
-687995.620316253
 20
977090.792703875
 10
-633829.014145092
 20
1018141.88108296
 10
-644243.95407918
 20
1059259.39280616
 10
-614911.605251216
 20
1070072.61976103
 10
-514353.483889656
 20
1063046.978859
 10
-416455.771584659
 20
1117306.76760444
 10
-341347.063582961
 20
1244437.99783056
 10
-288545.790325032
 20
1291507.88809846
 10
-222594.670720719
 20
1311351.5367066
 10
-210735.775840725
 20
1261707.67904917
 10
-150593.795810322
 20
1189066.92935059
 10
-150257.784880804
 20
1141543.30227928
 10
-167145.423638653
 20
1092996.10791069
 10
-160433.208127594
 20
1056710.63674552
 10
-124310.467303467
 20
1023074.01294899
 10
-45025.892419233
 20
971952.890498178
 10
11959.2360835575
 20
924616.501083234
 10
12914.3567850831
 20
886499.818605676
 10
82861.1054718846
 20
825343.117951208
 10
126184.041052897
 20
774457.952613837
 10
152396.669732227
 20
703836.68678361
 10
230063.146544441
 20
657141.895525956
 10
246740.795291961
 20
619743.010938159
 97
0
 75
0
 76
1
 98
0
  0
HATCH
  5
2002F
100
AcDbEntity
  8
0
100
AcDbHatch
 10
0
 20
0
 30
0
210
0
220
0
230
1
  2
SOLID
 70
1
 71
0
 91
1
 92
2
 72
0
 73
1
 93
62
 10
-3536271.01893858
 20
3088236.65107639
 10
-3534537.08367118
 20
3108469.6445137
 10
-3534685.8281153
 20
3115442.12275184
 10
-3537339.35767318
 20
3238112.17834694
 10
-3368745.02144676
 20
3316178.54815945
 10
-3264025.86596608
 20
3333157.85035187
 10
-3178370.26315865
 20
3361664.39089586
 10
-3138820.34423615
 20
3413001.56348804
 10
-3016408.94008883
 20
3454513.04467143
 10
-3012800.65304322
 20
3528904.93827148
 10
-2952066.15527507
 20
3538356.02487104
 10
-2904924.65067371
 20
3575796.39207984
 10
-2767458.53091038
 20
3594130.8910825
 10
-2748600.26862592
 20
3632859.41244694
 10
-2776557.81070985
 20
3653535.90374572
 10
-2814077.52681209
 20
3756625.5221036
 10
-2821017.06261412
 20
3815597.32434183
 10
-2861415.35711426
 20
3876846.34568142
 10
-2760761.5501699
 20
3930255.13297286
 10
-2647056.93635665
 20
3948046.01116681
 10
-2580959.67037462
 20
3987880.83212536
 10
-2479782.92800892
 20
4017651.39129582
 10
-2301357.83023477
 20
4036150.49804322
 10
-2127120.15450824
 20
4045331.09175099
 10
-2073852.21534156
 20
4031823.31930533
 10
-1974913.65469745
 20
4069617.88357618
 10
-1862299.66417189
 20
4071213.40702106
 10
-1819276.51802851
 20
4049724.94463089
 10
-1747245.69116641
 20
4055941.40137139
 10
-1768309.02413907
 20
4007486.3471182
 10
-1750963.04729843
 20
3917029.92269046
 10
-1775187.19964547
 20
3837609.65220134
 10
-1839698.99261007
 20
3783085.97713963
 10
-1829873.89291346
 20
3709586.94707287
 10
-1743391.8836087
 20
3651561.1545329
 10
-1742315.1299734
 20
3627625.52123682
 10
-1677184.42746598
 20
3588007.90257324
 10
-1631126.56853111
 20
3407936.90153263
 10
-1596541.79438153
 20
3318186.4950971
 10
-1590522.45423341
 20
3270550.27059086
 10
-1608474.58654663
 20
3186198.76314291
 10
-1600580.51055148
 20
3138887.22528313
 10
-1613549.01286201
 20
3081677.743808
 10
-1603963.11475035
 20
3015759.86921287
 10
-1645318.88849477
 20
2971428.72117623
 10
-1582782.29894152
 20
2894604.22172847
 10
-1578549.30211887
 20
2849000.28823855
 10
-1540884.86410438
 20
2789610.48000899
 10
-1491985.38416152
 20
2809533.24044698
 10
-1408936.41240216
 20
2760206.44881559
 10
-1362557.57127041
 20
2693027.97109098
 10
-1720240.1695534
 20
2483519.18895045
 10
-2021650.10693354
 20
2264611.49903873
 10
-2168748.56183971
 20
2213786.90601405
 10
-2284681.7723721
 20
2201834.88002909
 10
-2286539.46937284
 20
2272540.58788981
 10
-2335161.09602011
 20
2290117.41816728
 10
-2400615.98610216
 20
2321150.43487191
 10
-2426007.98498717
 20
2372645.97890844
 10
-2781786.2866946
 20
2607585.6217296
 10
-3138194.18698697
 20
2838086.06128593
 10
-3536271.01893858
 20
3088236.65107639
 97
0
 75
0
 76
1
 98
0
  0
HATCH
  5
20030
100
AcDbEntity
  8
0
100
AcDbHatch
 10
0
 20
0
 30
0
210
0
220
0
230
1
  2
SOLID
 70
1
 71
0
 91
1
 92
2
 72
0
 73
1
 93
37
 10
1468849.54351862
 20
-559808.809378597
 10
1321049.2402391
 20
-440323.323608442
 10
1314363.58540243
 20
-371402.98949977
 10
939987.875740467
 20
-127687.146833805
 10
922537.240399998
 20
-114575.436843339
 10
921962.792250844
 20
11294.4613132638
 10
951843.813305885
 20
59285.0735645589
 10
1003191.13449852
 20
137639.699987589
 10
1041302.88974928
 20
223936.853623515
 10
996213.915141865
 20
360141.464802321
 10
984313.516742592
 20
419590.719871211
 10
935394.71456849
 20
501883.158639138
 10
999586.733026055
 20
572173.652014184
 10
1070354.92469048
 20
649605.170962995
 10
1124253.1218011
 20
629580.342712678
 10
1123948.20605019
 20
563349.97846662
 10
1159259.29364396
 20
524316.165587332
 10
1231564.07670397
 20
523962.06169502
 10
1362501.75078281
 20
422860.000231166
 10
1395314.3432095
 20
421480.207713104
 10
1419649.59265212
 20
424600.444999509
 10
1442556.33119382
 20
410820.487430595
 10
1511743.98595717
 20
401090.949197388
 10
1542743.69043597
 20
450198.01846107
 10
1637948.82834386
 20
499022.695638286
 10
1679568.04288721
 20
458790.767862885
 10
1750530.99776282
 20
458270.973127508
 10
1658844.19828112
 20
324652.042023237
 10
1657142.65822351
 20
-107573.768998748
 10
1717804.54746124
 20
-205991.842889057
 10
1644945.23709743
 20
-252922.409670255
 10
1619046.00384872
 20
-302311.092860978
 10
1580184.49862212
 20
-310762.114447671
 10
1564960.44738907
 20
-394343.727096288
 10
1531423.94536401
 20
-442037.059458521
 10
1510738.27451243
 20
-520883.105703989
 10
1468849.54351862
 20
-559808.809378597
 97
0
 75
0
 76
1
 98
0
  0
HATCH
  5
20031
100
AcDbEntity
  8
0
100
AcDbHatch
 10
0
 20
0
 30
0
210
0
220
0
230
1
  2
SOLID
 70
1
 71
0
 91
1
 92
2
 72
0
 73
1
 93
37
 10
1717804.54746124
 20
-205991.842889057
 10
1657142.65822351
 20
-107573.768998748
 10
1658844.19828112
 20
324652.042023237
 10
1750530.99776282
 20
458270.973127508
 10
1779210.03333723
 20
495328.536664908
 10
1845814.48257499
 20
497015.620948862
 10
1939046.71641479
 20
579554.774682876
 10
2074454.13142346
 20
583643.199281954
 10
2371505.40037422
 20
933964.13870298
 10
2445043.12406958
 20
1030911.50688943
 10
2492763.49993844
 20
1102136.23594202
 10
2493393.71673566
 20
1162936.71415638
 10
2494615.16740167
 20
1280181.1514293
 10
2495467.90255045
 20
1327926.32803038
 10
2496133.35637152
 20
1329813.49035907
 10
2496133.35637152
 20
1329813.49035907
 10
2529463.16138747
 20
1331754.65184902
 10
2577678.52295101
 20
1348453.77931105
 10
2633064.82032334
 20
1359514.7471253
 10
2682828.51912815
 20
1398556.15898835
 10
2722363.84779572
 20
1398436.57229838
 10
2724371.84347864
 20
1366450.00001897
 10
2713999.63115784
 20
1299208.51601641
 10
2713717.47544298
 20
1238214.15794818
 10
2691258.70367384
 20
1196478.33434106
 10
2660534.77521953
 20
1070844.44833032
 10
2609011.9399035
 20
940768.829259195
 10
2543119.55862293
 20
791599.353495185
 10
2452140.88240257
 20
619959.907865243
 10
2362134.45453048
 20
488641.899128818
 10
2238499.97375605
 20
328403.043007524
 10
2133779.629147
 20
233412.338429859
 10
1977614.70496824
 20
116953.422455036
 10
1880240.65451259
 20
27437.8621553644
 10
1765737.78702744
 20
-115567.554988154
 10
1741394.69259065
 20
-178031.431951138
 10
1717804.54746124
 20
-205991.842889057
 97
0
 75
0
 76
1
 98
0
  0
HATCH
  5
20032
100
AcDbEntity
  8
0
100
AcDbHatch
 10
0
 20
0
 30
0
210
0
220
0
230
1
  2
SOLID
 70
1
 71
0
 91
1
 92
2
 72
0
 73
1
 93
61
 10
592598.298158661
 20
-989653.004291822
 10
635647.119987995
 20
-1019793.93552297
 10
676737.921127439
 20
-1039652.90919617
 10
742274.232490612
 20
-1059684.40375528
 10
800730.128390739
 20
-1095243.35563883
 10
849255.380298132
 20
-1147923.80323931
 10
875131.800672977
 20
-1247778.10496873
 10
857448.271171365
 20
-1279517.37449189
 10
836391.643571687
 20
-1374433.65726494
 10
855853.551708982
 20
-1471353.4108835
 10
823294.7355992
 20
-1511851.63490959
 10
791664.864038036
 20
-1619891.18121173
 10
845708.203693137
 20
-1650160.56952598
 10
533064.51636942
 20
-1744818.00013176
 10
542633.938145938
 20
-1827087.04710932
 10
464677.507076102
 20
-1842716.65172818
 10
406025.381844466
 20
-1888515.16284442
 10
393453.556713604
 20
-1928378.27193258
 10
356627.251100277
 20
-1937360.49324715
 10
267089.943515215
 20
-2031569.13188007
 10
210095.306888045
 20
-2105477.65288896
 10
175394.437473743
 20
-2108097.26182486
 10
142020.594656729
 20
-2094930.07869187
 10
27155.7122047381
 20
-2082386.27149021
 10
8678.9493250151
 20
-2073848.58475649
 10
7909.13380480037
 20
-2064363.99836663
 10
-32652.3946497807
 20
-2038585.90062102
 10
-99315.2903764264
 20
-2032015.64470495
 10
-183466.336785495
 20
-2058065.03151583
 10
-250614.961235445
 20
-1986595.09333188
 10
-320102.442589489
 20
-1892675.266869
 10
-315847.662888969
 20
-1524013.38157273
 10
-101349.529645065
 20
-1525298.12405693
 10
-110145.936394008
 20
-1485045.99503698
 10
-94813.4887308958
 20
-1441308.57243074
 10
-112949.823378791
 20
-1386482.60608595
 10
-101250.295966694
 20
-1329694.4427556
 10
-112162.051790265
 20
-1293306.32209304
 10
-76594.1593391279
 20
-1296243.61787995
 10
-70669.0968706713
 20
-1332674.51206062
 10
-22354.1020781502
 20
-1329837.79182909
 10
43103.9482333669
 20
-1340646.77823947
 10
77538.8515607087
 20
-1393801.78208009
 10
160062.441072592
 20
-1410153.80688089
 10
223100.825148376
 20
-1373273.66339328
 10
246166.728610737
 20
-1434574.39260907
 10
325113.316981064
 20
-1450991.44703236
 10
363005.375328148
 20
-1500780.31702189
 10
405211.71409114
 20
-1564976.44180072
 10
484034.634174769
 20
-1566083.7709057
 10
475670.074015821
 20
-1440308.29653974
 10
447348.953660601
 20
-1461493.791583
 10
375381.767356219
 20
-1415901.98760066
 10
347568.935569301
 20
-1395054.30664714
 10
360505.337187544
 20
-1277486.30264689
 10
379037.684966496
 20
-1138402.45224986
 10
356021.934195962
 20
-1086446.43095055
 10
385552.662189904
 20
-1011244.75439982
 10
413247.18307128
 20
-997189.695935821
 10
551957.031722208
 20
-977549.439653032
 10
592598.298158661
 20
-989653.004291822
 97
0
 75
0
 76
1
 98
0
  0
HATCH
  5
20033
100
AcDbEntity
  8
0
100
AcDbHatch
 10
0
 20
0
 30
0
210
0
220
0
230
1
  2
SOLID
 70
1
 71
0
 91
1
 92
2
 72
0
 73
1
 93
56
 10
0
 20
2537023.21992741
 10
0
 20
2317466.92009803
 10
-120344.144451721
 20
2317100.93230511
 10
-121612.482479039
 20
2270592.12030606
 10
-539370.481986216
 20
2481211.07193394
 10
-957833.723864308
 20
2688245.41175064
 10
-1063383.9374908
 20
2628631.10387817
 10
-1137321.55414111
 20
2587931.24324341
 10
-1196534.41435668
 20
2647265.68754733
 10
-1362557.57127041
 20
2693027.97109098
 10
-1408936.41240216
 20
2760206.44881559
 10
-1491985.38416152
 20
2809533.24044698
 10
-1540884.86410438
 20
2789610.48000899
 10
-1578549.30211887
 20
2849000.28823855
 10
-1582782.29894152
 20
2894604.22172847
 10
-1645318.88849477
 20
2971428.72117623
 10
-1603963.11475035
 20
3015759.86921287
 10
-1613549.01286201
 20
3081677.743808
 10
-1600580.51055148
 20
3138887.22528313
 10
-1608474.58654663
 20
3186198.76314291
 10
-1590522.45423341
 20
3270550.27059086
 10
-1596541.79438153
 20
3318186.4950971
 10
-1631126.56853111
 20
3407936.90153263
 10
-1579995.32725404
 20
3431752.8228633
 10
-1571167.53803198
 20
3474471.62201405
 10
-1582615.85663812
 20
3516039.83472235
 10
-1510642.4927158
 20
3555060.2125218
 10
-1478451.74435385
 20
3587199.00507111
 10
-1427341.27861825
 20
3616026.30147258
 10
-1421830.15888016
 20
3691926.13866061
 10
-1298054.3308676
 20
3658689.49414908
 10
-1253911.05306844
 20
3667407.87942118
 10
-1165928.92627111
 20
3651364.87404531
 10
-1026130.00672871
 20
3607711.61707637
 10
-976514.879159474
 20
3519197.700194
 10
-882046.401114993
 20
3500066.52519081
 10
-733714.477745654
 20
3458382.95942786
 10
-621587.675601272
 20
3408364.01452907
 10
-570392.855493336
 20
3434780.83343951
 10
-520104.223980387
 20
3481330.7506023
 10
-544773.923588496
 20
3558114.9756796
 10
-511887.106071991
 20
3606641.37731519
 10
-436170.102984381
 20
3653219.52815971
 10
-363753.090013372
 20
3666806.04102101
 10
-221393.395232445
 20
3646760.64966087
 10
-185478.296706209
 20
3602459.96993176
 10
-146311.121155899
 20
3602065.77685275
 10
-112812.77549383
 20
3585109.37746772
 10
-8294.63398717422
 20
3573443.78005128
 10
17333.7443472397
 20
3540453.00878611
 10
-20727.6735690049
 20
3492299.20174697
 10
-4455.36175662007
 20
3449172.20430442
 10
-31523.3125472696
 20
3386567.79861997
 10
0
 20
3304292.7453449
 10
0
 20
2933341.00474227
 10
0
 20
2537023.21992741
 97
0
 75
0
 76
1
 98
0
  0
ENDSEC
  0
SECTION
  2
OBJECTS
  0
DICTIONARY
  5
C
330
0
100
AcDbDictionary
281
     1
  3
ACAD_GROUP
350
D
  3
ACAD_LAYOUT
350
1A
  3
ACAD_MLEADERSTYLE
350
43
  3
ACAD_PLOTSETTINGS
350
19
  3
ACAD_PLOTSTYLENAME
350
E
  3
ACAD_TABLESTYLE
350
42
  0
DICTIONARY
  5
D
102
{ACAD_REACTORS
330
C
102
}
330
C
100
AcDbDictionary
281
     1
  0
DICTIONARY
  5
1A
102
{ACAD_REACTORS
330
C
102
}
330
C
100
AcDbDictionary
281
     1
  3
Layout1
350
1E
  3
Model
350
22
  0
DICTIONARY
  5
43
102
{ACAD_REACTORS
330
C
102
}
330
C
100
AcDbDictionary
281
     1
  0
DICTIONARY
  5
19
102
{ACAD_REACTORS
330
C
102
}
330
C
100
AcDbDictionary
281
     1
  0
ACDBDICTIONARYWDFLT
  5
E
102
{ACAD_REACTORS
330
C
102
}
330
C
100
AcDbDictionary
281
     1
  3
Normal
350
F
100
AcDbDictionaryWithDefault
340
F
  0
DICTIONARY
  5
42
102
{ACAD_REACTORS
330
C
102
}
330
C
100
AcDbDictionary
281
     1
  0
LAYOUT
  5
1E
102
{ACAD_REACTORS
330
1A
102
}
330
1A
100
AcDbPlotSettings
  1

  2
none_device
  4

  6

 40
0.0
 41
0.0
 42
0.0
 43
0.0
 44
0.0
 45
0.0
 46
0.0
 47
0.0
 48
0.0
 49
0.0
140
0.0
141
0.0
142
1.0
143
1.0
 70
   688
 72
     0
 73
     0
 74
     5
  7

 75
    16
 76
     0
 77
     2
 78
   300
147
1.0
148
0.0
149
0.0
100
AcDbLayout
  1
Layout1
 70
     1
 71
     1
 10
0.0
 20
0.0
 11
12.0
 21
9.0
 12
0.0
 22
0.0
 32
0.0
 14
1.000000000000000E+20
 24
1.000000000000000E+20
 34
1.000000000000000E+20
 15
-1.000000000000000E+20
 25
-1.000000000000000E+20
 35
-1.000000000000000E+20
146
0.0
 13
0.0
 23
0.0
 33
0.0
 16
1.0
 26
0.0
 36
0.0
 17
0.0
 27
1.0
 37
0.0
 76
     0
330
1B
  0
LAYOUT
  5
22
102
{ACAD_REACTORS
330
1A
102
}
330
1A
100
AcDbPlotSettings
  1

  2
none_device
  4

  6

 40
0.0
 41
0.0
 42
0.0
 43
0.0
 44
0.0
 45
0.0
 46
0.0
 47
0.0
 48
0.0
 49
0.0
140
0.0
141
0.0
142
1.0
143
1.0
 70
  1712
 72
     0
 73
     0
 74
     0
  7

 75
     0
 76
     0
 77
     2
 78
   300
147
1.0
148
0.0
149
0.0
100
AcDbLayout
  1
Model
 70
     1
 71
     0
 10
0.0
 20
0.0
 11
12.0
 21
9.0
 12
0.0
 22
0.0
 32
0.0
 14
30.0
 24
49.75
 34
0.0
 15
130.5
 25
163.1318914119703
 35
0.0
146
0.0
 13
0.0
 23
0.0
 33
0.0
 16
1.0
 26
0.0
 36
0.0
 17
0.0
 27
1.0
 37
0.0
 76
     0
330
1F
331
29
  0
ACDBPLACEHOLDER
  5
F
102
{ACAD_REACTORS
330
E
102
}
330
E
  0
ENDSEC
  0
EOF
