<?xml version="1.0" encoding="utf-8"?><svg xmlns="http://www.w3.org/2000/svg" version="1.1" baseProfile="tiny" width="256" height="256" viewBox="0 0 256 256"><g><g stroke="#000000" stroke-width=".98" fill="#FFFFFF"><path d="m116.31 7l.1-.11.08-.08.49-.36.3-.17.27-.08.25-.14.1-.34 0-.72-.08.16-.05.38-.07.17-.15.17-.17.1-.77.27-.28.19-.62.7-.16.25-.11.27-.05.3-.13.22-.78.64-.03.15.01.16-.04.13-.19.06-.19.02-.14.08-.27.25-.11.14-.22.36-.12.15-.14.06-.32.08-.14.05-.65.43-.61.53-.11.12-.08.13-.11.12-.14.08-.17.05-.43.04-.61.33-1.41 1.58-.73.61-.21.1-.1.07-.15.44-.14.13-1.04.64-.23.25-.09.32-.16.31-.36.22-.69.33-.11.14-.23.39-.12.08-.14.06-.14.15-.12.18-.04.15-.05.33-.11.33-.17.3-.19.29-.44.9-.2.07-.23.16-.1.2.18.18-.06.14-.03.14-.01.16.01.16.22-.06.2.1.14.21.03.25.05-.04.15-.16.02.05 0 .03 0 .01.07.01 0-.45.04-.16.08.07.07.16.02.07.39.4.21.11 0 .1-.32.15.02.26.1.31-.09.28.13.29.12.18.07.21-.03.32-.07.12-.11.14-.05.14.08.15.13 0 .16-.1.27-.24-.03.18-.04.16-.01.16.05.15.08-.12.04-.12.07-.12.14-.09.13.16.18.08.2.01.19-.06 0-.09-.06-.02-.14-.08.16-.02.08-.04 0-.05-.04-.09 1.61-1.71.07-.26 0-.24.02-.22.15-.23 2.46-2.83.44-.87.26-.36.41-.23.49-.13.42-.21.19-.44.1.04.1.07.18-.11.16.02.17.06.19.03.18-.05.88-.47.84-.79.6-.4.2-.24.2-.37.09-.33.09-.77.13-.3.43.13.31-.2.2-.37.08-.54.03-.07.03-.06.03-.09 0-.35-.04-.21-.27-.65.29-.4-.02-.49-.37-.91.24-.25-.08-.34-.21-.34-.19-.22-.03-.13-.03-.66.04-.13.08-.14z" /><path d="m172.78 250.75l.04.1.05.09.08.06.13-.01.21-.15.12-.04.1-.11.11-.24.08-.26 0-.14-.23-.35-.61-1.2-.14-.44-.06-.52-.46-.7-.12-.24.01-.25.05-.24 0-.23-.16-.39-.52-.79-.11-.42-.03-.5-.05-.28-.1-.33-.02-.25-.05-.09-.19-.22-.16-.23-.17-.51-.08-.41-.21-.28-.55-.1-1.52.05-.21-.03-.28-.13-.33-.33-.07-.39.1-.94-.1-.95.04-.24.14-.47.02-.28-.1-1.02.01-.09.04-.07 0-.1-.05-.12-.48-.31-.36-.36-.11-.19-.04-.26.04-.25.26-.65-.04-.4-.12-.53-.06-.53.17-.39.1-.37-.13-.53-.63-1.24-.1-.3-.03-.31.03-.41.05-.18.25-.52.1-.7.06-.16.12-.13.32-.6.08-.25.03-.08-.04-.12-.06-.08-.1-.09-.2-.81-.12-.17-.13-.14-.11-.16-.07-.43-.05-.17-.17-.33-.4-.51-.05-.1-.05-.14-.21-.34-.08-.33-.14-.18-.03-.11.05-.08.2-.14.05-.08-.01-.4-.12-.9.2-.75.03-.44-.08-.42-.23-.29.25-.28.56-.49.26-.29.11-.08.32-.11.11-.06.09-.15.13-.38.1-.07.63-.22.27-.54.29-1.35.7-1.46.04-.36-.04-.73.03-.35.13-.65-.03-1.42-.02-.13 0-.76-.03-.21-.08-.17-.07-.14-.03-.08-.06-.11-.14-.12-.14-.15-.12-.4-.28-.23-.06-.1-.11-.3-.27-.25-.36-.18-.63-.21-.12-.01-.11.03-.18.16-.1.01-.09-.11-.33-.59.09-.05.13-.1.08-.04 0-.1-.24-.13-.19-.21-.12-.28-.05-.34-.03-.13-.09-.11-.12-.08-.27-.07-.07-.09-.04-.13-.08-.14-.7-.59-.11-.26-.04-.36-.19-.6-.07-.3.08-.37.42-.54.27-.6.03-.15 0-.65.19-.91-.05-.38.09-.13.17-.13-.03-.19-.09-.1-.1-.07-.06-.08-.02-.07-.1-.13.2-.31-.01-.32-.14-.3-.32-.36-.04-.09.01-.28-.04-.17-.1-.03-.12.01-.13-.06-.12-.17-.09-.19-.07-.2-.02-.2.03-.18.13-.33.03-.14-.06-.27-.28-.47-.06-.31.29-1.6.01-.16-.04-.18-.12-.32-.14-.78-.48-1.08-.11-.49.03-.15.13-.29.03-.16-.02-.16-.17-.5-.44-.62-.17-.3-1.46-1.79-.02-.06-.26-.25-.07-.04-.33-.33-.08-.12-.07-.28-.04-.26-.09-.19-.44-.16-1.43-1.49-.42-.19-.25-.27-.11-.07-.49-.59-.21-.11-.16-.18-.45-.3-.51-.18-.24.21-.17.2-.35.29-.22.36.28.66-.03.25-.1.44-.01.27-.06.19-.12.15-.21.14 0 .1-.24.26-.11.11-.07.48.11 1.01.34.8.12.06.11.01.09.04.04.15 0 .5.16.99.43.99 1.2 1.72.82.81.46.34.24.2.1.21.06.22.16.23.53.59.11.2.15.51.17.36.03.05-.09.15-.09.02-.1-.02-.12.05-.25.2-.08.14.02.46.04.12.05.12.01.11-.1.1-.35.21-.1.09-.12.26.08.22.18.23.12.24-.01.18-.09.5-.01.23.2.79.25 2.82-.05 1.85.09.48.21.27-.4.71-.11.37.17.38.08.14 0 .15-.04.36.05.24.1.12.13.09.13.15.3.83.09 1.83.29 1.04-.01.42.07.15.1.15.08.21.07.39-.01.47-.12.29-.6.56-.16.1-.1.09-.05.09-.06.18-.05.07-.16.13-.35.2-.14.13-.16.33-.12.44 0 .42.18.3-1.66 1.26-.18.24-.1.25-.07.56-.17.73-.06.47-.17.71 0 .26.13.95.27.7.02.14.01.16.04.14.27.1.08.11.02.14-.03.11.33.08.29-.05.29 0 .34.22.45 1.3.05.33 0 .13-.1.14-.14.16-.06.13-.04.36 0 .36.06.37.23.68.31.54.22.25.55.24.02.32-.2.71.09.3.45.39.16.26.01.19-.09.34.03.17.12.1.1-.08.08-.17.04-.15.05.21-.12.43-.02.25.18.74.02 2.38.14 1.01-.07.41-.32.44-.18.41.05.49.18.47.8 1.29.31.67.28.33.13.18.14.14.2.07.27-.05.46-.17.23.02.19.13.11.17.19.41.2.22.43.38.09.2.11.15.23.17.17.2-.07.23-.17.27 0 .2.05.21-.03.27-.07.11-.25.19-.08.11-.01.14.1.24.02.12-.26.68-.1.17-.38.39-.23.32-.07.37.25 1.27.07.2.52.6.09.15.03.2.09.23.12.22.11.16.26.18.21.06.23.02.25.09.25.22-.01.19-.08.19.03.21.21.15.24-.06.24-.13.23-.07.21-.04.27-.1.23-.14.09-.17.02-.12.06-.07.17-.11.02-.12-.09-.14-.11-.15-.07-.14.14-.39.34-.36.26-.35-.1-.34-.23-.42.06-.38.28-.19.44.13.19.15.32.33.2.11-.13.51.13.6.33.41.47-.12.07.09.17.14.07.08.34-.05.35.31.28.47.12.42.09.14.36.42.06.09.24.09.18.19.28.43.7.6.03.05zm-7.52-33.92l.11-.4.15-.13.41.2-.23.12-.01.17.06.18-.07.19-.16.07-.16-.05-.14-.1-.08-.08.12-.17z" /><path d="m108.17 165.88l.71.48 2.44 2.65.27.03.32-.16.32-.21.24-.1-.02-.14.01-.13.06-.1.21-.08.06-.09.04-.1.05-.06.17-.16.09-.03.09.27.21.17.05.15.18-.13.12-.23.07-.27.02-.23-.03-.11-.13-.24-.03-.1.03-.1.13-.23.03-.12-.08-.23-.35-.2-.07-.17.04-.43-.04-.16-.15-.07-.3-.24-.01-.55.16-.91-.27-.46-.87-.55-.26-.39-.05.02-.02 0-.01.01-.02.07-.17-.19-.17-.43-.17-.19-.2-.1-.2-.06-.14-.12-.06-.26.01-.14.02-.05 0-.05-.03-.11-.04-.05-.06-.08-.06-.1-.07-.28-.08-.14-.04-.15.05-.21.11 0 .02.06.06.14.07-.25-.03-.28-.11-.26-.12-.21-.23.14-.07.06-.15-.25-.09-.29-.05-.62-.05-.18-.3-.47-.16-.2-.32-.26-.12-.15-.11-.52-.15-.19-.35-.33-.8-2.26-.17-.09-.1-.2-.09-.24-.09-.17-.15-.12-.39-.18-.16-.11-.11-.21-.08-.27-.12-.22-.25-.1-.07-.18-.58-1.01.23-.51.08-.28-.16-.12.01-.14.19-.69.05-.27-.1-.57-.61-1.34-.16-.52-.08-.08-.2-.06-.03-.16.04-.15.04-.08-.06-.27-.15-.25-.2-.21-.2-.13.1-.17.08.02.07.09.1.06.41 0 .2-.12.02-.28-.06-.34-.01-.26.06-.1.19-.17.05-.08 0-.6-.18-.29-.73-.47-.1-.2-.35-.22-.96-1.08-.25-.57-.1-.37.02-.16-.55-.7-.33-.77-.13-.13-.25-.07-.25-.18-1.5-1.42-.15-.29-.09-.28-.22-.23-.29-.16-.31-.08-.67.01-.62.18-1.12.62-.01-.35-.18-.2-.51-.26-.71-.6-1.3-1.61-.15-.31-.11-.13-.34-.1-.15-.11-.07-.15.07-.15.17-.26.06-.34-.1-.98.03-.93.1-.29.25-.37.29-.32.26-.17.14.01.25.16.16.03.11-.05.96-.89.33-.19.35-.07 0-.28.09-.54.01-.29-.14-.67-1.57-3.46-.29-.38-.67-.62-.3-.41-.13-.47.05-.33.13-.34.17-.33.19-.25.09-.25.02-.38-.02-.35-.04-.18.11-.04.04-.03.05.01.11.06.06-.19-.1-.3.09-.17.11-.13.01-.09-.04-.11-.03-.17-.04-.05-.09.01-.07-.02 0-.09.05-.07.06-.01.06 0 .03-.02.05-.08.06-.06.05-.08.04-.17-.01-.34-.09-.34-.16-.31-.35-.46-.09-.27.06-.11.04-.09-.01-.09-.07-.08-.08-.01-.08.01-.06-.03-.23-.31-.15-.13-.28-.08-.39-.16-.11-.06-.11-.14-.06-.11-.09-.11-.19-.1-.14-.05-.45-.04-.27-.09 0-.1.41-.37.01-.09-.08-.11-.11-.12-.07-.12-.03-.15.01-1.05.69-3.67.1-1.31-.03-.31-.19-.29-.52-.48-.21-.25-.55-.92-.13-.33-.05-.32-.08-.31-.17-.2-.21-.16-.13-.19-.06-.31 0-.27-.05-.25-.15-.22-.13-.14-.07-.13-.15-.29-.33-.45-.07-.14-.02-.16.04-.12.05-.11.03-.16-.06-.15-.28-.28-.12-.36-.14-.11-.17-.1-.13-.14-.06-.15-.05-.47-.49-1.35.1-5.26-.21-.6-.47-.32-.64-.11-.69.02-.6.24-.33.49-.12.62.25 3.71-.26.22-.05.08-.08.31-.36.49-.06.26.13.32.19.26.09.26-.28.54 0 .46-.13.27.1.12.03.2-.04.7-.18.48-.02.31.11 1.14-.03.12-.15.22-.02.11.06.13.19.16.06.11.04.44-.02.25-.07.12-.21.11-.26.29-.21.36-.08.34-.09 0 .61.18.14.07.11.1.18.14.2.1.16.01.2-.26.1-.87.15-.32.19-.31.17-.86.3-.64.3-1.15.09 0 .28 1.06-.61 3.67-.2.41-.06.27 0 .3.09.87-.07.28-.17-.06-.23-.16-.23-.01-.14.19-.07.55-.09.26-.28.43-.09.25-.2 2.28.1 3.05.12.25.06.23-.1.3-.14.29-.08.23.05.21.12.3.15.28.14.12.25 1.19.48 1.18 1.04 1.64.14.1 1.68 2.91-.04.4-.16 0-.11-.1-.11-.07-.18.12-.01.13.16.33-.09.37.12.26.08.28-.21.28.08 0 .06.02.08 0 .1-.02-.16.19-.25.61-.12.22-.13.16-1.12.92-.83.41.11.18.02.21-.03.51.1 1.15.08.3.2.17.68.38.13.05.08.09.03.22 0 .18.02.12.04.1.09.1.14.1.14.05.15.06.12.14.06.14.1.74.1.4.16.35.23.16-.01.17.38.84.38 1.35.36.52.65-.06-.04.2.02.27.07.34-.24.6.26.82.03.33.07.21.74 1 1.12.82.18.17.15.22.43.83.65.69.59.91.4.4.52.3.82.25.31.05.18.02.18.03.29.14.14.03.27.11 2.04 1.74.2.27.36.89.33.58.12.3.07.52.23.67.03.14.02.28.14.63.02.3-.28.51.01.34.48 1.61.34.24.12.26.05.29-.09.24.07.22 0 .4.04.18.11.2.39.51.38-.04.36.12.26.25.14.4.08.04.11.03.11 0 .13.03.04.07.02.09.06.11.61.6-.05.06-.06.15.32.05.34.12.25.18.41.74.09.13.31.28.21.33-.03.27-.11.28-.07.37 0 .76-.06.2-.07.17-.01.15.14.18-.38.11-.43.19-.41.26-.29.34-.22.47-.14.54.06.49.4.29-.05.32.25.12.36-.04.55-.24.25.07.11.2-.17.28.04.06.07.14-.18.09-.24.17-.17.17.03.07.24-.02.19-.05.33-.13.29-.16.3-.22.28-.28.22-.34-.12.05-.08.01-.18-.06.08-.18.01-.03.1-.05.13-.03.32 0 .12.05.01.11-.08.28.06.2.13.03.16-.02.16.04.08.1.04.11.05.1.13.1.28.04.33-.02.27.03.12.19.1.18z" /><path d="m153.59 62.66l.07-.03.07-.06.06-.08.01-.03.08.01.1.08.07.02.12-.03.04-.07-.04-.07-.12-.04-.03-.05-.04-.13-.06-.13-.12-.09-.14 0-.13.05-.23.15.01-.17-.05-.08-.17-.15-.05-.01-.07.01-.06.01-.12-.31-.1-.11-.03-.07-.04-.06-.13-.06-.12-.02-.26.03-.12-.01-.19-.11-.14-.18 0-.17.23-.15.9.31-.09-.16-.13-.15-.17-.06-.21.06.03-.08 0-.04.01-.03.06-.04-.37-.38-.1-.21.17-.22.25.1.9-.1.33.02.15.05.27.15.3.04.11.05.2.19-.05.03-.05.1-.02.11.02.07.16.02.09-.09.04-.15.01-.14-.1-.25-.23-.24-.3-.19-.27-.07 0-.09.03-.05.03-.09.03-.07-.09 0-.28.11-.33-.12-.19-.32.19-.47.21-.22.22-.14.48-.23.22-.15.43-.51-.03-.14-.16-.19-.06-.15.25-.07.34.02.11-.02.07-.07.03-.1.05-.1.1-.04.46-.3.05-.15-.04-.04-.08-.03-.03-.12.11-.15.21-.04.16-.05-.08-.23-.19.12-.24.06-.22-.06-.16-.21.31.07.11-.09.09-.38.67.43.23.06 0-.09-.13-.29.05-.35.17-.61.15-.2.29-.17.2-.23-.12-.35-.14-.08-.67-.23-.61-.41-.09-.04-.01-.28-.06-.4-.14-.3-.3.03.16-1.3.09-.2.12-.05.15-.11.13-.13.06-.12-.04-.2-.11-.13-.14-.12-.12-.15.09-.04.2-.02.12-.04.23-.25.02-.04.5.04.19-.05.16-.2.2-.98.21-.42.49-.1-.03.05-.07.14.42.02.59.53.39.16-.05-.1-.05-.14.01-.12.09-.04.1.06.12.26.07.08.24.04.19-.1.08-.2-.1-.25.23-.01.16.05.14.09.13.14.08.12.13.3.03.12-.07.11-.11.13-.01.12.24.05.18-.06.36-.29.17-.06.04-.05.41-.25.03-.13 0-.2-.08-.19-.63-.25-.11-.4.02-.43-.03-.31.28-.13.44-.12.43-.07.25.02.15-.1.12-.01.09.06.1.1.16.1.14-.01.13-.04.12-.01.66.19.29.02.91-.09.2-.06 0-.23-.08-.28.02-.2.31.06.17-.07.39.29.29.08.13-.04.08-.11.04-.11.05-.04.07-.06-.11-.11-.15-.11-.06-.02-.5-.95-.05-.15-.2-.08-.19-.16-.17-.2-.1-.17-.1.12-.17-.36-.01-.2.07-.21.02-.35-.21.08-.7-.02-.07.13-.16.15-.18.12-.33.09-.35.2-.53.08-.23.1-.21.15-.19.18-.23.13-.2-.02-.44-.16-.22 0-.58.21-.43-.06-.26.01-.21.14-.06.22.07.23.17.13.22-.08.15.31.08.31-.02.28-.16.25-.74.58-.11.23-.06.24-.16.25-.22.09-.25-.23.02-.06.06-.12.04-.15-.03-.18-.07-.08-.14-.09-.16-.09-.12-.04.15-.16.04-.14-.08-.09-.21 0 .24-.5-.06-.19-.29-.22-.49-.23-.16-.18.05-.29-.44.03-.52-.08-.42-.24-.12-.42.08-.07.36-.19.11-.03.21-.05.01-.08-.14-.08-.23.01.26-.4.06-.22-.17-.09-.42.01-.26.06-.17.14.1 0-.05.12-.04.11-.01.12 0 .15-.12-.08-.03-.07-.01-.08-.04-.08.05.03-.17-.22-.06.03-.18 0-.09-.06.14-.18 0-.09-.09-.06-.09-.04-.27-.01-.05-.06 0-.44-.09-.42-.01-.13-.05-.16-.12-.1-.13-.08-.1-.11-.05-.13-.03-.13-.02-.29.04-.15.11 0 .13.04.12-.05.09-.19.03-.23-.02-.43.03-.25.14-.46.04-.19-.03-.1-.13-.28-.05-.07-.1-.12-.01-.01-.02.01-.12.03-.09.09-.66.55-.07.21-.16.08-.15.1-.02.27-.46-.21-.45-.3-.07.22-.05.39-.08.19-.12-.34-.03-.33-.04-.3-.22-.24-.05.24.02.17 0 .16-.16.14-.19-.04-.61-.03-.2-.13.02-.2.15-.26.2-.23.13-.11 0-.09-.17-.06-.19-.03-.17.01-.17.08.1-.31.2-.21.26-.13.33-.06-.1-.12-.2-.1-.22-.07-.17-.02-.21.03-.12.06-.27.22-.17-.13-.2-.05-.19.04-.14.14-.01.18.11.77-.13.28-.27.17-.28.12-.12.13-.08.21-.16.06-.14-.09-.03-.23-.1 0-.03.15-.06.09-.08.04-.13.02.13-.28.05-.16.03-.16-.13.06-.16.22-.12.11.01-.38-.03-.15-.13-.07-.07.09-.02.21.04.41-.1 0-.25-.3-.37-.27-.2-.24.32-.19-.13-.03-.09-.04-.18-.13.2-.11-.31-.09-.11-.07-.08-.13.26 0 .12.03.12.07.14-.07.22.01.24.07.2.09-.1.04-.09.05.28.11.18-.19.01-.25-.28-.07.08-.2-.17-.08-.25-.1-.16-.21.21-.1-.2-.08-.2.02-.41.16.1.04.05.05.03.09.02.13-.23-.15-.25-.1-.26-.03-.26.06.09-.11.05-.12.01-.13-.05-.14-.55.2-.16.11-.11-.43.23-.11.34-.04.25-.23-.05-.06-.12-.06-.07-.09.33-.58.25-.34-.06-.09-.28-.09-.21.32-.09.28-.4.27-.4-.03-.12-.63-.13.09-.47.22.13.31-.22.19-.36.07-.35-.08.09.32.25.11.31.03.4.09.12 0 .05.06-.01.19-.08.08-.33.2-.05.03-.27.07-.46.27-.26.07-.25.12-.05.27.09.31.16.2-.16.12-.08.05-.11.02-.07.03.01.09.02.11-.02.08-.05.06-.14.11-.14.04-.06-.17.16-.2 0-.11-.36-.07-.26-.13-.15-.03 0 .09.11 0 0 .1-.12.05-.4.26.42.07.49.02-.19.53-.11.18-.1.11-1.02.78-.32.17-.96.35-.28.01-.12-.17 0-.24-.01-.04-.07 0-.17-.12-.07-.16.09-.14.17-.1.15-.06-.18-.08-.02-.12.08-.15.12-.15-.05 0-.15 0 .04-.1.02-.05.05-.06-.23.08-.2.31-.07-.18-.11 0 .02.27.03.12.06.11-.2-.07-.19.03-.15 0-.07-.17-.1 0-.11.17-.06.16-.02.21-.01.27-.37-.21-.23-.08-.1.05-.07.1-.18.08-.18.04-.13.02-.09.06-.14.11-.19.08-.23-.04-.07-.1-.01-.31-.12-.2.14.01.12-.03.15-.08.07-.01.27.01.1-.06.26-.32.19-.11-.08-.15-.07-.18-.09-.14-.15-.04-.11.3-.12.21-.13.1-.42-.07-.06-.17.34-.57-.11-.21-.24.21-.13-.12 0-.25.23-.23.05-.2-.06-.17-.26-.03-.15.25-.12.49-.16.42-.26.04-.05.18-.1-.01-.13-.06-.16.04-.07.13.18.22-.06.19.26.17.13.04 0 .1-.11.01-.28.09.24.38-.14.03-.28-.11-.12-.09-.1.25.38.61-.19.24-.15-.32-.1-.13-.15-.05-.09.06-.08.26-.13.07-.13-.43-.07-.07-.11.03-.06.11-.03.12-.15.17-.13.22-.16.16-.21-.05-.23-.22-.03-.09.31-.24.13-.15.12-.2.02-.2-.17-.15-.13.29-.26.24-.29.08-.22-.21-.3.09.13.46-.09.85.15.3-.09.01-.3-.01 0-.5-.41-.25-.56-.15-.44-.21-.11.11.46.37.17.25-.02.28-.3.17-.41-.11-.38-.27-.22-.29.07-.07.02-.07 0-.07.02-.09-.18.28-.03.06.03.17.14.27.04.12-.02.26-.09.23-.18.16-.26.06-.56-.14-.41-.26-.4-.13-.58.23-.09-.05-.22-.06.14.33.53.12.12.35-.27-.07-.58-.03-.25-.1-.8.57-.3.14.22.07.08.02-.07.22-.13.59.51-.18.15-.01.13.1 0 .22-.09.38.08.14.07.06.08 0 .13 0 .11.03.03.1.02.11.04.1.12.16.13.23.09.25.02.21-.11 0-.15-.29-.31.13-.3.34-.14.37-.1.21-.51.65-.2.2-.65.31-.31.21-.13.33-.05.22-.1.2-.46.63-.05.15-.12.59.01.14.17.28.01.11-.04.1-.13.04-.11.11-.34.69-.55.59-.01.11-.16.16-.11.35-.03.37.06.22.25.06.33-.01.29.05.13.26-.04.82.05.65.04.13.2.1.02.12-.04.15-.26.45.02.26.19.12.31-.15.16-.08.11-.27.05-.29-.01-.26.14.07.06.1.01.13 0 .16.03.13.08.01.11-.05.13-.04.17.09-.1.2-.19.2-.13.1.09.24 0 .18-.01.17.01.21.07.18.12.19.09.16-.03.13-.14.35-.11 1.4-.13.42-.31.59-.09.62-.14.33-.04.2 0 .44-.02.22-.07.19-.6-.26-.1.4.06.65-.16.41.28.45-.1.34-.26.35-.23.47-.13 1.16-.2.42-.06.23-.14.99-.16.41-.63.77-.18.39-.08.43-.03.51.16.03.06-.07.05-.11.09-.05.14.02.09.02.08 0 .14-.04.12-.08.09-.11.13-.09.26-.02-.17.43-.04.19-.07.11-.02.07.03.06.14.12.04.07-.04.17-.2.26-.06.13.02.13.15.17.03.1-.28.6-.08.1.04.14-.29.87.01.43-.06.12-.15.18-.07.11-.03.11 0 .29.03.19.11.08.26-.01.38-.18.28-.25.31-.17.44.09-.06.16-.04.06.22.1.13.13-.02.09-.23-.03.01.29.05.18.24.34.2.06.09.06-.09.23.03.11.05.11.02.11-.08.19-.12.17-.17.15-.23.11-.23.01-.19-.02-.13.04-.05.21.07.25.18.08.17.04.08.14 0 .8.09.13.21-.03.45-.15.44 0 .24-.03.17-.07-.04.24-.12.02-.17-.06-.17 0-.07.05-.03.03 0 .06 0 .11-.02.12-.04.02-.06-.02-.16.06-.19-.02-.08.04-.09.13 0 .08.03.07.01.06-.18.35-.04.27-.02.07.04.02.27 0 .08.02.05.1.01.24-.12.72.01.35.2.28.2-.11.22-.18.19-.21.1-.2-.04-.19-.2-.52-.02-.1.05-.04-.02-.11-.08-.19.04-.15.08-.09.11-.07.12-.1.15-.02.15.13.09.22-.03.22.23-.07.27-.03-.06-.16-.05-.47.01-.17-.03-.11-.05-.06-.01-.05.09-.08.07-.01.03.1 0 .21.37-.11.1.2-.02.27 0 .14.33.08.08.21 0 .29.04.33.19.2.26.04.24-.12.11-.27-.05-.14-.27-.22-.09-.1-.01-.11.03-.28-.02-.11-.06-.07-.1-.06-.1-.12-.07-.32-.1-.15-.11-.12-.1-.06-.12-.03-.1-.07-.06-.1.03-.1.1-.08.11-.01.13.01.16-.03.09.01.05.05.08 0 .13-.1.03-.07.02-.08 0-.07-.05-.04-.05-.07.05-.36 0-.12-.09-.3.12-.25.19-.06.13.27.1 0 0-.15.01-.12.04-.12.05-.12.09.18.33.38.17.24.04-.11.03-.03 0-.04-.07-.11.12-.04.13.01.13.04.12.09-.03.13.09.14.16.08.19-.05.09.28 0 .12.27-.14.06-.22.02-.21.17-.13-.1-.23-.14-.12-.16-.09-.24-.18-.22-.09-.1-.06-.06-.08-.03-.18-.06-.09-.13-.06-.17-.03-.14-.07-.06-.18.01-.2.03-.19.06-.16.1-.11.07.03.54.02.06.16.14.1.2.04.19-.04.26-.27.38-.71.27-.01.05-.47-.02-.24-.09-.1-.05-.05 0-.09.07-.08.13.02.05.07.09.25.07.08.24.07.17-.05.16-.09.18-.04.18-.01.06.01.28.64.14.11.24.05.09.04-.06.07-.18.11.01-.05-.09-.05-.13-.02-.09.01-.06.29.27.37.33.36-.04.19.19.23.35.06.67-.01-.02.07-.05.17-.03.07.16-.01.15 0 .15.04.14.06.12-.11.13 0 .12.09.13.13.12-.16.3-.19.08-.16.11 0 .04.22-.01.23-.06.23-.13.19-.25.21-.1.13-.21.41.34.09.36-.21 1.1-1.04.08-.2.03-.31.04-.15.1-.24.13-.24.13-.13.09.31.01.24.05.23.21.29.16.29-.07.24-.15.21-.1.21.2-.11.61-.38.09.09-.04.11.04.3 0 .2.17-.14.23-.35.21-.12.17.06.25-.15.13.05.1.13.05.1.06.08.14.04 0 .09-.1.17-.15.14-.12.15-.03.24.16-.04.11.06.07.12.06.16-.32.04 0 .21.08.28-.06.28-.08-.04-.22-.06.07.25.06.13.07.11.1-.06.12.01.28.16-.26.24-.06.19.16.13.41.04.16.17-.1.38-.31.56-.01.19.06.15-.01.12-.61.13-.18.01-.17.04-.48.26-.35.12-.07.1.12.19.25-.08.28.13.47.35 0 .1-.4.02-.11.15.01.2-.05.17-.16.23-.04.23.03.22.11.17.11 0 .12-.18.48-.42.08-.14.23-.56-.04-.19.04-.31.11-.33.13-.22.28-.18.25-.1.2-.15.12-.32.11 0 .02.36.14.23.23.17.85.38.29.09.17-.02.07-.1.02-.1-.02-.12-.07-.09-.19-.13-.14.01-.13.05-.13-.02-.21-.11-.01-.05.03-.2-.02-.05-.12-.03-.48.03.12-.27.18-.12.1-.11-.1-.2-.08-.04-.24-.11-.08-.05-.06-.08-.08-.22-.06-.11-.1-.1-.25-.23-.05-.06.02-.2.11-.05.1.02.06.02.1-.12.05-.04-.03-.05-.12-.19-.06-.05-.28-.2-.09-.16-.07-.25 0-.23.16-.11.01-.11.35-.48.09-.06-.08-.25-.34-.37-.08-.18.03-.26.1-.15.16-.03.21.08-.06-.47.35-.43.53-.3.53-.12 1.19.13.57.16-.01.24.12.18.17.35.12.15.06 0 .28.09.01.02.05.05-.01.21.06.04.12.06.32.26.2.08.18-.01.77-.1.36-.08.07.04.11.09.1.03.06-.21.06-.07.09-.03.11.05.02.08-.03.14-.05.13-.04.04.18.09.23.02.2-.03.09-.03.02.23.08.11.16.04.25-.03-.07-.1-.03-.1.02-.1.08-.1.18.09.16-.06.12-.16.04-.21-.08-.12-.52-.24-.19-.14 0-.01.13 0 .38-.22.33-.12.16-.12.25.19.32 0 .22-.13-.05-.2-.09-.08-.08-.03-.05-.06-.03-.13.06-.12.13-.15.14-.13.12-.05.25-.04.58-.23.22-.13.32-.42.21-.16.28.08.5-.39.2-.11.65-.14.15-.13.15-.03.85-.56-.03-.15-.07-.08-.07-.06-.03-.05.01-.14.08-.23.01-.14-.23-.57-.43-.42-.54-.13-.55.27-.66.49-.14.06-.22.07-.19.17-.35.36-.57-.29-.83-.15-.88-.03-.72.07-.41.15-.21.03-.09-.13-.06-.19-.16-.15-.38-.21-.42-.15-.33 0-.29.15-.27.3-.11-.17-.05-.1-.04-.13.02-.15.13-.2.05-.16 0-.11-.03-.15-.03-.13-.04 0 .06-.15.03-.02.04.04.07.02.41.02 0-.02.36.1.08.06.1-.16-.01-.2-.11-.19-.22-.11.17-.16.23.16.19.29.11.21.1 0 0-.42.23.03.58.5.04-.1.05-.05.21-.06-.41-.6.4-.37.46.13.96.64.67.01.12.05.09-.21.18-.19.06-.22-.22-.24-.12.06-.04.01-.04-.03-.11-.04.05-.03.02 0 .01-.01.02-.06-.58-.15-.62-.05.39-.26.03-.08-.12-.16-.31-.21-.09-.12.1-.17-.19-.03-.16.01-.11.07-.04.15-.51.03-.59.4-.56.29-.46-.32.36-.22.05-.03-.01-.21.02-.11.14-.26.15-.42.1-.16.4-.32.34-.08.87.01-.11.38.15.17.29.05.32-.01.19-.06.14-.14.11-.13.06-.06.21-.01.13-.04.1-.09.12-.16.06-.19-.03-.12 0-.09.16-.1.04.04.46.11.08.1.17.04.18-.05.07-.19-.07-.07-.39-.27-.14-.12-.09.11-.14-.22-.08-.1-.09-.09-.31-.2-.09-.09-.11-.22.09-.04.53.05 1.5-.01.11-.02.09-.06.1-.14.04-.17-.03-.17-.11-.13-.13.07-.13.02-.11-.03-.13-.06.17-.13.09-.02.04-.04.01-.16-.03-.09-.18-.26-.17.07-.13-.01-.08-.09-.03-.18-.14.07-.14.03-.12-.02-.1-.08.21-.15.22-.02.23.01.21-.09.14-.2.07-.23-.05-.16-.22.04-.08-.15-.14-.13-.07-.14.09-.18.2-.09.2.03.3.16.06.04.07.07.09.07.13.03.13-.03.2-.15.11-.03.23.02.19.05.13 0 .06-.17.19.18.09.23.12.21.25.08.42-.01.13.01.14.05.23.12.13.03zm3.41-16.49l.11-.06.06-.1.13-.4.22.3.13.11.16 0 .08-.09.1-.29.12-.12-.07.42-.2.26-.63.42-.16-.04-.25-.02-.19-.05 0-.19.39-.15zm-2.93.87l.07-.14.06-.08.13-.06.47-.05.5-.14.22.07.09.34.04.1.07.05.04.06-.06.12-.13.11-.32.11-.14.1-.27-.1-.4-.26-.29-.05-.09-.05.01-.13zm-31.18 19.56l.16-.18.14-.21.03-.33.06 0 .04.02.09.08-.03.31-.13.23-.43.35.07-.27zm-.6 4.96l-.08-.07-.08-.21.01-.2.06-.2.11-.2.1.11-.02.21.05.19.12.14.2.05.26.04-.05.09-.27.13-.07.09-.17-.06-.17-.11zm2.12 4.05l-.1.11-.55.43-.22.1-.17-.08-.12-.2-.03-.22.03-.22.16-.33 0-.2-.09-.15-.3-.25-.11-.2.19-.16-.11-.09-.29-.01-.29.07-.1-.51.21.04.16-.11.1-.2.04-.23-.33.11.04-.37.29-.75.09 0 .01.29.15.11.18.08.07.12.16.41.06.46.13.39.39.16.18.01-.01.07-.08.15-.03.27.07.21.14.2.1.22-.02.27zm-.29-11.44l-.03.41-.13.42-.45.78.11-.66 0-.25.01.05 0 .04.01.03.08-.01-.01-.54-.05-.25-.15-.22.44-.16.06.01.06.06.34.19.2.23.06.11.04.16-.59-.4zm2.49 9.63l-.29.71-.18.14-.25.1-.25.05-.22 0 .02.02-.05.03-.07.03-.06.01-.05-.03 0-.05.02-.06-.02-.04-.04-.07-.02-.1-.06-.04-.17.1.09-.19.21-.18.15-.2-.06-.23-.13-.05-.31.04-.06-.09.06-.13.13-.08.21-.09.28-.15.24-.18.23-.14.27-.03.01.16.02.07.06.07.1-.1-.07.11-.05.12-.05.13-.02.14.09 0 .14-.2.12.02.05.16-.02.22zm3.12-28.39l-.18.49.06.68.12.54-.16.04-.09.1-.04.11-.06.05-.18-.03-.12-.07-.04-.09.09-.11 0-.09-.24-.02-.56.11.03.12.01.28.05.2-.06-.02-.16-.04-.07-.03-.1.27-.02.12.01.1-.41 0-.09-.19.06-.14.24-.27.22-.38.05-.19-.07-.13 0-.11.06-.09.09-.07.13-.03.17-.01 0-.1.13-.2.16-.13.12.15.12.06.13.01.09-.08 0-.17-.1-.16-.15-.11-.14-.07.1-.19-.15-.15-.23-.13-.13-.14-.09 0-.22.13-.41-.04-.41-.12-.18-.11.03-.09.08-.1 0-.06-.07-.08-.07-.02-.04-.04-.02-.11-.09-.11-.21-.11-.4-.13 0-.1.21-.04.02-.14-.02-.15.14-.06.18.01.37.08.67-.03.22.07.02.26-.26.5-.04.29.19.21.31.03.37-.09.63-.24-.11.19.11.13.12.05.14 0 .14-.07-.07-.13-.02-.11.06-.09.13-.06.11.22.32.34.07.24-.6-.01zm.87-1.34l-.05-.06-.02-.11-.05.03-.02 0-.02.08-.13-.11-.05-.11.03-.1.15-.07-.11-.16-.13-.12-.14-.08-.13-.05.23-.07.23.09.17.17.07.17.11.21.19.24.07.17-.26.02-.07-.08-.07-.06zm.67 1.56l-.4.11-.06-.01-.04-.07-.03-.14.09.03.21.03.09.03-.08-.14-.07-.19.01-.14.14-.04.16.1.07.14.08.13.2.05 0 .09-.19-.01-.18.03zm2.09 28.66l-.16.25-.12.23.06.23.03-.04.01-.02.01-.02.05-.03-.05.23-.19.2-.21.11-.15-.03-.14.14-.14.1-.16.03-.16-.06-.1-.25-.03-.3-.08-.25-.24-.1-.04-.19.39-1.12.06.17.12.1.13-.01.09-.17.09 0-.04.62.14.15.4-.05-.04-.12-.05-.39.09 0 .16.03.16-.08.13.02.06.34-.08.28zm.1-28.34l-.01.13-.01.14-.1-.2-.1 0 .01.22-.04.16-.3.55-.11.11-.16.06.07.17-.08.16-.15.11-.14.07-.11-.01-.08-.03-.06-.06-.05-.11.22-.16.25-.27.06-.28-.34-.2.24-.11.28-.03.18-.15.01-.04-.01-.21.03-.11.07 0 .11.05.11-.08.09-.05.2-.07-.08.24zm3.16-5.44l.23-.01-.06-.2.02-.23.1-.13.14.06.09 0 0-.3.31.26-.11.42-.3.4-.29.23-.14-.18-.05-.19.06-.13zm.73 1.29l-.25.22-.31.14-.35.05 0-.1.2-.1-.21-.08-.32.15-.27-.07-.22 0-.17-.04-.12-.1-.09-.17.2.11.16-.19.11.05.1.12.13.02.1-.13-.01-.15-.06-.16-.03-.17.13.09.11.01.09-.07.07-.13.02.16.04.12.1.08.14.04 0-.09-.19-.28-.07-.16-.04-.17.17.11.18.21.1.25-.04.24.16.05.14.04.03-.19.12-.09.16-.01.19.09-.2.3zm2.96 24.86l.14-.07.51-.01.32-.06.16 0 .12.06.08.12.01.1-.06.03-.13-.05-.09 0 .04.12.13.16.02.06-.01.18-.04.07-.06.04-.2.2-.48.37-.05-.06-.05-.02-.05-.01-.06-.01-.27-.27-.11-.16.03-.07.07-.08-.02-.15-.06-.18-.05-.1.21 0-.05-.21zm2.64 4.78l-.01.09-.07.16-.07-.03-.13.01-.06.1.15.22-.46-.04-.31-.21-.27-.26-.35-.19-.06.17-.11.09-.16.02-.19-.08-.69-.53-.25-.08-.73-.02-.36-.1-.32-.22-.16-.06-.14.06-.13.03-.12-.19 0-.12.08-.14.54-.56.15-.2.03-.18-.11-.04-.41-.04-.07-.02-.11 0-.08-.16-.22-.24-.09-.2.14 0 .1.02.07.06.08.12.24-.12.17-.11.29-.26.11-.14.07-.05.13-.02.06.02.27.11.07.08-.05.23-.13.17-.06.16.14.23.75.41.39-.14.06-.02.06-.11.12 0 .12.04.05.02.74-.17.11.02.07.21.11.21.04.23-.29.47.13.11.55.12 0 .11-.18.11.14.2.43.39.07.04.07-.02.05.01.01.12-.01.1zm-.03-33.39l-.05.48-.11.16-.14-.28.03-.32.16-.21.26 0-.15.17zm1.63 1.74l-.17.13-.41.17-.12-.36.04-.21.2-.12.38-.09-.03.06-.05.16-.03.07.31 0-.12.19zm1.33-3.22l-.07.16-.05.18-.09.17-.09-.04-.1.02-.1.1-.11.13-.13-.23-.16-.02-.1.12.09.22-.11.17.01.19.11.16.19.09-.19.18-.09.33.08.33.3.16-.04.06-.04.03-.1.02-.24-.1-.09-.22.01-.59-.1 0 .01.18-.05.15-.11.12-.16.05-.05-.35-.22-.34-.26-.17-.17.16-.1 0-.3-.5.41.09.15.01.15-.04.09-.11.01-.1-.06-.05-.06-.09-.49-.51-.18-.1-.06-.09.09-.16.33-.4.07-.05.58-.1.3-.01.28.11-.2.14-.15.2.03.16.32.01 0 .09-.05.13.08.11.14.01.13-.15.05.04.03.02.12.04-.07-.17.04-.18.1-.11.14.06.09 0-.03-.12-.07-.1-.09-.05-.11-.03 0-.1.28 0 .15.15.11.22.17.23-.2.08zm4.97 5.57l-.16.57-.2-.21-.1.12-.08-.22-.11-.11-.16-.02-.25.03 0-.09.26-.11.49-.33.2-.07.15.14-.04.3zm.63-3.04l-.06-.33.31-.22.38.01.18.34.28-.06.34.08.23.17-.05.22-.23-.14-.17 0-.13.08-.17.06-.17-.02-.57-.11-.17-.08z" /></g></g></svg>