  0
SECTION
  2
HEADER
  9
$ACADVER
  1
AC1018
  9
$ACADMAINTVER
 70
     0
  9
$DWGCODEPAGE
  3
ANSI_1252
  9
$EXTMIN
 10
475473.815602368
 20
-401457.455718437
 30
0.0
  9
$EXTMAX
 10
939761.654009064
 20
3535018.85191926
 30
0.0
  9
$LIMMIN
 10
0.0
 20
0.0
  9
$LIMMAX
 10
12.0
 20
9.0
  9
$ORTHOMODE
 70
     0
  9
$REGENMODE
 70
     1
  9
$FILLMODE
 70
     1
  9
$QTEXTMODE
 70
     0
  9
$MIRRTEXT
 70
     1
  9
$LTSCALE
 40
1.0
  9
$ATTMODE
 70
     1
  9
$TEXTSIZE
 40
0.2
  9
$TRACEWID
 40
0.05
  9
$TEXTSTYLE
  7
Standard
  9
$CLAYER
  8
0
  9
$CELTYPE
  6
ByLayer
  9
$CECOLOR
 62
   256
  9
$CELTSCALE
 40
1.0
  9
$DISPSILH
 70
     0
  9
$LUNITS
 70
     2
  9
$LUPREC
 70
     4
  9
$SKETCHINC
 40
0.1
  9
$FILLETRAD
 40
0.5
  9
$AUNITS
 70
     0
  9
$AUPREC
 70
     0
  9
$MENU
  1
.
  9
$ELEVATION
 40
0.0
  9
$PELEVATION
 40
0.0
  9
$THICKNESS
 40
0.0
  9
$LIMCHECK
 70
     0
  9
$CHAMFERA
 40
0.5
  9
$CHAMFERB
 40
0.5
  9
$CHAMFERC
 40
1.0
  9
$CHAMFERD
 40
0.0
  9
$SKPOLY
 70
     0
  9
$ANGBASE
 50
0.0
  9
$ANGDIR
 70
     0
  9
$PDMODE
 70
     0
  9
$PDSIZE
 40
0.0
  9
$PLINEWID
 40
0.0
  9
$SPLFRAME
 70
     0
  9
$SPLINETYPE
 70
     6
  9
$SPLINESEGS
 70
     8
  9
$HANDSEED
  5
0002001B
  9
$SURFTAB1
 70
     6
  9
$SURFTAB2
 70
     6
  9
$SURFTYPE
 70
     6
  9
$SURFU
 70
     6
  9
$SURFV
 70
     6
  9
$UCSBASE
  2

  9
$UCSNAME
  2

  9
$UCSORG
 10
0.0
 20
0.0
 30
0.0
  9
$UCSXDIR
 10
1.0
 20
0.0
 30
0.0
  9
$UCSYDIR
 10
0.0
 20
1.0
 30
0.0
  9
$UCSORTHOREF
  2

  9
$UCSORTHOVIEW
 70
     0
  9
$UCSORGTOP
 10
0.0
 20
0.0
 30
0.0
  9
$UCSORGBOTTOM
 10
0.0
 20
0.0
 30
0.0
  9
$UCSORGLEFT
 10
0.0
 20
0.0
 30
0.0
  9
$UCSORGRIGHT
 10
0.0
 20
0.0
 30
0.0
  9
$UCSORGFRONT
 10
0.0
 20
0.0
 30
0.0
  9
$UCSORGBACK
 10
0.0
 20
0.0
 30
0.0
  9
$PUCSBASE
  2

  9
$PUCSNAME
  2

  9
$PUCSORG
 10
0.0
 20
0.0
 30
0.0
  9
$PUCSXDIR
 10
1.0
 20
0.0
 30
0.0
  9
$PUCSYDIR
 10
0.0
 20
1.0
 30
0.0
  9
$PUCSORTHOREF
  2

  9
$PUCSORTHOVIEW
 70
     0
  9
$PUCSORGTOP
 10
0.0
 20
0.0
 30
0.0
  9
$PUCSORGBOTTOM
 10
0.0
 20
0.0
 30
0.0
  9
$PUCSORGLEFT
 10
0.0
 20
0.0
 30
0.0
  9
$PUCSORGRIGHT
 10
0.0
 20
0.0
 30
0.0
  9
$PUCSORGFRONT
 10
0.0
 20
0.0
 30
0.0
  9
$PUCSORGBACK
 10
0.0
 20
0.0
 30
0.0
  9
$WORLDVIEW
 70
     1
  9
$SHADEDGE
 70
     3
  9
$SHADEDIF
 70
    70
  9
$TILEMODE
 70
     1
  9
$MAXACTVP
 70
    64
  9
$PINSBASE
 10
0.0
 20
0.0
 30
0.0
  9
$PLIMCHECK
 70
     0
  9
$PEXTMIN
 10
1.000000000000000E+20
 20
1.000000000000000E+20
 30
1.000000000000000E+20
  9
$PEXTMAX
 10
-1.000000000000000E+20
 20
-1.000000000000000E+20
 30
-1.000000000000000E+20
  9
$PLIMMIN
 10
0.0
 20
0.0
  9
$PLIMMAX
 10
12.0
 20
9.0
  9
$UNITMODE
 70
     0
  9
$VISRETAIN
 70
     1
  9
$PLINEGEN
 70
     0
  9
$PSLTSCALE
 70
     1
  9
$TREEDEPTH
 70
  3020
  9
$CMLSTYLE
  2
Standard
  9
$CMLJUST
 70
     0
  9
$CMLSCALE
 40
1.0
  9
$PROXYGRAPHICS
 70
     1
  9
$MEASUREMENT
 70
     0
  9
$CELWEIGHT
370
    -1
  9
$ENDCAPS
280
     0
  9
$JOINSTYLE
280
     0
  9
$LWDISPLAY
290
     0
  9
$INSUNITS
 70
     1
  9
$HYPERLINKBASE
  1

  9
$STYLESHEET
  1

  9
$XEDIT
290
     1
  9
$CEPSNTYPE
380
     0
  9
$PSTYLEMODE
290
     1
  9
$EXTNAMES
290
     1
  9
$PSVPSCALE
 40
0.0
  9
$OLESTARTUP
290
     0
  9
$SORTENTS
280
   127
  9
$INDEXCTL
280
     0
  9
$HIDETEXT
280
     1
  9
$XCLIPFRAME
290
     0
  9
$HALOGAP
280
     0
  9
$OBSCOLOR
 70
   257
  9
$OBSLTYPE
280
     0
  9
$INTERSECTIONDISPLAY
280
     0
  9
$INTERSECTIONCOLOR
 70
   257
  9
$DIMASSOC
280
     2
  9
$PROJECTNAME
  1

  0
ENDSEC
  0
SECTION
  2
CLASSES
  0
CLASS
  1
ACDBDICTIONARYWDFLT
  2
AcDbDictionaryWithDefault
  3
ObjectDBX Classes
 90
        0
 91
        4
280
     0
281
     0
  0
ENDSEC
  0
SECTION
  2
TABLES
  0
TABLE
  2
VPORT
  5
8
330
0
100
AcDbSymbolTable
 70
     1
  0
VPORT
  5
29
330
8
100
AcDbSymbolTableRecord
100
AcDbViewportTableRecord
  2
*Active
 70
     0
 10
0.0
 20
0.0
 11
1.0
 21
1.0
 12
80.25
 22
106.4409457059851
 13
0.0
 23
0.0
 14
0.5
 24
0.5
 15
0.5
 25
0.5
 16
0.0
 26
0.0
 36
1.0
 17
0.0
 27
0.0
 37
0.0
 40
113.3818914119703
 41
0.8863849310366128
 42
50.0
 43
0.0
 44
0.0
 50
0.0
 51
0.0
 71
     0
 72
  1000
 73
     1
 74
     3
 75
     0
 76
     0
 77
     0
 78
     0
281
     0
 65
     1
110
0.0
120
0.0
130
0.0
111
1.0
121
0.0
131
0.0
112
0.0
122
1.0
132
0.0
 79
     0
146
0.0
  0
ENDTAB
  0
TABLE
  2
LTYPE
  5
5
330
0
100
AcDbSymbolTable
 70
     1
  0
LTYPE
  5
14
330
5
100
AcDbSymbolTableRecord
100
AcDbLinetypeTableRecord
  2
ByBlock
 70
     0
  3

 72
    65
 73
     0
 40
0.0
  0
LTYPE
  5
15
330
5
100
AcDbSymbolTableRecord
100
AcDbLinetypeTableRecord
  2
ByLayer
 70
     0
  3

 72
    65
 73
     0
 40
0.0
  0
LTYPE
  5
16
330
5
100
AcDbSymbolTableRecord
100
AcDbLinetypeTableRecord
  2
Continuous
 70
     0
  3
Solid line
 72
    65
 73
     0
 40
0.0
  0
ENDTAB
  0
TABLE
  2
LAYER
  5
2
330
0
100
AcDbSymbolTable
 70
     1
  0
LAYER
  5
10
330
2
100
AcDbSymbolTableRecord
100
AcDbLayerTableRecord
  2
0
 70
     0
 62
     7
  6
Continuous
370
    -3
390
F
  0
ENDTAB
  0
TABLE
  2
STYLE
  5
3
330
0
100
AcDbSymbolTable
 70
     1
  0
STYLE
  5
11
330
3
100
AcDbSymbolTableRecord
100
AcDbTextStyleTableRecord
  2
Standard
 70
     0
 40
0.0
 41
1.0
 50
0.0
 71
     0
 42
0.2
  3
txt
  4

  0
ENDTAB
  0
TABLE
  2
VIEW
  5
6
330
0
100
AcDbSymbolTable
 70
     0
  0
ENDTAB
  0
TABLE
  2
UCS
  5
7
330
0
100
AcDbSymbolTable
 70
     0
  0
ENDTAB
  0
TABLE
  2
APPID
  5
9
330
0
100
AcDbSymbolTable
 70
     1
  0
APPID
  5
12
330
9
100
AcDbSymbolTableRecord
100
AcDbRegAppTableRecord
  2
ACAD
 70
     0
  0
ENDTAB
  0
TABLE
  2
DIMSTYLE
  5
A
330
0
100
AcDbSymbolTable
 70
     1
100
AcDbDimStyleTable
  0
DIMSTYLE
105
27
330
A
100
AcDbSymbolTableRecord
100
AcDbDimStyleTableRecord
  2
Standard
 70
     0
340
11
  0
ENDTAB
  0
TABLE
  2
BLOCK_RECORD
  5
1
330
0
100
AcDbSymbolTable
 70
     1
  0
BLOCK_RECORD
  5
1F
330
1
100
AcDbSymbolTableRecord
100
AcDbBlockTableRecord
  2
*Model_Space
340
22
  0
BLOCK_RECORD
  5
1B
330
1
100
AcDbSymbolTableRecord
100
AcDbBlockTableRecord
  2
*Paper_Space
340
1E
  0
ENDTAB
  0
ENDSEC
  0
SECTION
  2
BLOCKS
  0
BLOCK
  5
20
330
1F
100
AcDbEntity
  8
0
100
AcDbBlockBegin
  2
*Model_Space
 70
     0
 10
0.0
 20
0.0
 30
0.0
  3
*Model_Space
  1

  0
ENDBLK
  5
21
330
1F
100
AcDbEntity
  8
0
100
AcDbBlockEnd
  0
BLOCK
  5
1C
330
1B
100
AcDbEntity
 67
     1
  8
0
100
AcDbBlockBegin
  2
*Paper_Space
 70
     0
 10
0.0
 20
0.0
 30
0.0
  3
*Paper_Space
  1

  0
ENDBLK
  5
1D
330
1B
100
AcDbEntity
 67
     1
  8
0
100
AcDbBlockEnd
  0
ENDSEC
  0
SECTION
  2
ENTITIES
  0
LWPOLYLINE
  5
20000
100
AcDbEntity
  8
0
100
AcDbPolyline
 70
0
 90
6
 10
919214.904664026
 20
2132040.29558014
 10
917508.774549037
 20
2134575.69202117
 10
911049.945155126
 20
2140153.601037
 10
909296.139480104
 20
2142262.15656959
 10
908427.055320956
 20
2144743.85116093
 10
909100.850202218
 20
2147443.28163868
  0
LWPOLYLINE
  5
20001
100
AcDbEntity
  8
0
100
AcDbPolyline
 70
0
 90
102
 10
826013.733065802
 20
2751003.32172741
 10
825846.025906249
 20
2749838.39550141
 10
825669.1616145
 20
2747468.32513625
 10
825251.003028003
 20
2744883.30954434
 10
824290.770768757
 20
2740915.34015133
 10
825110.617657467
 20
2738119.98191106
 10
826907.070995816
 20
2735026.4352705
 10
828211.76337147
 20
2731828.67850384
 10
830045.533029591
 20
2729201.5362768
 10
830022.065952458
 20
2725275.7851075
 10
826981.114758059
 20
2715920.43952418
 10
825209.64671657
 20
2712681.12720071
 10
824491.825287407
 20
2709234.76763487
 10
823913.511831205
 20
2704649.28931632
 10
823436.089646684
 20
2702680.61736732
 10
824403.961035511
 20
2701333.85213811
 10
826148.382983411
 20
2699589.12764993
 10
827369.877748393
 20
2697577.140111
 10
828083.065212914
 20
2693555.4517852
 10
827832.110140347
 20
2690453.3915705
 10
829228.646945782
 20
2687250.1518108
 10
832005.338241631
 20
2683600.98524843
 10
832727.188874598
 20
2680662.26875981
 10
832409.715796
 20
2677576.01850139
 10
831021.726488546
 20
2675701.58951672
 10
825926.429633022
 20
2671561.07433421
 10
824382.136476217
 20
2668828.11665994
 10
821749.670424167
 20
2666610.63075074
 10
817499.549147551
 20
2665713.56271348
 10
815482.018962233
 20
2662193.68591944
 10
812443.65304345
 20
2656324.14196788
 10
809219.618821756
 20
2653078.12461663
 10
807420.223630968
 20
2650477.12217577
 10
805111.487081513
 20
2643880.64394873
 10
803450.739028564
 20
2641399.16550247
 10
801360.390262113
 20
2638963.6246231
 10
799923.478877334
 20
2637639.77632036
 10
798668.008000727
 20
2637040.41859274
 10
797191.21995658
 20
2636034.13213056
 10
795539.668165378
 20
2634774.20837788
 10
794457.603127425
 20
2632410.98147957
 10
794753.228529715
 20
2628893.63188411
 10
794562.467515339
 20
2625271.02723759
 10
793953.996305807
 20
2622207.89513795
 10
793240.065825725
 20
2619753.9367879
 10
791675.737048018
 20
2618532.00877409
 10
788935.713526416
 20
2617613.22374175
 10
786116.913632059
 20
2616050.51871595
 10
783604.791094203
 20
2614388.54829127
 10
781001.271964041
 20
2612933.44078343
 10
779298.506356621
 20
2611581.36531689
 10
777525.39303043
 20
2609006.89184623
 10
775638.164369916
 20
2605923.03360395
 10
774690.944054171
 20
2604042.62857822
 10
772509.54020204
 20
2603372.99642305
 10
769051.14067798
 20
2603317.50103886
 10
765999.39808214
 20
2604069.82699424
 10
763930.098075794
 20
2604898.61143084
 10
762248.55186846
 20
2607047.0300062
 10
762053.625916216
 20
2610182.29100184
 10
759924.260413051
 20
2613118.70828984
 10
756112.172649677
 20
2616213.41655366
 10
752775.656784642
 20
2617593.93201034
 10
747606.81731664
 20
2617045.15020362
 10
744191.271275696
 20
2615995.28181611
 10
741220.806809214
 20
2614933.34522419
 10
736778.442576351
 20
2612650.87118382
 10
732780.698173257
 20
2610186.3112044
 10
726480.92568184
 20
2604255.94382601
 10
724385.582938845
 20
2601494.9635501
 10
722498.978893645
 20
2598377.20359055
 10
721107.1633829
 20
2594758.25362366
 10
720557.486149639
 20
2590472.10154414
 10
718748.490491267
 20
2587609.32401062
 10
715263.883177402
 20
2585494.61526747
 10
710793.817734909
 20
2583980.13009469
 10
707900.024950208
 20
2582713.27089137
 10
704413.335018789
 20
2579813.80881605
 10
691623.660690995
 20
2570134.37399455
 10
684108.556339134
 20
2562362.20417794
 10
679519.408434272
 20
2558250.57557396
 10
674716.557737064
 20
2554489.67016625
 10
672358.218145186
 20
2552446.3035348
 10
669810.617373688
 20
2548501.884726
 10
667784.176205484
 20
2544336.54513856
 10
666499.761532935
 20
2538419.99205593
 10
665406.958721914
 20
2531471.49524854
 10
664384.24638688
 20
2527730.64494163
 10
661610.099424547
 20
2523075.95751538
 10
659340.762023178
 20
2519741.89725406
 10
654295.110008761
 20
2516585.26766888
 10
651705.787242711
 20
2514016.61046877
 10
649416.185974973
 20
2510672.48301509
 10
648695.475668406
 20
2508858.83608823
 10
648421.555699759
 20
2505820.69657992
 10
647646.797789927
 20
2502892.78077063
 10
646822.094355285
 20
2500410.5867497
 10
645042.796864179
 20
2498545.03853504
 10
642089.976608809
 20
2497657.64640194
 10
639821.039517278
 20
2496252.64061549
 10
638589.013642093
 20
2494406.48848603
 10
637819.577980357
 20
2493473.03240834
  0
LWPOLYLINE
  5
20002
100
AcDbEntity
  8
0
100
AcDbPolyline
 70
0
 90
146
 10
782258.16329741
 20
1826041.36541458
 10
783182.661509855
 20
1828101.93133492
 10
783504.376649351
 20
1829836.98923143
 10
783653.488266537
 20
1831816.47895669
 10
784466.788128963
 20
1835773.26924327
 10
786151.00205057
 20
1840951.69751348
 10
786503.314919731
 20
1842674.5359364
 10
786484.059423983
 20
1844622.90146365
 10
785347.905079985
 20
1848165.18500739
 10
785292.095468865
 20
1849849.96372298
 10
788590.548521855
 20
1854210.97175897
 10
788644.5844986
 20
1858329.46490034
 10
787267.852148316
 20
1866383.34571952
 10
787313.179269411
 20
1880514.2857224
 10
787678.605316634
 20
1883124.63949576
 10
788089.379241858
 20
1883969.784069
 10
788418.428316496
 20
1886366.85634336
 10
788763.530051961
 20
1887408.44666696
 10
789414.292190924
 20
1888327.31609026
 10
792013.534644868
 20
1890807.82694903
 10
793115.536231523
 20
1892449.53414316
 10
793820.099145348
 20
1894222.34019831
 10
794784.606867791
 20
1895927.80179226
 10
796625.638036261
 20
1897364.89673939
 10
800975.32295148
 20
1898464.76283172
 10
802473.355799247
 20
1899510.25644537
 10
803068.322283752
 20
1902059.42445468
 10
803341.420292757
 20
1904454.58015754
 10
804150.795531058
 20
1905488.19721296
 10
807419.495766809
 20
1906679.47342662
 10
807571.718827355
 20
1909533.11092721
 10
808821.813475224
 20
1911164.49167479
 10
812800.289355123
 20
1914073.92579959
 10
813364.639992173
 20
1915038.79069931
 10
814249.055596425
 20
1917140.4203985
 10
818176.003250911
 20
1919847.51102556
 10
821480.029889803
 20
1923895.31653314
 10
833129.106983458
 20
1929026.46815528
 10
835359.751426061
 20
1929377.70319575
 10
837209.226710023
 20
1928659.28578043
 10
838812.331986804
 20
1927508.29982617
 10
840799.630427072
 20
1926819.68414533
 10
843043.429281697
 20
1926546.98492997
 10
845441.753791748
 20
1926704.36478777
 10
849093.488336936
 20
1927873.20275593
 10
851942.013281479
 20
1929856.17098617
 10
862272.562330681
 20
1939891.72682222
 10
865009.192307409
 20
1941904.10331639
 10
876871.766626636
 20
1944887.7536709
 10
880448.991714019
 20
1946502.09676893
 10
883450.424866892
 20
1948311.35648335
 10
886198.450739849
 20
1950579.0329238
 10
887886.15301176
 20
1951681.30121418
 10
889561.348141859
 20
1952143.93114708
 10
894164.599557618
 20
1952435.99079478
 10
896605.135707491
 20
1952895.7662153
 10
898505.940580341
 20
1953655.21693745
 10
901133.92519339
 20
1956526.21503727
 10
907131.948478622
 20
1968339.33128958
 10
909839.271659042
 20
1971896.41759998
 10
912252.91836878
 20
1976045.98483146
 10
913545.478461782
 20
1980584.26870139
 10
912899.756373421
 20
1985329.65066606
 10
912012.322905915
 20
1986830.20658978
 10
910844.157686612
 20
1988315.17508023
 10
909844.924977707
 20
1989947.99920077
 10
909428.546871107
 20
1991883.94693574
 10
909964.907161629
 20
1994784.58739277
 10
911247.350066138
 20
1996581.722711
 10
912871.1853558
 20
1998234.38630034
 10
914385.836042798
 20
2000709.65633826
 10
914827.573897542
 20
2002847.60893991
 10
914422.02770822
 20
2010429.34013324
 10
914830.481290278
 20
2013217.76715304
 10
915920.910522547
 20
2015494.84246553
 10
917535.839045816
 20
2017453.67954367
 10
922632.188480304
 20
2022325.27760328
 10
925273.713659283
 20
2025812.25453099
 10
927381.565366796
 20
2029869.05348794
 10
928854.06884148
 20
2034605.53438569
 10
929650.11470237
 20
2039955.4880046
 10
930569.195246323
 20
2042743.19494821
 10
932130.503654909
 20
2043944.74279031
 10
934496.661749989
 20
2044720.5648472
 10
936581.359497089
 20
2046638.84867277
 10
938147.593791451
 20
2049115.8247759
 10
938973.455055065
 20
2051518.4942483
 10
939110.581976171
 20
2054008.51770762
 10
938295.63615779
 20
2061146.84319913
 10
938483.779488235
 20
2063629.93288029
 10
939761.654009064
 20
2070756.6524707
 10
938262.126096459
 20
2095140.78271369
 10
933550.653259109
 20
2122172.74948386
 10
930356.273693087
 20
2128045.72651488
 10
925632.108688394
 20
2127716.61575252
 10
925634.722853684
 20
2128410.50833968
 10
922018.925256708
 20
2128186.43077564
 10
919326.702621376
 20
2131897.84869682
 10
915692.296599347
 20
2143133.75288757
 10
915135.179735684
 20
2144358.67290309
 10
914270.712433854
 20
2145322.63972882
 10
913138.718430501
 20
2145749.89004107
 10
910611.948401581
 20
2145969.41901445
 10
909643.525497063
 20
2146445.1568453
 10
908247.598458352
 20
2148688.09525859
 10
908128.54527375
 20
2151016.07478641
 10
909996.805301221
 20
2159110.92302604
 10
909868.064299197
 20
2165715.60169123
 10
909365.729677761
 20
2167966.48148012
 10
908658.008819262
 20
2169918.0235509
 10
906982.919673607
 20
2172663.24978737
 10
906499.641299628
 20
2173169.1883347
 10
905745.573162815
 20
2173640.68459246
 10
904673.689227319
 20
2173789.06083479
 10
903274.391363793
 20
2173780.58308835
 10
902049.553459019
 20
2173997.63290094
 10
901526.598221719
 20
2174827.93425848
 10
901017.319724933
 20
2175211.28090016
 10
897539.767592628
 20
2175267.60322408
 10
896335.761504894
 20
2175598.97245988
 10
895608.639971039
 20
2176465.35255596
 10
895230.026895327
 20
2177673.70285605
 10
895056.170387846
 20
2179014.71392778
 10
895145.586827492
 20
2179728.12508127
 10
895694.191735685
 20
2181722.80491782
 10
895785.50679991
 20
2182956.32405009
 10
895534.248725715
 20
2184079.34410624
 10
894304.308207958
 20
2187120.23267151
 10
894615.472520997
 20
2194034.18800019
 10
895117.677872506
 20
2195902.23706102
 10
896881.643793726
 20
2199237.6869761
 10
897274.265969734
 20
2200460.72659962
 10
897437.539671719
 20
2201815.1141331
 10
897223.661168542
 20
2220176.7990395
 10
895614.639420761
 20
2224362.30656492
 10
892729.840002107
 20
2227489.21464488
 10
886917.927448212
 20
2230571.78495952
 10
883214.940265411
 20
2233499.45518114
 10
881338.561865632
 20
2234443.12818777
 10
881009.558794496
 20
2235286.15099458
 10
880915.300422801
 20
2237491.38162265
 10
880680.377125496
 20
2238931.22588136
 10
880106.885035971
 20
2239973.08911016
 10
878784.955775595
 20
2241707.07409783
 10
877889.373149623
 20
2244107.05806264
 10
876674.740430091
 20
2251587.32667797
  0
LWPOLYLINE
  5
20003
100
AcDbEntity
  8
0
100
AcDbPolyline
 70
0
 90
175
 10
876674.740430091
 20
2251587.32667797
 10
873643.365807297
 20
2253876.88766793
 10
870289.1399412
 20
2255896.02051672
 10
866718.886575722
 20
2257514.25432864
 10
845885.401912424
 20
2263208.01819335
 10
843035.70398677
 20
2263480.78896109
 10
840714.942013348
 20
2263063.08286583
 10
838729.290272712
 20
2262039.57790885
 10
836910.530646674
 20
2260513.78673793
 10
836289.518941427
 20
2259669.8570988
 10
835496.233221166
 20
2257738.97265545
 10
834751.939392488
 20
2256691.90658145
 10
833794.190899141
 20
2255968.26799099
 10
832997.134569401
 20
2255930.28530012
 10
832109.06354036
 20
2256169.26419668
 10
830791.476113585
 20
2256290.34968551
 10
826369.469490439
 20
2255355.93067875
 10
823312.509839661
 20
2253209.6712052
 10
818610.949220734
 20
2246537.09513215
 10
818240.417220156
 20
2245716.02073802
 10
818110.724455963
 20
2245119.3728433
 10
817879.282615024
 20
2244647.89205368
 10
817111.553644609
 20
2244199.89578828
 10
817059.099365005
 20
2243787.50777592
 10
816750.732457482
 20
2243223.9573953
 10
815673.689677493
 20
2241924.59881855
 10
813275.513518892
 20
2242736.03393777
 10
811584.079854895
 20
2241004.30588255
 10
810237.818630902
 20
2238603.35897571
 10
807697.300744676
 20
2236510.12508773
 10
806811.782022501
 20
2234400.32139693
 10
805570.817966902
 20
2229814.19663922
 10
803718.780232465
 20
2225785.86240437
 10
800951.922341616
 20
2223145.54054277
 10
797106.34197234
 20
2221758.47775471
 10
792033.454658489
 20
2221494.95049409
 10
787208.195372793
 20
2221994.20503345
 10
785458.916060427
 20
2221238.83589772
 10
784746.108370195
 20
2218754.15242324
 10
784533.341849231
 20
2216104.40349609
 10
783941.439344825
 20
2214687.12891101
 10
781941.753510413
 20
2212265.43023671
 10
780910.783428353
 20
2209290.94301449
 10
780499.576725743
 20
2208470.89641729
 10
779475.039704246
 20
2207514.03966047
 10
776983.028119327
 20
2206039.50912796
 10
775789.910232115
 20
2205063.99453186
 10
772287.711703397
 20
2200667.57949754
 10
769618.296868463
 20
2196327.28552698
 10
769339.065258547
 20
2195228.57783177
 10
769305.219437607
 20
2194205.24876786
 10
769087.872410689
 20
2193296.76535915
 10
768176.392829928
 20
2192529.23964366
 10
767103.410444773
 20
2192377.42200109
 10
765674.04257491
 20
2192583.32660102
 10
764439.538539376
 20
2193044.49808302
 10
763905.15035636
 20
2193645.02432926
 10
762975.315075342
 20
2195185.81493472
 10
760779.452564158
 20
2195266.1115474
 10
752242.948602024
 20
2192842.58099972
 10
748829.876175871
 20
2190683.28127583
 10
741611.42904942
 20
2184924.30330156
 10
737748.371115617
 20
2182506.48000057
 10
735966.528067316
 20
2180964.64719215
 10
735225.838178032
 20
2179196.16361967
 10
735678.505982354
 20
2176873.56223304
 10
736746.361149937
 20
2175344.49823329
 10
737937.647668185
 20
2174109.23719551
 10
738781.058737659
 20
2172673.26329973
 10
739055.606953576
 20
2167174.70355589
 10
736932.491685181
 20
2162483.37035245
 10
733235.339821181
 20
2159058.30183218
 10
728736.685200289
 20
2157388.83479551
 10
727383.109655838
 20
2157264.64779983
 10
726030.074410301
 20
2157323.20140374
 10
724764.548510584
 20
2157618.78871826
 10
723673.584776632
 20
2158235.69668097
 10
720336.070261642
 20
2157214.48832658
 10
719389.933623997
 20
2156720.82474749
 10
718785.081776244
 20
2155936.99907139
 10
717654.748249685
 20
2153566.94263745
 10
713185.087713116
 20
2147740.71162615
 10
711490.186488407
 20
2144342.17300023
 10
709637.179976577
 20
2139223.41213301
 10
708795.723019901
 20
2134275.07389485
 10
707549.97355546
 20
2132538.88728306
 10
703534.477921389
 20
2129974.58966271
 10
700984.135951446
 20
2127304.60129197
 10
699718.005578368
 20
2125551.3753956
 10
699178.116375188
 20
2124222.197888
 10
698455.493237962
 20
2121472.34575284
 10
696733.963052774
 20
2119350.85000353
 10
692719.849379963
 20
2115349.28501404
 10
688565.105288626
 20
2108486.68786718
 10
686208.147820607
 20
2105457.28974157
 10
682625.832682483
 20
2102376.06536193
 10
678739.313464008
 20
2100025.68309826
 10
674446.226904887
 20
2098321.85979747
 10
669961.57102547
 20
2097485.82745417
 10
665485.067172765
 20
2097763.43556895
 10
663102.086862539
 20
2098188.55726357
 10
661325.442810507
 20
2098176.92827197
 10
659639.178803138
 20
2097601.32977875
 10
648979.217377569
 20
2091685.06554328
 10
645282.466489592
 20
2093370.00863343
 10
643405.004646264
 20
2093834.76655951
 10
641455.271547945
 20
2093995.87760679
 10
639302.044173058
 20
2094431.20261146
 10
637323.951157901
 20
2095470.89517204
 10
633950.474710115
 20
2097846.83579512
 10
631931.046695009
 20
2098714.01267258
 10
630103.917722387
 20
2098923.93131238
 10
625661.81290022
 20
2098702.69552502
 10
623305.315864654
 20
2099535.05024167
 10
621676.609529857
 20
2101498.2243912
 10
619609.105074552
 20
2105598.72586896
 10
616169.342668917
 20
2108131.93849516
 10
607228.599783029
 20
2109724.01349921
 10
603212.384453944
 20
2112523.14406289
 10
602032.712276032
 20
2114483.72207798
 10
599962.882174538
 20
2119901.4142356
 10
599610.904598503
 20
2122121.53967001
 10
599063.456781382
 20
2123748.89212787
 10
596663.518914366
 20
2127853.29596718
 10
596056.656029186
 20
2130258.83525776
 10
596241.041628592
 20
2132599.31724315
 10
597307.493773228
 20
2136518.54733715
 10
597568.769341258
 20
2138975.44962293
 10
597437.372584963
 20
2141634.99832161
 10
597049.729836183
 20
2143909.90117645
 10
596360.153729572
 20
2145912.31783527
 10
595384.22764842
 20
2147754.19043905
 10
594238.882812597
 20
2149225.15828912
 10
588150.179796304
 20
2154773.12930285
 10
584281.78843056
 20
2160011.26663237
 10
583215.303777168
 20
2162487.2525364
 10
581411.895972817
 20
2172940.63893985
 10
578971.967075412
 20
2177742.28571732
 10
576861.04670706
 20
2185682.16087238
 10
575755.66306937
 20
2186893.88337729
 10
574378.779622426
 20
2187757.60846714
 10
573729.935921011
 20
2189839.40711175
 10
573230.277172876
 20
2194577.4828037
 10
571824.096679793
 20
2200432.0886157
 10
571817.985010725
 20
2202195.28799753
 10
573743.271970867
 20
2208678.78221995
 10
574044.797221752
 20
2210943.54759132
 10
574085.059346725
 20
2228181.89427237
 10
574411.394346567
 20
2230123.53571916
 10
573950.31644458
 20
2231727.27219549
 10
573192.823776973
 20
2233269.08276628
 10
572609.47375517
 20
2235016.74592285
 10
572551.75223495
 20
2236551.20190877
 10
573073.950447652
 20
2241437.18186079
 10
574343.070164651
 20
2244604.72909165
 10
574220.120143984
 20
2246640.56819123
 10
573652.726155603
 20
2248669.06418779
 10
573002.513525578
 20
2250236.25035259
 10
572470.581014128
 20
2252144.86468619
 10
571949.254264237
 20
2258615.46565398
 10
570781.601697649
 20
2261763.83582635
 10
569102.375522359
 20
2264620.01293237
 10
565372.478431829
 20
2268811.28953789
 10
564834.56627146
 20
2270384.4898991
 10
564854.754512204
 20
2279171.21282589
 10
564517.132469732
 20
2281208.85054167
 10
562009.334689639
 20
2285994.3039554
 10
561697.748835974
 20
2288261.18104626
 10
561778.134035957
 20
2289901.54339581
 10
561439.035449434
 20
2291309.91998921
 10
559879.199549486
 20
2292883.35672643
 10
558159.176058095
 20
2293672.15144663
 10
556550.821154249
 20
2294141.29821007
 10
555352.318988938
 20
2295104.73998693
 10
554897.6582496
 20
2297397.7673807
  0
LWPOLYLINE
  5
20004
100
AcDbEntity
  8
0
100
AcDbPolyline
 70
0
 90
84
 10
554897.6582496
 20
2297397.7673807
 10
555852.825741362
 20
2301794.72543692
 10
558370.300846539
 20
2303395.79043252
 10
561784.614292222
 20
2303918.15938094
 10
565568.218380885
 20
2305045.45653243
 10
569560.50749262
 20
2308016.44489606
 10
571350.697815489
 20
2308809.98776573
 10
573472.106043698
 20
2309210.64270209
 10
579638.384647632
 20
2308790.58976561
 10
582390.504139934
 20
2310127.91566765
 10
584672.01743318
 20
2313382.93261511
 10
586127.517756559
 20
2317352.762553
 10
586452.712875188
 20
2320870.39938946
 10
585996.488490013
 20
2322406.1679375
 10
583605.575087255
 20
2326923.20817496
 10
582532.123061463
 20
2331084.83564235
 10
582133.210287093
 20
2335262.71328247
 10
582275.721402727
 20
2337179.03601793
 10
582673.903290836
 20
2339162.0069666
 10
584783.014526841
 20
2345018.26850104
 10
584715.101559839
 20
2346545.47024415
 10
582944.187213342
 20
2349705.82551247
 10
580601.261299261
 20
2353039.50355713
 10
578075.827122827
 20
2354852.18028293
 10
574934.618676341
 20
2355609.14204116
 10
570744.336102771
 20
2355767.19990584
 10
567088.651248983
 20
2355055.72602408
 10
565387.112648429
 20
2355172.8944197
 10
563959.19863297
 20
2356497.35987409
 10
560821.56067019
 20
2363329.85784646
 10
557958.920340025
 20
2374309.63421334
 10
556115.694680505
 20
2377375.72673496
 10
554651.481049045
 20
2380814.58245185
 10
555426.508436556
 20
2384519.49774014
 10
557376.522939623
 20
2387951.80138455
 10
560273.19083367
 20
2391827.7971708
 10
561335.478831776
 20
2393689.6452954
 10
562147.640535235
 20
2395689.01656673
 10
562263.877645791
 20
2397345.491479
 10
561275.686072615
 20
2398845.65867053
 10
559847.286268554
 20
2400077.79519924
 10
558828.148909415
 20
2401467.53102159
 10
559057.526948961
 20
2403435.00221751
 10
559945.37994606
 20
2404997.52332698
 10
561139.535218522
 20
2406381.79268401
 10
562623.59445472
 20
2407122.91862509
 10
566312.554679902
 20
2406415.63057993
 10
573012.244221876
 20
2407913.29610901
 10
576744.41071602
 20
2408200.20549115
 10
580232.4148023
 20
2408990.18062658
 10
582793.322868174
 20
2411133.90080513
 10
583815.656059901
 20
2415438.20942092
 10
583938.240114184
 20
2424010.27901232
 10
584256.423572536
 20
2424533.05971282
 10
585628.900632811
 20
2425568.76283962
 10
586065.484181274
 20
2426434.81848839
 10
586275.466003816
 20
2428742.76146245
 10
586712.505068538
 20
2429796.51052065
 10
589180.355702958
 20
2431392.7944857
 10
596693.28821315
 20
2434828.07941337
 10
598293.328361829
 20
2436898.01004513
 10
597330.995592257
 20
2440601.95078714
 10
595563.329427927
 20
2443207.56287171
 10
594598.122123393
 20
2445749.12500938
 10
596114.840003178
 20
2449278.76876648
 10
598523.371637294
 20
2451604.79136147
 10
604104.502217764
 20
2455048.10592911
 10
606563.749291338
 20
2457153.36676359
 10
608253.248769044
 20
2458092.22672742
 10
612097.708468151
 20
2457980.89072944
 10
613725.174078721
 20
2458635.85683191
 10
615210.673085332
 20
2459762.59564065
 10
618395.26106628
 20
2461543.87428004
 10
619870.842506341
 20
2462777.52445323
 10
624049.291433743
 20
2467324.53105135
 10
625396.948911866
 20
2468493.75461555
 10
626955.571539812
 20
2470181.66866322
 10
627604.508965114
 20
2472026.95063046
 10
624302.581735266
 20
2476472.44210885
 10
626202.132581822
 20
2479504.32935678
 10
632016.488548431
 20
2483769.27158294
 10
634000.356065033
 20
2485729.80387426
 10
635607.011565622
 20
2488132.21435618
 10
637819.577980357
 20
2493473.03240834
  0
LWPOLYLINE
  5
20005
100
AcDbEntity
  8
0
100
AcDbPolyline
 70
0
 90
49
 10
826013.733065802
 20
2751003.32172741
 10
826092.816311147
 20
2753215.62888283
 10
825338.18847613
 20
2760210.42054381
 10
825641.152105469
 20
2762019.18706889
 10
826780.333206972
 20
2765891.14397292
 10
826725.564988012
 20
2767875.98170736
 10
825378.84356097
 20
2772344.22838595
 10
825158.1813186
 20
2773712.88004987
 10
825394.90910853
 20
2777139.10872484
 10
825891.47122168
 20
2778662.02731182
 10
828229.445162585
 20
2782760.76810488
 10
828994.164438622
 20
2784852.90251267
 10
829206.406077047
 20
2787069.5957204
 10
829084.126784965
 20
2796372.75776532
 10
829394.566069773
 20
2797339.55233023
 10
830114.743777525
 20
2798351.97425767
 10
830877.172225307
 20
2799745.99803506
 10
830285.449502262
 20
2800391.31749542
 10
828270.126507221
 20
2800952.48528656
 10
826030.591277072
 20
2804887.09089217
 10
826608.140099546
 20
2809166.47581981
 10
830538.757568158
 20
2817821.36230972
 10
831566.290244208
 20
2821891.31508463
 10
831990.221172665
 20
2826129.05620285
 10
831312.648818327
 20
2834735.91967776
 10
829954.810190682
 20
2839030.19869937
 10
826137.149285832
 20
2845833.20830996
 10
824858.226920172
 20
2849271.61366143
 10
824825.299370539
 20
2851673.49528761
 10
826566.622919434
 20
2854792.93427451
 10
827024.706408259
 20
2857009.87571362
 10
826664.221473287
 20
2860988.79610453
 10
825688.48964718
 20
2864760.37077001
 10
824076.618674004
 20
2868210.3895001
 10
821882.434579522
 20
2870592.5039797
 10
811938.935965671
 20
2875870.26214701
 10
806207.13677715
 20
2880271.50491686
 10
798855.02878562
 20
2884151.54906928
 10
795420.89013594
 20
2886490.29633839
 10
792931.741111866
 20
2889659.16242982
 10
791998.217464579
 20
2894011.24303542
 10
792741.983763581
 20
2902318.51914315
 10
792365.331247778
 20
2904649.17942578
 10
791408.112631172
 20
2906428.87929151
 10
789178.821428918
 20
2909249.57725232
 10
786529.364123175
 20
2913644.35380442
 10
784970.788849907
 20
2918018.53056655
 10
785515.71739893
 20
2921850.88766626
 10
789227.97879719
 20
2924602.4648798
  0
LWPOLYLINE
  5
20006
100
AcDbEntity
  8
0
100
AcDbPolyline
 70
0
 90
107
 10
789227.97879719
 20
2924602.4648798
 10
794303.330179331
 20
2925899.02983635
 10
796817.418474703
 20
2927167.3958808
 10
804261.369900962
 20
2940042.9818046
 10
805957.836833164
 20
2941868.44228686
 10
808265.596354972
 20
2942636.65149877
 10
810673.67432939
 20
2942750.27602906
 10
812955.18759089
 20
2943319.37623915
 10
814598.794052793
 20
2944624.80639419
 10
815144.37689622
 20
2946949.61947342
 10
814406.991559598
 20
2948593.34631784
 10
811511.569999577
 20
2951406.79100437
 10
810861.531459893
 20
2953140.04492801
 10
811197.858395624
 20
2955709.31808044
 10
812053.336187738
 20
2957243.30308446
 10
814480.592185722
 20
2960016.53900727
 10
816352.734731046
 20
2963774.4673719
 10
816919.522741975
 20
2966296.83625578
 10
816291.029395879
 20
2968347.86649155
 10
815324.265875581
 20
2970363.54816649
 10
815084.116264576
 20
2975208.40116597
 10
814538.030462663
 20
2977402.03057027
 10
813272.093814804
 20
2978824.23502669
 10
811278.623215088
 20
2980253.81612483
 10
809186.748170562
 20
2981369.08094693
 10
805670.592759284
 20
2982514.65660322
 10
804250.558738418
 20
2983841.36799317
 10
802634.318745112
 20
2984709.89961343
 10
800152.17462225
 20
2984001.59092976
 10
799278.325808664
 20
2983128.22318491
 10
798839.424548669
 20
2982080.69598847
 10
798544.169110502
 20
2981089.3172633
 10
798065.470329155
 20
2980407.78470846
 10
797091.229806155
 20
2980171.20334744
 10
794287.495598012
 20
2979814.19873139
 10
793691.428002465
 20
2979274.75244351
 10
792448.959853224
 20
2978474.38821106
 10
781944.500497682
 20
2978079.94526948
 10
780047.010344538
 20
2977513.56955665
 10
778239.732465724
 20
2976307.38125672
 10
776030.168690989
 20
2974251.25694527
 10
773792.288722155
 20
2972955.78269445
 10
772154.674785025
 20
2973554.15627433
 10
770559.449917861
 20
2974603.69138436
 10
768484.656324177
 20
2974666.90550559
 10
766722.81106807
 20
2973217.74804729
 10
766030.302291436
 20
2971295.58143094
 10
765020.929190843
 20
2969621.77915796
 10
762369.983185493
 20
2968915.28764615
 10
760512.171719218
 20
2969548.00557279
 10
759851.012412942
 20
2971128.96266926
 10
759642.310012831
 20
2973231.9284425
 10
759157.194280287
 20
2975417.90121391
 10
758320.589440181
 20
2976601.52789007
 10
756813.571343133
 20
2978037.1910258
 10
755141.889823704
 20
2979246.31344239
 10
753780.604728197
 20
2979760.91747734
 10
751898.540389978
 20
2980875.11527291
 10
748389.338893921
 20
2987771.36019831
 10
746819.715037052
 20
2988878.67906083
 10
745165.973342225
 20
2989282.94895165
 10
740877.252129322
 20
2989231.476674
 10
740514.787322235
 20
2987965.1643205
 10
740082.053203792
 20
2985477.63791116
 10
738872.954377022
 20
2983795.98994439
 10
736212.034343207
 20
2984922.33901422
 10
735489.88714227
 20
2986735.85759798
 10
736435.876380552
 20
2991248.6501487
 10
735878.006814971
 20
2993174.02055922
 10
730769.078040286
 20
2998196.60201161
 10
723312.223174941
 20
3002907.40154974
 10
722588.0575999
 20
3004082.72417621
 10
721722.904057914
 20
3006109.7836148
 10
719728.755597504
 20
3007563.69376688
 10
717569.48188653
 20
3008629.5731012
 10
716147.583569694
 20
3009528.62218655
 10
714785.873886461
 20
3013517.72551364
 10
714521.284365401
 20
3023005.44459965
 10
712616.826528511
 20
3025412.31371474
 10
711111.018659849
 20
3025686.30167317
 10
710326.350067904
 20
3025470.28371962
 10
708246.6733579
 20
3023986.71654865
 10
706871.659884927
 20
3023407.63220041
 10
705794.962463153
 20
3023210.37297889
 10
703555.785523909
 20
3023280.9844955
 10
702970.177944561
 20
3024579.67905079
 10
704682.161154616
 20
3031897.07995017
 10
703456.934044247
 20
3033537.96627888
 10
701355.844614052
 20
3033543.95090711
 10
699048.737242235
 20
3033186.08685361
 10
697143.851271473
 20
3033709.86836724
 10
696428.521415535
 20
3034461.2038405
 10
696102.500876212
 20
3035154.9406191
 10
696033.204033623
 20
3036022.38089041
 10
696036.911530602
 20
3037335.94427466
 10
695671.971477731
 20
3038768.39618367
 10
694736.858680848
 20
3039732.91026396
 10
692399.295893201
 20
3041321.92243179
 10
686967.420771738
 20
3046993.14477143
 10
684685.503409741
 20
3050208.30780821
 10
683116.229484808
 20
3053538.43435679
 10
681379.675169017
 20
3059408.41563502
 10
680329.630299887
 20
3061490.30439529
 10
678899.896828328
 20
3063426.95911155
 10
669862.589172674
 20
3070437.45427872
 10
666847.641493512
 20
3073783.48238638
 10
661707.339706949
 20
3081632.99443114
  0
LWPOLYLINE
  5
20007
100
AcDbEntity
  8
0
100
AcDbPolyline
 70
0
 90
64
 10
661707.339706949
 20
3081632.99443114
 10
661062.198299781
 20
3085715.32467487
 10
659222.636357365
 20
3087848.1214916
 10
656364.615218605
 20
3088660.29800666
 10
652664.159232264
 20
3088797.81989044
 10
650692.831152917
 20
3089594.74771309
 10
649569.747093698
 20
3091339.29660582
 10
648892.602042707
 20
3093084.95348364
 10
648371.84591634
 20
3093877.74454534
 10
647654.660586164
 20
3094045.56450129
 10
647065.802551412
 20
3094281.97005724
 10
646383.914607546
 20
3094227.59623548
 10
644740.35312105
 20
3092975.84743952
 10
643832.258882716
 20
3092664.18513061
 10
642832.301862372
 20
3092505.94259129
 10
641883.908891827
 20
3092465.00895862
 10
641707.195195854
 20
3093499.46920489
 10
641745.16258256
 20
3098241.80280155
 10
641543.667905306
 20
3099604.9626434
 10
640058.875139604
 20
3100279.87059313
 10
635574.397991583
 20
3100589.98105757
 10
633602.05349773
 20
3101049.19240787
 10
632297.503812545
 20
3102060.24910294
 10
630705.074682532
 20
3104760.46400402
 10
629375.584368197
 20
3106054.30996563
 10
626355.281545159
 20
3107678.67749954
 10
626034.747911657
 20
3108630.52028706
 10
627166.847005286
 20
3110335.72676117
 10
623709.785161198
 20
3111580.77800873
 10
620187.391926681
 20
3113361.00818777
 10
617132.15492416
 20
3115425.12292966
 10
615010.046464138
 20
3117560.37941391
 10
614066.501890936
 20
3119503.79794635
 10
614428.204356215
 20
3120649.03847541
 10
615266.637734838
 20
3121780.24087417
 10
615742.928400654
 20
3123645.55103129
 10
615409.738417024
 20
3125713.68180152
 10
614229.47821738
 20
3129369.1055863
 10
614327.808730334
 20
3131798.94483531
 10
615009.568368663
 20
3133819.79196138
 10
616895.001359602
 20
3137439.48352651
 10
617268.848820643
 20
3139325.3114058
 10
617618.846280376
 20
3139873.62202139
 10
618348.365355679
 20
3140474.34252634
 10
619093.624162173
 20
3141217.35070741
 10
619429.33936286
 20
3142200.27931149
 10
619237.102128448
 20
3143230.19730419
 10
618310.060169916
 20
3145646.87134349
 10
618005.466989992
 20
3146854.61171485
 10
618025.998174784
 20
3155050.89619838
 10
617576.163522813
 20
3155592.81191861
 10
615558.45638472
 20
3156554.96272803
 10
615108.772649154
 20
3157160.26252503
 10
614946.917319689
 20
3158049.10412556
 10
614099.264526173
 20
3159442.11236759
 10
613681.104117743
 20
3160356.78456571
 10
613403.862068218
 20
3162270.78027761
 10
613690.109957777
 20
3163977.55152645
 10
614155.514984929
 20
3165561.8574545
 10
614415.786280536
 20
3167128.69083228
 10
614225.333628323
 20
3173011.56046357
 10
613526.163310514
 20
3176401.84859667
 10
613326.540073223
 20
3178606.74345343
 10
613011.17580022
 20
3179633.56140355
  0
LWPOLYLINE
  5
20008
100
AcDbEntity
  8
0
100
AcDbPolyline
 70
0
 90
114
 10
613011.17580022
 20
3179633.56140355
 10
612510.189040147
 20
3180247.84595358
 10
611088.075047021
 20
3181614.12353388
 10
610786.795404222
 20
3182121.42607785
 10
610020.157774266
 20
3183141.42811149
 10
605080.683596972
 20
3186731.39996075
 10
604150.741221821
 20
3188088.02633473
 10
603472.36244578
 20
3189570.41598919
 10
603066.432970721
 20
3191330.30237576
 10
602943.540798723
 20
3193501.62144291
 10
603037.926505496
 20
3194353.9911669
 10
603266.110781107
 20
3195398.2201309
 10
603627.216067926
 20
3196275.08211849
 10
604552.689318497
 20
3197266.83294847
 10
604135.623178448
 20
3198668.93433505
 10
602961.752886072
 20
3200955.12583818
 10
602617.858595827
 20
3202927.88028315
 10
602981.779684366
 20
3209151.32137824
 10
603208.670691167
 20
3209661.08797986
 10
603702.17102991
 20
3210144.91647366
 10
604191.045704283
 20
3210833.34194915
 10
604580.40139905
 20
3212764.60833008
 10
604951.900481125
 20
3213685.48531154
 10
605446.285321592
 20
3214525.17595924
 10
605919.626915305
 20
3215147.70437838
 10
610954.397568979
 20
3218752.98980653
 10
611674.865464837
 20
3219753.24104841
 10
611891.656867661
 20
3220315.51785064
 10
612885.905231574
 20
3222104.77556643
 10
613119.521740485
 20
3223244.68508706
 10
612994.454086826
 20
3224511.50390414
 10
612652.405483819
 20
3225143.02874057
 10
612171.506198887
 20
3225623.50996042
 10
611691.393756069
 20
3226421.78404307
 10
611285.739613033
 20
3228294.18935182
 10
611597.446111205
 20
3229902.25498749
 10
612124.399661662
 20
3231443.99453196
 10
612415.848711611
 20
3233152.46204343
 10
612479.783570648
 20
3234115.17761746
 10
612646.219295623
 20
3235047.30905577
 10
612971.511443738
 20
3235923.52147485
 10
613511.915877525
 20
3236678.17281689
 10
613898.815735714
 20
3237576.7733274
 10
613644.535197981
 20
3238446.65820727
 10
613221.217303122
 20
3239405.06517475
 10
613162.599299913
 20
3240584.15131577
 10
613910.063225124
 20
3242098.59879932
 10
615118.660023423
 20
3243417.77194286
 10
616250.994660405
 20
3245001.34822643
 10
616989.23676081
 20
3248969.49788905
 10
617623.01137723
 20
3250125.65116799
 10
619706.53018806
 20
3252601.58639334
 10
620541.736826124
 20
3254302.74486221
 10
620715.207238736
 20
3255975.10519804
 10
620443.162768735
 20
3259979.35648304
 10
620847.030493362
 20
3261481.79921689
 10
621810.55596251
 20
3263201.29825524
 10
623972.012333852
 20
3266010.64192444
 10
631427.659523807
 20
3273012.80640305
 10
633399.506316472
 20
3275819.9023763
 10
634830.73274202
 20
3279827.24271779
 10
635913.386247833
 20
3281924.72777933
 10
637326.423974576
 20
3282831.82259177
 10
638507.456631042
 20
3283285.36420818
 10
642747.638510157
 20
3286384.68177275
 10
645974.941940803
 20
3290533.60079508
 10
647121.693524794
 20
3291588.47159142
 10
648331.660391368
 20
3293269.65092475
 10
648579.125407853
 20
3293735.15793365
 10
648746.855316803
 20
3295092.96721814
 10
649107.81651354
 20
3295798.63913631
 10
649596.398215631
 20
3296263.39560958
 10
653135.215073709
 20
3301719.71098147
 10
653610.208563524
 20
3302857.80938849
 10
652707.70573975
 20
3314659.47710771
 10
652864.74039663
 20
3315839.49258512
 10
653225.395575605
 20
3316413.6984504
 10
653791.312556227
 20
3317002.33138111
 10
654270.780811735
 20
3317881.19288235
 10
654377.234248392
 20
3319330.96243125
 10
654123.820336636
 20
3320506.52431242
 10
653116.370630769
 20
3321746.42929264
 10
652883.382706826
 20
3322889.16941736
 10
653080.646793989
 20
3323758.27647113
 10
653585.024189486
 20
3324351.64496675
 10
654304.785737871
 20
3324904.42984059
 10
655112.367674956
 20
3325681.80281386
 10
656117.536642732
 20
3327442.81624704
 10
657990.8086699
 20
3333423.57139224
 10
658623.613512341
 20
3334063.4491352
 10
659342.952164784
 20
3334443.45436731
 10
659934.502984474
 20
3335003.5007134
 10
660219.917153759
 20
3336205.76315829
 10
658996.34721543
 20
3339148.60267224
 10
658727.734447656
 20
3340396.75751484
 10
658919.34033089
 20
3342977.95066172
 10
659642.968283823
 20
3344953.6308418
 10
660826.987278984
 20
3346396.64460851
 10
662420.40053498
 20
3347424.52053157
 10
659985.550221931
 20
3350262.66399173
 10
659107.356664928
 20
3351902.30120613
 10
658764.102767431
 20
3354028.55662814
 10
659169.994834903
 20
3356144.88905283
 10
661035.776902204
 20
3359220.564957
 10
661739.381726147
 20
3361359.8916089
 10
661718.96586192
 20
3365230.39074227
 10
660909.27911996
 20
3369474.63201326
 10
659585.328128857
 20
3373320.59935151
 10
658104.234025443
 20
3375984.77940765
 10
655432.399393193
 20
3378601.69556121
 10
654281.77924829
 20
3380125.57694719
 10
653819.737689365
 20
3381997.69722213
 10
655583.152425081
 20
3392861.0613619
 10
655534.321626051
 20
3393799.19893978
  0
LWPOLYLINE
  5
20009
100
AcDbEntity
  8
0
100
AcDbPolyline
 70
0
 90
20
 10
782666.942523685
 20
179365.119031852
 10
784159.835740561
 20
178934.625714427
 10
785228.032261729
 20
177179.157577605
 10
785794.542753352
 20
175358.671412811
 10
790816.163876045
 20
169712.527260005
 10
792256.364301721
 20
168676.832701699
 10
793446.468228758
 20
168615.039008362
 10
794866.700844631
 20
169227.285935935
 10
796590.561769512
 20
169751.645528825
 10
800890.088106837
 20
167970.920761117
 10
803294.884180612
 20
167627.054200894
 10
805813.326024635
 20
167954.693810998
 10
807940.171611971
 20
167802.846149862
 10
809508.481624698
 20
167238.685583687
 10
811005.258615027
 20
166489.394302382
 10
811814.042623676
 20
166000.143832043
 10
813344.41412688
 20
163179.919068738
 10
814396.926864408
 20
159845.678156628
 10
816091.039571194
 20
157543.209968302
 10
818723.990136864
 20
154290.405940641
  0
LWPOLYLINE
  5
2000A
100
AcDbEntity
  8
0
100
AcDbPolyline
 70
0
 90
11
 10
751213.425452496
 20
196542.843433181
 10
753111.327132557
 20
195981.052880671
 10
755160.220881829
 20
195106.062650384
 10
758143.445860806
 20
193330.522895695
 10
760450.803503055
 20
190882.352564502
 10
762819.57095607
 20
190266.870110399
 10
765875.28031807
 20
189026.63758575
 10
768332.639611719
 20
187600.021541538
 10
770799.075820337
 20
185849.014181176
 10
773247.382062287
 20
184781.415333885
 10
775485.462048309
 20
182921.004223167
  0
LWPOLYLINE
  5
2000B
100
AcDbEntity
  8
0
100
AcDbPolyline
 70
0
 90
23
 10
818723.990136864
 20
154290.405940641
 10
819298.259944408
 20
151855.444004915
 10
821692.920243443
 20
148559.824735398
 10
822642.249657373
 20
144718.625597363
 10
825752.381843556
 20
138871.252620791
 10
826160.47824719
 20
136749.424345091
 10
826151.36513422
 20
134061.194725855
 10
825687.741025722
 20
131751.053706538
 10
823442.32855396
 20
129690.245636498
 10
823089.289777092
 20
127124.720489421
 10
824935.141663621
 20
111395.642420634
 10
826170.351468271
 20
106799.16801361
 10
831102.721477167
 20
97945.1197607366
 10
833092.23628383
 20
93354.341623008
 10
834376.292800796
 20
88307.9959153777
 10
834837.895427058
 20
82638.3831509
 10
834627.22521637
 20
77307.0429392378
 10
834800.890707423
 20
74793.9453826357
 10
838312.220585291
 20
65232.8979888639
 10
839732.873002355
 20
63170.3408281935
 10
845828.408606044
 20
57265.9478217103
 10
848215.996868856
 20
53765.250060817
 10
848873.983698937
 20
49357.5210921176
  0
LWPOLYLINE
  5
2000C
100
AcDbEntity
  8
0
100
AcDbPolyline
 70
0
 90
5
 10
775485.462048309
 20
182921.004223167
 10
776897.396646868
 20
180918.387528362
 10
778665.155751021
 20
179314.226244714
 10
780785.473193374
 20
178670.347178793
 10
782666.942523685
 20
179365.119031852
  0
LWPOLYLINE
  5
2000D
100
AcDbEntity
  8
0
100
AcDbPolyline
 70
0
 90
89
 10
660580.840625574
 20
259295.952315198
 10
661199.982358476
 20
259653.112550286
 10
661199.982358476
 20
259653.112550286
 10
661199.982358476
 20
259653.112550286
 10
661199.982358476
 20
259653.112550286
 10
664020.178128148
 20
260733.533353479
 10
669185.216177872
 20
265060.061445744
 10
674220.936394972
 20
266533.543316953
 10
677774.24893679
 20
268803.873778297
 10
679305.965239617
 20
269314.670393647
 10
686410.130858296
 20
269294.77542174
 10
687362.040354818
 20
269037.458994327
 10
688483.803895638
 20
267920.254416727
 10
689324.253367215
 20
267671.922219447
 10
691260.701049074
 20
267950.014657693
 10
701051.089867812
 20
271683.704788892
 10
702321.310316251
 20
272866.383663594
 10
704417.889889881
 20
275933.168470875
 10
706023.220899571
 20
277331.81222445
 10
707961.10020509
 20
278069.782430039
 10
712169.449640122
 20
278896.591203488
 10
713895.029984591
 20
279805.826344307
 10
714947.238893254
 20
279186.473218961
 10
715930.011868996
 20
279082.32331892
 10
716974.016989285
 20
279122.656517265
 10
718138.915595671
 20
278916.696628305
 10
719251.687977504
 20
278219.021249632
 10
721764.122632373
 20
276171.779940983
 10
723965.069102652
 20
275042.615711008
 10
728107.593225659
 20
270794.226525637
 10
729160.393284166
 20
270397.558605407
 10
732351.470357935
 20
269971.322413246
 10
733414.046600332
 20
269458.860839947
 10
735942.853403991
 20
267868.441119333
 10
739233.069954663
 20
266729.969695493
 10
742679.470979611
 20
263643.495253743
 10
745080.924232936
 20
263529.100451146
 10
746253.422376058
 20
264182.392523457
 10
747916.146832693
 20
266066.884925375
 10
748642.634004335
 20
266681.005414775
 10
749641.566446299
 20
266909.429168371
 10
753304.375261168
 20
266666.647965685
 10
755120.45725621
 20
265688.758098552
 10
756724.876545315
 20
263455.62340701
 10
758602.189277413
 20
259369.527128529
 10
759640.401132279
 20
251069.269132186
 10
760369.173636767
 20
249171.352732973
 10
761518.534146622
 20
247292.346656558
 10
762341.53762309
 20
244751.539586636
 10
762804.433338106
 20
242096.022729724
 10
762848.098882622
 20
239858.545594363
 10
762438.276070786
 20
238421.306045837
 10
761009.838270374
 20
235282.374946391
 10
760716.172425158
 20
233720.244722815
 10
761000.496092769
 20
232289.438969782
 10
761758.591496481
 20
231690.784012783
 10
762887.517297915
 20
231406.47745241
 10
764238.579717198
 20
230872.529856568
 10
762789.194541665
 20
229128.701306428
 10
762239.424122373
 20
228296.752204199
 10
762033.587245936
 20
227278.458956889
 10
762040.587949585
 20
224655.79045184
 10
761849.934881817
 20
223631.626763396
 10
761325.709637181
 20
222863.241477408
 10
761723.552580346
 20
220476.63085464
 10
759743.577691928
 20
219142.465678345
 10
757040.862051789
 20
218354.766449235
 10
755280.519347393
 20
217584.37777542
 10
754886.781441109
 20
216407.338760607
 10
754740.225891933
 20
214887.909383278
 10
754330.894096948
 20
213580.612551427
 10
753138.656121704
 20
213025.549796876
 10
752073.752679518
 20
212690.111768866
 10
751261.231676126
 20
212055.695926844
 10
750414.206389122
 20
211731.157192703
 10
749250.768507669
 20
212299.281395462
 10
747950.013535213
 20
211043.90126852
 10
743149.024581624
 20
209900.525321202
 10
742081.239244276
 20
208609.635189309
 10
741419.298862482
 20
207502.785125871
 10
738217.422527944
 20
204087.408005239
 10
737047.410099686
 20
202478.254037987
 10
737826.032920166
 20
200304.371846309
 10
736750.940061865
 20
196572.506305712
 10
737023.13424235
 20
194449.275597359
 10
740844.543180852
 20
196742.515363264
 10
744647.518281662
 20
197952.81385792
 10
748213.358786481
 20
197811.599928415
 10
751213.425452496
 20
196542.843433181
  0
LWPOLYLINE
  5
2000E
100
AcDbEntity
  8
0
100
AcDbPolyline
 70
0
 90
18
 10
848873.983698937
 20
49357.5210921176
 10
849947.189535983
 20
47884.3113476164
 10
851131.697725402
 20
47842.4961964097
 10
853549.166334846
 20
47138.4286671821
 10
855968.096625804
 20
46854.5946580165
 10
859336.018080223
 20
45784.8247697993
 10
858743.717995827
 20
41482.7418337142
 10
852744.046071228
 20
36967.6705846772
 10
849362.069688082
 20
33979.4861308423
 10
848603.192499639
 20
29755.9718115339
 10
847421.72756863
 20
24826.5598650025
 10
843188.655290159
 20
20116.3206778244
 10
837441.708370419
 20
9366.99365279822
 10
830653.663492269
 20
-18872.7736550262
 10
812164.678278069
 20
-58416.5905273255
 10
773795.095938486
 20
-89162.1547486915
 10
725210.751198652
 20
-106313.348902722
 10
701212.393387043
 20
-112141.560187792
  0
LWPOLYLINE
  5
2000F
100
AcDbEntity
  8
0
100
AcDbPolyline
 70
0
 90
32
 10
475473.815602368
 20
-354934.197835399
 10
475659.936088662
 20
-355386.869294891
 10
478298.438911673
 20
-357850.732169739
 10
479383.86615
 20
-358467.53778817
 10
480647.854309631
 20
-358238.082762055
 10
481912.41937013
 20
-357718.695238746
 10
482984.425477849
 20
-357454.078616028
 10
485398.302150498
 20
-358462.07130132
 10
487826.711673268
 20
-362294.083695815
 10
489659.612085066
 20
-363150.171183381
 10
491646.194171897
 20
-362980.219527594
 10
497107.505537602
 20
-361541.650964732
 10
499391.628868893
 20
-361697.096278338
 10
503557.451845654
 20
-363526.469532739
 10
505906.603777422
 20
-363995.23692096
 10
507623.029657798
 20
-364926.595369152
 10
507962.001253687
 20
-367177.161263228
 10
506976.316270315
 20
-372103.85444291
 10
506238.319650287
 20
-374595.649896964
 10
506261.077805777
 20
-375801.766380162
 10
506966.017652136
 20
-377044.08887148
 10
508328.670963951
 20
-377934.081878791
 10
508987.074179958
 20
-377257.051344358
 10
509444.436150792
 20
-376051.946491622
 10
510153.275643535
 20
-375427.20635903
 10
512513.262238889
 20
-375490.152325163
 10
513437.208063637
 20
-375915.383981159
 10
514743.636728551
 20
-379484.134265908
 10
515988.451975068
 20
-381110.294847899
 10
517632.856228717
 20
-382563.354913561
 10
519064.148673975
 20
-384410.241977228
 10
519664.543725207
 20
-387235.232797961
  0
LWPOLYLINE
  5
20010
100
AcDbEntity
  8
0
100
AcDbPolyline
 70
0
 90
142
 10
519664.543725207
 20
-387235.232797961
 10
519610.663600675
 20
-388800.610835286
 10
519370.710292215
 20
-389942.321548933
 10
518837.918476401
 20
-390961.643240969
 10
517885.377440713
 20
-392130.816010611
 10
515744.201610704
 20
-396196.44228624
 10
515414.898954084
 20
-396590.00348154
 10
516016.22875103
 20
-398980.006498783
 10
517755.709310074
 20
-400815.819452617
 10
519573.512332186
 20
-401457.455718437
 10
520409.875455967
 20
-400253.299886657
 10
520680.553030359
 20
-398920.375761711
 10
521400.008893755
 20
-398040.640754169
 10
522411.701646205
 20
-397561.588151659
 10
524787.506878333
 20
-397218.829752061
 10
525303.884420346
 20
-396785.101729881
 10
525759.836663669
 20
-396252.678444487
 10
526781.589752512
 20
-395802.651682741
 10
531522.867914387
 20
-395244.77013846
 10
533646.702960136
 20
-394600.050493041
 10
535686.786316058
 20
-392981.100995158
 10
546037.341057538
 20
-381222.295203064
 10
547406.993732348
 20
-378929.245267392
 10
551697.075961996
 20
-374706.124120069
 10
552506.866697179
 20
-374186.103954584
 10
553897.808259817
 20
-373684.803209408
 10
554581.4339782
 20
-373089.120122697
 10
555776.395360794
 20
-369891.079811195
 10
555938.384692241
 20
-369775.479760562
 10
556494.685324817
 20
-365195.874499795
 10
557296.403744563
 20
-363806.036451496
 10
559997.180476989
 20
-362971.433696502
 10
560292.317676537
 20
-362102.311075884
 10
560207.087879408
 20
-359608.667542416
 10
560543.732489367
 20
-358275.729696979
 10
561272.637004194
 20
-357796.112026176
 10
561996.235468427
 20
-357426.661066165
 10
562521.07730845
 20
-355583.855824117
 10
563038.106225189
 20
-354935.583651924
 10
563797.28380175
 20
-354485.033488893
 10
564783.230885028
 20
-354324.95312561
 10
565340.567989656
 20
-353734.765112677
 10
566964.162913066
 20
-351059.461591442
 10
568062.782959558
 20
-350273.372078347
 10
567611.468714938
 20
-348741.39977306
 10
566719.192163435
 20
-347736.098462717
 10
566130.06128126
 20
-346777.895148651
 10
566598.101373546
 20
-345474.210049187
 10
564729.324284043
 20
-344889.962523624
 10
563141.121616277
 20
-343187.162498379
 10
560572.205724729
 20
-339342.23325548
 10
560349.49578567
 20
-337283.026762001
 10
561543.382290605
 20
-334658.752620815
 10
563800.777176123
 20
-331172.837381815
 10
563858.314451155
 20
-328157.344040734
 10
564191.177766352
 20
-326302.332638564
 10
565028.828009688
 20
-324750.050944561
 10
571010.356038882
 20
-317590.139486526
 10
571682.886371576
 20
-315347.317668467
 10
572179.819787736
 20
-314693.141251951
 10
574154.635013507
 20
-313276.910970662
 10
574661.757300598
 20
-312593.762628545
 10
575514.769598106
 20
-311006.700517054
 10
575869.861749272
 20
-310485.57966461
 10
577702.885246553
 20
-309196.619054292
 10
579260.51928952
 20
-308927.742475253
 10
580726.276500475
 20
-309029.830572676
 10
582303.857695385
 20
-308877.012640414
 10
583720.217699753
 20
-308497.633150598
 10
584277.079725277
 20
-308168.392918947
 10
584490.790008269
 20
-307588.944321509
 10
584912.279686527
 20
-306795.409793188
 10
585837.492132945
 20
-306751.239775371
 10
587251.896998649
 20
-307189.621991589
 10
588832.202683429
 20
-305917.523362623
 10
589467.336876424
 20
-304585.142656172
 10
589890.437153133
 20
-303136.25210134
 10
590789.121536839
 20
-301531.920238955
 10
593033.187379377
 20
-299664.074205141
 10
595473.197515408
 20
-298307.098415684
 10
597559.927794927
 20
-296717.285394252
 10
598658.175101394
 20
-294168.085197845
 10
598543.112201575
 20
-293674.819955787
 10
597889.67849588
 20
-292136.265864949
 10
597662.993828133
 20
-291805.119862256
 10
597107.997987675
 20
-291351.370479599
 10
597312.639889029
 20
-290365.902525103
 10
597779.915527909
 20
-289485.475625042
 10
598023.009788496
 20
-289312.077038832
 10
598686.106240628
 20
-282817.842223565
 10
598686.106240628
 20
-282817.842223565
 10
598686.106240628
 20
-282817.842223565
 10
598686.106240628
 20
-282817.842223565
 10
598686.106240628
 20
-282817.842223565
 10
600964.934779572
 20
-281298.081690843
 10
602706.302440563
 20
-280414.998402629
 10
604053.894450891
 20
-279304.750871934
 10
605131.227033915
 20
-277091.842619354
 10
605582.173420008
 20
-274668.570021255
 10
605157.482646827
 20
-266535.86389863
 10
606070.459385048
 20
-261318.052678181
 10
609663.115620355
 20
-248102.655622087
 10
608802.061593994
 20
-244643.56783095
 10
607693.936899686
 20
-242918.128331881
 10
606120.781836383
 20
-241116.12841796
 10
604272.774402245
 20
-240026.884739515
 10
602314.700711304
 20
-240497.65130707
 10
603712.269359632
 20
-233598.792306007
 10
603401.492037198
 20
-230454.262313677
 10
600292.974317054
 20
-229878.143949008
 10
600811.08721853
 20
-228939.77273005
 10
601450.194779356
 20
-228152.510139704
 10
603132.828391814
 20
-226636.992582989
 10
602339.085417486
 20
-224517.90922551
 10
602940.297356345
 20
-222703.896193983
 10
603996.560799272
 20
-220925.813983722
 10
604567.942610901
 20
-218914.515335756
 10
603760.549505859
 20
-214138.824554497
 10
603389.414894497
 20
-212890.82749675
 10
604591.042006548
 20
-209616.607189643
 10
604330.76071787
 20
-208531.292823193
 10
603424.456839507
 20
-206916.5424239
 10
603183.260575698
 20
-206289.505852175
 10
603211.709859911
 20
-205013.495303799
 10
604585.267714758
 20
-195655.105183491
 10
604683.911317941
 20
-192592.753690297
 10
603921.379493514
 20
-190085.100023029
 10
601460.696080125
 20
-191163.674654754
 10
599835.795044373
 20
-189680.57024885
 10
598856.151919141
 20
-186998.388004352
 10
597850.044423103
 20
-182726.846414374
 10
597402.094553196
 20
-181832.491146707
 10
596116.236576428
 20
-180245.840385353
 10
594413.110004267
 20
-177614.114803151
 10
593809.942501637
 20
-176063.94921042
 10
594357.854263306
 20
-175386.646128897
 10
594674.888890361
 20
-173977.936331172
 10
594874.647180776
 20
-170886.844670115
 10
594285.363455076
 20
-167788.031088965
 10
592275.676846079
 20
-166373.654081961
 10
590258.292286982
 20
-166038.135795986
 10
583421.608445843
 20
-163121.497721304
  0
LWPOLYLINE
  5
20011
100
AcDbEntity
  8
0
100
AcDbPolyline
 70
0
 90
133
 10
583421.608445843
 20
-163121.497721304
 10
582462.164871544
 20
-162446.363832401
 10
580913.314454051
 20
-160760.576641164
 10
579827.922880149
 20
-159864.743744739
 10
576786.294505871
 20
-158407.444343531
 10
575433.390970839
 20
-157255.78758835
 10
574881.471444854
 20
-155351.99298955
 10
574994.837676706
 20
-154470.620749375
 10
575239.283763313
 20
-153775.166134974
 10
575483.34727373
 20
-153242.118815505
 10
575595.494905609
 20
-152876.967973042
 10
575370.130026044
 20
-151919.393308379
 10
574412.45292974
 20
-150467.069760784
 10
573811.114593132
 20
-148058.553465091
 10
571947.880660021
 20
-144475.432528444
 10
571319.644321903
 20
-142733.897427307
 10
570922.16586791
 20
-139658.865575108
 10
570478.742548171
 20
-138915.40378955
 10
569206.395605092
 20
-137868.395554462
 10
568776.10769502
 20
-137994.993559276
 10
568102.312364506
 20
-138416.831900994
 10
567272.349149927
 20
-138559.900218781
 10
566373.522438967
 20
-137861.788004295
 10
566193.094625773
 20
-137136.347664619
 10
566478.003073382
 20
-136440.992408629
 10
566884.28205287
 20
-135763.320621789
 10
567088.25283634
 20
-135067.777623975
 10
566763.214163926
 20
-133442.982892462
 10
565243.291492613
 20
-132244.622234333
 10
564912.396942307
 20
-130956.228735668
 10
565239.233699725
 20
-129634.563508371
 10
566031.439306996
 20
-128337.182821441
 10
566975.042572868
 20
-127202.561007566
 10
567816.610074891
 20
-126438.912532727
 10
567816.610074891
 20
-126438.912532727
 10
567816.610074891
 20
-126438.912532727
 10
567816.610074891
 20
-126438.912532727
 10
567816.610074891
 20
-126438.912532727
 10
569091.19237999
 20
-126557.889977072
 10
569878.961463335
 20
-127168.741822571
 10
570418.729875699
 20
-127825.415626384
 10
570999.770771918
 20
-128139.981472464
 10
572224.299081081
 20
-128026.855271915
 10
574163.091944788
 20
-127509.412701297
 10
579390.2525398
 20
-126976.590038469
 10
581650.942796704
 20
-127254.584548857
 10
584152.925089813
 20
-128171.188156512
 10
585461.149940748
 20
-126915.712935488
 10
589175.166598123
 20
-122429.626487789
 10
590684.93710086
 20
-121534.279372298
 10
594619.284119569
 20
-120122.851008399
 10
598515.443236505
 20
-117800.795837737
 10
602175.635401533
 20
-118865.422475614
 10
603827.659286261
 20
-119797.516338257
 10
606177.820678729
 20
-120731.360169909
 10
612002.183275861
 20
-122207.53960529
 10
613445.952221836
 20
-123446.582811397
 10
616101.962545419
 20
-127437.937449157
 10
621021.38900306
 20
-132554.530359801
 10
624838.357936313
 20
-139425.877264151
 10
626452.311536566
 20
-141303.484024665
 10
628483.905457751
 20
-142074.347029969
 10
629839.764994078
 20
-142019.848415424
 10
630837.034080186
 20
-141744.021493259
 10
631713.710619029
 20
-141154.676546226
 10
632738.345009629
 20
-140084.302623334
 10
633761.658508126
 20
-139524.346997238
 10
634853.725520012
 20
-139759.200365069
 10
635950.18257113
 20
-140249.27728858
 10
636996.565978329
 20
-140542.022836484
 10
638807.439381375
 20
-140593.169120345
 10
640617.70253235
 20
-140876.335331181
 10
642487.563167126
 20
-141577.286725588
 10
644487.247646843
 20
-142916.618196136
 10
650775.576579556
 20
-148426.154901313
 10
653038.898868803
 20
-149505.260133488
 10
653736.425220349
 20
-147825.064477804
 10
655493.410562221
 20
-147203.36426501
 10
657424.305112388
 20
-147747.9934358
 10
658689.201243025
 20
-149520.484243974
 10
659872.067804959
 20
-147957.624225915
 10
661665.171557659
 20
-147080.857186436
 10
663577.573712318
 20
-146981.658432332
 10
665052.314346051
 20
-147844.11687471
 10
666267.512438377
 20
-147424.023443043
 10
667058.944223719
 20
-146585.157712595
 10
667385.997336674
 20
-145379.608087851
 10
667253.772790049
 20
-143789.986845611
 10
667671.136839612
 20
-144701.764848653
 10
669369.253290575
 20
-147113.519999768
 10
670326.056074385
 20
-143172.006360765
 10
671035.410646799
 20
-142756.345580662
 10
672548.873125404
 20
-144251.175571455
 10
673336.725941408
 20
-144717.370584198
 10
673864.342221005
 20
-144167.810660291
 10
674352.2147475
 20
-143357.132304397
 10
674970.359699016
 20
-142999.233302131
 10
675753.476250952
 20
-143349.417355107
 10
676444.890954775
 20
-143931.359341268
 10
677150.962318845
 20
-144698.95008555
 10
678345.72065097
 20
-144365.864367547
 10
679926.375124153
 20
-143517.642842721
 10
681103.294596402
 20
-142331.892107024
 10
680922.16149154
 20
-140173.714330507
 10
681358.73839334
 20
-137820.064201614
 10
681031.252968334
 20
-137343.533713748
 10
679984.714863361
 20
-137120.201758076
 10
679945.702654254
 20
-136598.078444687
 10
681036.80247345
 20
-135359.895280263
 10
682052.745824554
 20
-133866.303106692
 10
682344.430192984
 20
-132678.092472077
 10
682429.354741581
 20
-131257.300187536
 10
682850.036017199
 20
-129170.43958999
 10
683368.191538324
 20
-128406.280857441
 10
684057.115202771
 20
-128083.411056983
 10
684650.377490429
 20
-127597.870306893
 10
684921.975856466
 20
-126363.216575389
 10
684406.823457852
 20
-124256.342546038
 10
684258.151674081
 20
-123153.914588477
 10
684613.619955502
 20
-122679.309579877
 10
687283.194326402
 20
-121457.223237789
 10
693063.648226141
 20
-116856.799505094
 10
695683.819027003
 20
-117026.672880383
 10
696116.913664245
 20
-115954.913367655
 10
696760.671647126
 20
-115521.756290514
 10
697584.984270285
 20
-115640.116164144
 10
698519.232193918
 20
-116234.393374473
 10
698293.765776757
 20
-115468.149190608
 10
698109.869600027
 20
-114319.227013666
 10
697818.132212767
 20
-113726.794130443
 10
698957.535997717
 20
-113353.065112187
 10
700137.916929124
 20
-112805.461365587
 10
701212.393387043
 20
-112141.560187792
  0
LWPOLYLINE
  5
20012
100
AcDbEntity
  8
0
100
AcDbPolyline
 70
0
 90
16
 10
660682.336336873
 20
259353.554489839
 10
660631.588475235
 20
259324.753411809
 10
660580.817102907
 20
259287.269852421
 10
659490.325190107
 20
258885.079491803
 10
657938.731337816
 20
260356.457127533
 10
657257.172316373
 20
263159.492900409
 10
657633.504441309
 20
265545.801725775
 10
659178.086694022
 20
268964.81113644
 10
660943.134705685
 20
271448.495826054
 10
665344.695919304
 20
274474.680514801
 10
667049.096273812
 20
275126.833242397
 10
669571.136762992
 20
276430.631474692
 10
670842.104082117
 20
277931.685233798
 10
671303.358215061
 20
279816.85491953
 10
671629.520044971
 20
282327.294832405
 10
671958.061321563
 20
283859.780457043
  0
LWPOLYLINE
  5
20013
100
AcDbEntity
  8
0
100
AcDbPolyline
 70
0
 90
77
 10
728549.735886581
 20
427355.486653076
 10
729265.339583018
 20
424184.77805964
 10
727802.053434638
 20
423178.181205959
 10
722549.009631386
 20
421431.792120801
 10
721393.118029487
 20
419768.495442363
 10
720837.94775533
 20
417204.995921203
 10
719402.075973404
 20
415152.438730735
 10
717349.954312856
 20
413878.733720944
 10
714996.718282696
 20
413654.532883771
 10
713770.811260731
 20
414025.006197084
 10
712505.233835838
 20
414701.802204267
 10
711326.432534659
 20
415580.54719942
 10
710391.194253442
 20
416527.897753655
 10
708514.750351758
 20
416374.472104835
 10
707460.797606856
 20
416602.853074026
 10
707528.988479972
 20
417388.388790078
 10
707683.274849446
 20
418139.00360615
 10
706491.09493582
 20
417911.362859932
 10
704308.200191959
 20
416987.509874147
 10
701765.621871471
 20
414400.71429702
 10
700749.553493198
 20
413695.868711603
 10
698390.297093115
 20
413133.527612492
 10
696108.043180842
 20
412900.273887354
 10
695006.380964311
 20
412397.857600066
 10
694313.676393082
 20
411287.59580591
 10
693793.378028813
 20
410182.60300015
 10
691973.664346396
 20
408558.368000029
 10
691271.632792199
 20
405937.063522757
 10
690756.166160387
 20
402948.208463328
 10
690075.571111694
 20
400725.381680032
 10
686474.59668632
 20
396652.813352414
 10
684952.54111831
 20
394455.279930915
 10
684053.924079883
 20
390389.202218791
 10
683432.897318937
 20
389489.350150406
 10
682720.896073004
 20
388687.993331148
 10
682181.275346356
 20
387889.033823463
 10
681854.234427078
 20
386965.209338408
 10
681399.204917631
 20
383778.941346826
 10
680158.403742221
 20
378771.098678047
 10
676111.01997303
 20
368926.474625294
 10
672265.616282045
 20
362358.165721143
 10
667535.737387883
 20
356664.758191774
 10
665998.117421089
 20
354182.773200456
 10
664617.138504702
 20
349647.615484155
 10
661949.424960001
 20
343496.587053774
 10
660998.628763507
 20
338670.53984003
 10
661340.039978675
 20
333730.843165576
 10
663584.077483607
 20
329517.32481214
 10
665591.874176161
 20
327912.691801236
 10
667160.565503435
 20
326991.695529037
 10
668170.412262871
 20
325592.156770278
 10
668726.615620843
 20
321414.644625869
 10
669148.650606503
 20
320065.792792011
 10
669408.29229794
 20
318642.173210926
 10
669227.001556108
 20
317219.740525518
 10
668652.530924173
 20
316576.362570766
 10
666865.640610463
 20
315519.820297198
 10
666316.520666865
 20
314876.355671018
 10
665984.539789912
 20
312086.218824811
 10
666722.72733057
 20
309590.99200043
 10
668049.566906114
 20
307380.438738454
 10
669514.089346114
 20
305487.626613366
 10
670759.085816367
 20
303019.74706062
 10
672316.128647765
 20
297938.820840779
 10
674120.465120104
 20
296177.92503466
 10
675012.624709583
 20
296262.24095408
 10
676179.380780135
 20
296684.249383545
 10
677177.909117156
 20
296748.013483978
 10
677605.933674425
 20
295763.271981886
 10
677460.3417096
 20
294432.974211799
 10
677031.338209098
 20
293239.409634466
 10
676253.603516708
 20
292382.375426312
 10
675112.478221564
 20
292058.637244723
 10
673549.328716395
 20
291224.007905874
 10
672519.948980185
 20
289152.582792976
 10
671995.721322065
 20
286492.42194265
 10
671973.35997934
 20
283894.456435227
  0
LWPOLYLINE
  5
20014
100
AcDbEntity
  8
0
100
AcDbPolyline
 70
0
 90
57
 10
693706.456283705
 20
700930.045747646
 10
694560.388082483
 20
697758.570703502
 10
697965.285869353
 20
690242.46488335
 10
702044.880658716
 20
684431.998289529
 10
703435.161536269
 20
680734.40193833
 10
706177.15655826
 20
663555.42741416
 10
706413.771407328
 20
654115.262885683
 10
705615.853079737
 20
650217.558319039
 10
702195.461540866
 20
643241.252229685
 10
701398.403620421
 20
639607.629397595
 10
701606.212748538
 20
637750.121532508
 10
702600.217785267
 20
633990.071454486
 10
702798.508749743
 20
632356.987174723
 10
702963.423286984
 20
619130.574775852
 10
702694.703634416
 20
617446.573025338
 10
700350.361317871
 20
613925.199553259
 10
699695.870820018
 20
612190.303982914
 10
698393.009583722
 20
603754.259650589
 10
690336.488889839
 20
582658.06878066
 10
689629.722687716
 20
578527.575949096
 10
689091.52166938
 20
576589.553343352
 10
686173.144152559
 20
570796.069302982
 10
685456.308663656
 20
568463.413010935
 10
684803.705753611
 20
563703.397307013
 10
684832.102520441
 20
555741.110140497
 10
685098.243064418
 20
554765.918351368
 10
684993.788237338
 20
553699.49274203
 10
684078.43748455
 20
552917.866712911
 10
682859.024252051
 20
552249.518719476
 10
681867.806871686
 20
551545.92352773
 10
680583.760173811
 20
549525.507095885
 10
678715.238352685
 20
545283.558796769
 10
675560.503831378
 20
541846.519047335
 10
676050.933112237
 20
539422.903293585
 10
678269.429302421
 20
534548.890570072
 10
678658.411710399
 20
532142.582088998
 10
677907.473613057
 20
522943.998999362
 10
676422.877448008
 20
518044.411900392
 10
676088.437334299
 20
516334.725002958
 10
676243.533785453
 20
513729.348468084
 10
677482.712715601
 20
506975.075051988
 10
677468.057124231
 20
501695.142028997
 10
679084.616657257
 20
499362.138063863
 10
679276.065842853
 20
498899.932876238
 10
679917.026447038
 20
497758.380283345
 10
683080.347332004
 20
486321.97130385
 10
684627.150016002
 20
482681.194532366
 10
686510.331703849
 20
479645.389212611
 10
692473.433598205
 20
472118.07340993
 10
693053.116834844
 20
470875.189279864
 10
694063.283259078
 20
469428.990982213
 10
700889.356410676
 20
462371.397792208
 10
705790.152880867
 20
456048.969028759
 10
712971.508333191
 20
449343.868766275
 10
718955.432493462
 20
440807.733832109
 10
720734.566901081
 20
437134.864073851
 10
728549.735886581
 20
427355.486653076
  0
LWPOLYLINE
  5
20015
100
AcDbEntity
  8
0
100
AcDbPolyline
 70
0
 90
48
 10
693706.456283705
 20
700930.045747646
 10
692949.016762665
 20
702335.487578134
 10
692228.218148752
 20
702343.282625683
 10
691551.704403826
 20
701856.351438031
 10
690927.215375178
 20
701814.984920089
 10
690031.522237116
 20
702803.834145961
 10
689086.309150259
 20
704235.623823266
 10
688339.349949419
 20
705770.326050724
 10
688038.371411624
 20
707047.822967883
 10
687740.418095137
 20
709400.604908072
 10
684593.504826001
 20
718609.173920305
 10
683568.20317664
 20
720480.539320154
 10
682384.853375459
 20
722116.568787962
 10
681305.482923704
 20
722815.197472131
 10
680105.891683262
 20
724097.641587681
 10
679200.291891908
 20
727046.286948134
 10
678108.637693107
 20
732475.491596653
 10
675637.596437822
 20
738479.765018726
 10
675193.617073972
 20
743164.637333248
 10
674783.175047693
 20
745291.94329789
 10
674097.92674559
 20
747190.075732817
 10
673254.208780952
 20
748700.722800687
 10
666602.356017285
 20
757724.836366025
 10
665412.401284322
 20
760772.756928681
 10
665060.39411061
 20
765756.810775482
 10
664446.939322334
 20
767964.090991684
 10
662936.329475448
 20
768887.169437204
 10
661048.506721517
 20
769271.355649036
 10
659782.103513282
 20
770380.389595738
 10
658949.065932193
 20
772148.690303123
 10
658341.057676641
 20
774519.322766892
 10
657650.022448728
 20
780005.316954625
 10
657021.807461395
 20
782427.291432662
 10
655856.603785948
 20
783435.248887069
 10
655146.83714601
 20
783859.174465417
 10
654971.843271534
 20
784878.794858317
 10
654873.455748497
 20
786061.821989366
 10
654444.371163231
 20
787010.308825359
 10
651214.188113636
 20
790595.684673713
 10
650422.473449146
 20
792675.971483176
 10
649935.460851392
 20
794766.835701606
 10
649127.252092088
 20
796382.021131549
 10
647336.3715389
 20
797026.805749019
 10
646033.09074384
 20
797710.45977621
 10
645031.882743421
 20
799328.91211482
 10
643456.429570933
 20
802728.088081491
 10
641061.67432774
 20
805500.728532725
 10
639455.589536479
 20
806933.959530343
  0
LWPOLYLINE
  5
20016
100
AcDbEntity
  8
0
100
AcDbPolyline
 70
0
 90
240
 10
639455.589536479
 20
806933.959530343
 10
637386.008189725
 20
807851.853238885
 10
636676.906881155
 20
808571.051754323
 10
635208.952920164
 20
810411.239317547
 10
634438.575996118
 20
811007.175029488
 10
632622.840273648
 20
811915.681162977
 10
632055.279254664
 20
812390.561193241
 10
631661.941403016
 20
813467.496211206
 10
631287.799911283
 20
816079.250915014
 10
630645.92161868
 20
817280.100448781
 10
629540.659540279
 20
818005.892540968
 10
626977.615931473
 20
818649.351320403
 10
625963.560813395
 20
819300.284756709
 10
624458.325364027
 20
820520.457002038
 10
621009.441784516
 20
822330.717359282
 10
613976.852121095
 20
828951.36726913
 10
613190.739772668
 20
829392.160463843
 10
610566.645884216
 20
830058.386603615
 10
609662.880550196
 20
830166.760365213
 10
608723.891970652
 20
830407.146848913
 10
608090.516485745
 20
831002.400984387
 10
605257.702146341
 20
835586.513219066
 10
604601.710934398
 20
837314.458692551
 10
604353.2076363
 20
839517.329362737
 10
603594.698708845
 20
840872.620692723
 10
598624.623431862
 20
843901.21092676
 10
596499.221924055
 20
847111.793370548
 10
595171.145345293
 20
848210.1992766
 10
594649.613030138
 20
848879.451417816
 10
594176.029398721
 20
852558.627281288
 10
593509.141678303
 20
854033.665880901
 10
592567.724601763
 20
855411.860667978
 10
591547.218850355
 20
857695.956773991
 10
590843.669249103
 20
860827.535934719
 10
589121.986515278
 20
863044.254227545
 10
588440.654873164
 20
864874.328894075
 10
587969.575494932
 20
869646.801643901
 10
586933.924854047
 20
872013.274960387
 10
583692.227774718
 20
875917.750317593
 10
583011.686724804
 20
878111.123108052
 10
582700.391034268
 20
879644.591931127
 10
581923.842850753
 20
879927.195962872
 10
580983.824952684
 20
879826.298336326
 10
580172.000456873
 20
880229.303164045
 10
580091.898790567
 20
880725.103837713
 10
580288.218632418
 20
882108.307460723
 10
580177.528143933
 20
882558.325258611
 10
579011.930786841
 20
883735.585115396
 10
578697.991445547
 20
884166.014601368
 10
578190.898553981
 20
884548.199185079
 10
577096.267050737
 20
885667.940253222
 10
576377.658867043
 20
886835.454661199
 10
576988.543702097
 20
887378.242564304
 10
578258.816948104
 20
887489.815617497
 10
579021.81614992
 20
887909.064453235
 10
579379.474629788
 20
888776.094355255
 10
579484.469900235
 20
890207.94922781
 10
579159.510352285
 20
892422.656180705
 10
578265.593693593
 20
894650.049670545
 10
576999.609249367
 20
896371.323625817
 10
574634.998230626
 20
897551.013632377
 10
574536.064823817
 20
898688.106705835
 10
574671.301299807
 20
900027.928336031
 10
574541.670641442
 20
901073.39780936
 10
573872.819696514
 20
901819.454759523
 10
572209.79610709
 20
903240.702633539
 10
571643.220688371
 20
904278.524622649
 10
571848.712698208
 20
905251.525919271
 10
572653.089111188
 20
905965.424937346
 10
573234.087307555
 20
906745.68285396
 10
572405.97432326
 20
908914.894621367
 10
573216.089679609
 20
914237.657731306
 10
573573.361436977
 20
914932.411550964
 10
574057.179296682
 20
915426.48394222
 10
574577.579428027
 20
916352.687096988
 10
575153.506830169
 20
917124.172904088
 10
575866.61526782
 20
917895.320031281
 10
576107.347761792
 20
918719.084257412
 10
575235.615331321
 20
919631.316979344
 10
575237.500872738
 20
920432.713093503
 10
576020.177473016
 20
920536.768477238
 10
576467.684361852
 20
920707.439486103
 10
576864.498709406
 20
920926.884120777
 10
577423.904326084
 20
921148.805766245
 10
575444.077174771
 20
921854.674673392
 10
574590.58196292
 20
921885.30211936
 10
574592.633421309
 20
922758.203411048
 10
576027.952018574
 20
923836.631006055
 10
575338.786521191
 20
924610.955236605
 10
573902.698232557
 20
925369.846249473
 10
573117.495351905
 20
926361.851843948
 10
573125.169085221
 20
929635.499351955
 10
572898.493195417
 20
930474.436741466
 10
571919.599521644
 20
931212.109010458
 10
570852.216745942
 20
935400.58206081
 10
564631.785889958
 20
943662.704258126
 10
565802.952605762
 20
944738.395812753
 10
564578.386885988
 20
946943.700188609
 10
562501.030241116
 20
949536.959060073
 10
561159.525522826
 20
951736.537097899
 10
561026.083391321
 20
953372.697295694
 10
561141.928592032
 20
955139.766348207
 10
561044.066636608
 20
956781.427984615
 10
560335.598724278
 20
958064.127022999
 10
559075.621427394
 20
958167.0930145
 10
557753.03443642
 20
957555.318970099
 10
556853.744678103
 20
957614.559020954
 10
556843.350801743
 20
959744.874278688
 10
554126.667932806
 20
958358.504730983
 10
552696.841335453
 20
962004.548913431
 10
552377.699542808
 20
966945.693557866
 10
552932.130190414
 20
969425.859020078
 10
554630.796948511
 20
970028.049286292
 10
554395.014860407
 20
971377.84160973
 10
553635.81251966
 20
972731.631587618
 10
553688.021698413
 20
973346.075148248
 10
555554.76141915
 20
974099.312332296
 10
555447.032019446
 20
975891.702668925
 10
553346.769586198
 20
979743.446288171
 10
554109.836119727
 20
980084.670797392
 10
556181.187204462
 20
981400.306567744
 10
555538.516600799
 20
982607.750893635
 10
555063.238563705
 20
985917.953027304
 10
554074.859810548
 20
987077.463588661
 10
554793.591731847
 20
990267.436615736
 10
555328.598804772
 20
990874.796783489
 10
556041.0758969
 20
991301.746292819
 10
556652.28180149
 20
991891.772338697
 10
557243.932861399
 20
995050.21019161
 10
557781.295295047
 20
996683.058705544
 10
557886.772265554
 20
998362.529161769
 10
556936.331394057
 20
1000575.63234138
 10
556545.269626979
 20
1000699.34935469
 10
555238.615419431
 20
1000488.08674693
 10
554816.987354697
 20
1000580.44936984
 10
554716.479588053
 20
1001083.40584821
 10
554923.158033209
 20
1002573.94388995
 10
554822.598791177
 20
1003054.02386507
 10
551793.514528943
 20
1005328.66929834
 10
551271.218146302
 20
1005861.07324092
 10
550933.484066826
 20
1007101.33582769
 10
549422.800577253
 20
1008841.11067911
 10
549079.547882182
 20
1009892.80770764
 10
549428.5100401
 20
1011382.69155848
 10
550015.737253872
 20
1012594.99560111
 10
550134.801095559
 20
1013557.03274325
 10
549089.484562451
 20
1014318.92865853
 10
549078.434255278
 20
1013924.9047147
 10
549137.57978339
 20
1013102.39613562
 10
549085.907488818
 20
1012725.58358513
 10
548440.415669555
 20
1012727.03186808
 10
548489.347833598
 20
1014148.94942544
 10
548802.701940965
 20
1015624.47363065
 10
549298.927776321
 20
1017050.99017791
 10
549876.096816187
 20
1018305.96332899
 10
551900.5121122
 20
1021213.51013549
 10
552707.495554885
 20
1022938.86156543
 10
552670.781060108
 20
1024686.02135529
 10
552062.918081227
 20
1025609.43020372
 10
551351.978139503
 20
1025905.05326155
 10
550589.718276116
 20
1025983.84299662
 10
549894.04832898
 20
1026290.84306974
 10
545761.155824959
 20
1030633.0068519
 10
544889.711243931
 20
1031905.04312252
 10
544151.115811992
 20
1033490.67692458
 10
545465.073936627
 20
1034623.61418177
 10
546525.234477503
 20
1035911.18364904
 10
546955.54627662
 20
1037399.87103687
 10
546359.625207516
 20
1039141.90621064
 10
545585.201739916
 20
1038344.63318965
 10
545020.123759299
 20
1040246.34715146
 10
545171.483268775
 20
1044297.70573712
 10
544957.428133972
 20
1046329.57352152
 10
544502.089307717
 20
1047300.59413383
 10
543259.701348851
 20
1048667.02897404
 10
542778.85213386
 20
1049600.95690824
 10
542663.516171362
 20
1050314.39234146
 10
542783.998177021
 20
1051920.15710386
 10
542785.922323815
 20
1052787.32464997
 10
542398.531579796
 20
1054608.03639053
 10
541193.931611239
 20
1056992.35121671
 10
540663.217062749
 20
1058376.80626
 10
540449.047982966
 20
1060379.38062428
 10
540737.908720057
 20
1062269.51676611
 10
541336.134155566
 20
1063822.37647189
 10
542095.826123742
 20
1064824.46206581
 10
542737.042140843
 20
1065125.30588233
 10
544456.013255966
 20
1065426.60147882
 10
545000.395857551
 20
1065616.44086955
 10
546850.551589595
 20
1067745.18155777
 10
547074.670776426
 20
1067938.57080161
 10
547243.882969611
 20
1068585.43981931
 10
547527.829152339
 20
1070523.62413292
 10
547793.688601881
 20
1071193.03789695
 10
548369.131854747
 20
1071625.11028034
 10
549844.662816824
 20
1072163.49255085
 10
550644.066121411
 20
1072711.93447412
 10
551796.123826673
 20
1074086.32568961
 10
552225.950193732
 20
1075316.90229617
 10
552793.864049218
 20
1079158.23525357
 10
553795.146518312
 20
1081285.19690596
 10
555206.044895312
 20
1082436.34739521
 10
556707.951576481
 20
1083359.23619595
 10
557905.993052503
 20
1084795.79044774
 10
557180.912409362
 20
1085652.43577003
 10
557436.624715291
 20
1086313.03351631
 10
558088.942286106
 20
1086989.81418134
 10
558558.78002684
 20
1087906.37786075
 10
558576.149436585
 20
1095514.40253318
 10
558341.1389757
 20
1097247.18672028
 10
557696.852778287
 20
1097875.43641274
 10
556782.473327494
 20
1098233.63904009
 10
555737.140422209
 20
1099139.11869289
 10
554462.505302299
 20
1102070.53159622
 10
555634.534263852
 20
1103213.00667212
 10
557568.498991132
 20
1104023.28198039
 10
558599.953194427
 20
1105940.7543565
 10
559129.669805229
 20
1108568.45372579
 10
560318.015458017
 20
1110152.10166434
 10
561713.926712916
 20
1111333.64473849
 10
562825.619244677
 20
1112737.9209048
 10
563993.632361638
 20
1116511.18680645
 10
564911.895146086
 20
1117810.34125539
 10
566804.593986982
 20
1118304.25041209
 10
568250.035338989
 20
1118884.59535594
 10
569427.809595221
 20
1120248.52652741
 10
570463.731105196
 20
1121831.95230746
 10
571503.946363288
 20
1123070.81378966
 10
573265.551842133
 20
1124017.55931967
 10
575183.612917538
 20
1124457.16590522
 10
587930.124382949
 20
1123834.72647835
 10
601223.642850702
 20
1120286.35324702
 10
605681.71714764
 20
1119734.39360934
 10
613970.002370865
 20
1119713.73703436
 10
615572.678909383
 20
1120088.38694659
 10
616906.825084643
 20
1120845.21568942
 10
618423.660611215
 20
1121453.51090553
 10
620635.364608993
 20
1121362.49922048
 10
625242.847271295
 20
1119591.23403177
 10
637797.305510428
 20
1111756.59325908
  0
LWPOLYLINE
  5
20017
100
AcDbEntity
  8
0
100
AcDbPolyline
 70
0
 90
115
 10
637797.305510428
 20
1111756.59325908
 10
654258.870221655
 20
1106936.96751092
 10
658935.06610075
 20
1106326.28535604
 10
661144.809373774
 20
1105565.52169729
 10
662081.481182105
 20
1104096.0635066
 10
662907.763561814
 20
1103173.76259401
 10
664806.872116599
 20
1102251.37053579
 10
666940.409958091
 20
1101533.40513673
 10
668464.985422907
 20
1101250.07552683
 10
673093.703081706
 20
1101915.3652579
 10
677857.776557768
 20
1103711.04734574
 10
682207.115391565
 20
1106271.04897737
 10
685611.956369962
 20
1109243.55520874
 10
688623.783847646
 20
1113464.18537362
 10
690029.62656078
 20
1116136.96117842
 10
690620.723852415
 20
1118384.73375752
 10
690947.880306622
 20
1118995.97425072
 10
692426.828993999
 20
1120529.27550513
 10
692765.371906349
 20
1121567.50416805
 10
692463.356780233
 20
1122655.91235845
 10
691045.020616149
 20
1124584.40970874
 10
690642.082209725
 20
1125951.98364804
 10
691065.496324846
 20
1128233.75649568
 10
693605.805242364
 20
1131038.79879991
 10
694538.211695967
 20
1133475.32236461
 10
695352.858557776
 20
1133834.45723401
 10
697478.832029487
 20
1133965.01706566
 10
698268.61144055
 20
1134517.7358768
 10
699920.906059775
 20
1137936.56635623
 10
701908.091047497
 20
1139308.16683356
 10
704081.537422554
 20
1140013.31373114
 10
708913.407664648
 20
1140300.98861188
 10
711127.291990691
 20
1140912.03437601
 10
720771.706902457
 20
1148716.46933524
 10
722798.082198966
 20
1149512.7186593
 10
725367.097599287
 20
1149795.28047712
 10
726523.802724979
 20
1150568.44740687
 10
727637.849973732
 20
1152385.66754382
 10
729327.51478988
 20
1156220.50111335
 10
731728.033318247
 20
1159654.62199741
 10
738700.505065798
 20
1164695.43299946
 10
742154.178115783
 20
1168182.27239779
 10
745295.565247269
 20
1172636.21964934
 10
746666.254490495
 20
1175142.14175806
 10
747525.788802997
 20
1178470.86663468
 10
748255.80610075
 20
1179355.42407384
 10
749284.873890906
 20
1179900.82147041
 10
750404.378949759
 20
1180082.13262537
 10
751244.9362612
 20
1180520.08736495
 10
751894.163576284
 20
1181589.56121074
 10
754014.368263026
 20
1187957.12666174
 10
754858.919634164
 20
1189679.26684538
 10
756158.144579973
 20
1190394.11044016
 10
756909.258877157
 20
1191499.87340815
 10
758401.326735049
 20
1196992.50768669
 10
758677.529307585
 20
1199127.80458143
 10
758226.107080285
 20
1201182.84836923
 10
756288.259698226
 20
1204520.41694287
 10
755623.351401924
 20
1206635.41719814
 10
754663.524847159
 20
1208790.94388593
 10
754438.370338938
 20
1210007.00831131
 10
754569.45055755
 20
1211275.87890717
 10
755075.597686374
 20
1213753.09649662
 10
755100.29743449
 20
1215164.10766431
 10
754865.270643469
 20
1216479.33154142
 10
753751.714966213
 20
1219937.68265741
 10
753583.173393098
 20
1221371.7291512
 10
753767.596001984
 20
1225095.19830503
 10
753408.868827682
 20
1227545.64533396
 10
752303.897793875
 20
1228854.52678019
 10
750514.828801149
 20
1229379.35845247
 10
743179.007871596
 20
1229336.4677081
 10
740612.358631542
 20
1230118.98618734
 10
739515.086388721
 20
1232318.71636775
 10
739804.224270128
 20
1237093.24702227
 10
740258.399415497
 20
1239239.58011994
 10
740967.215804884
 20
1241472.9411802
 10
743492.952644122
 20
1245606.79391545
 10
754582.1220204
 20
1256647.33563073
 10
760737.665706819
 20
1264637.48759233
 10
764462.85854611
 20
1268169.12727587
 10
768208.528636896
 20
1270084.758681
 10
769241.491925944
 20
1270115.52669362
 10
771489.639117648
 20
1269876.04239429
 10
772477.329327481
 20
1270071.32759943
 10
773732.031261322
 20
1271036.66744521
 10
780582.431012951
 20
1281210.60232209
 10
782118.734200611
 20
1284288.11422714
 10
783253.737987692
 20
1285975.7177546
 10
783983.603921247
 20
1286673.07652608
 10
787687.250341912
 20
1288043.53770873
 10
789148.402017495
 20
1289865.81498678
 10
793338.340446085
 20
1292103.98809876
 10
794664.408503418
 20
1293048.47348612
 10
796907.937445181
 20
1297586.44912161
 10
797532.671847375
 20
1301916.65767339
 10
797618.459925276
 20
1322006.51668493
 10
797398.107199544
 20
1323102.2126015
 10
796438.702703484
 20
1325416.82511282
 10
796208.953471457
 20
1326755.72187004
 10
796385.754091589
 20
1329479.35594111
 10
796877.34547122
 20
1331972.61010956
 10
800108.259850632
 20
1339518.90367781
 10
800584.212795128
 20
1341881.2913978
 10
801268.098832434
 20
1351793.68006028
 10
803382.577019883
 20
1360237.13587924
 10
804993.721531301
 20
1364167.93106962
 10
807010.430833739
 20
1367585.51080579
 10
809072.021152472
 20
1372245.39355155
 10
809854.490162101
 20
1377976.26233261
 10
809594.034263149
 20
1383878.85219889
 10
808516.647717827
 20
1389043.31426375
 10
805316.400468804
 20
1398842.33651593
 10
805105.906682082
 20
1404497.81550022
 10
807930.359848803
 20
1408841.70976568
  0
LWPOLYLINE
  5
20018
100
AcDbEntity
  8
0
100
AcDbPolyline
 70
0
 90
106
 10
807930.359848803
 20
1408841.70976568
 10
807688.280314274
 20
1412622.44286491
 10
805823.536482859
 20
1421469.95984404
 10
806023.570522753
 20
1432751.75325162
 10
805104.15171089
 20
1434947.58640883
 10
805310.389090641
 20
1438830.40627508
 10
805971.159427683
 20
1443131.01112486
 10
807206.527054038
 20
1447192.41028074
 10
809986.765584474
 20
1451864.9622131
 10
810553.471941307
 20
1453862.86166408
 10
811185.537560731
 20
1460219.6408184
 10
813100.843387909
 20
1466576.3141219
 10
813830.860866851
 20
1474798.56395171
 10
808876.954539375
 20
1498205.81581975
 10
808832.866935949
 20
1500278.22247919
 10
809270.949464651
 20
1501851.25028266
 10
809887.10041957
 20
1503367.36835396
 10
810377.238252709
 20
1505277.37484594
 10
810409.887658686
 20
1507450.16824201
 10
810010.045802728
 20
1509747.88161384
 10
808597.912195115
 20
1513962.54496872
 10
808963.587255538
 20
1516737.65937966
 10
813392.25052728
 20
1523696.23367766
 10
814725.997230385
 20
1526551.35921469
 10
814682.849491649
 20
1528893.97098658
 10
813923.540481833
 20
1530309.1763596
 10
812847.4054629
 20
1531416.43911494
 10
811894.563485784
 20
1532843.37546359
 10
810997.322419689
 20
1538762.47463945
 10
810146.83143991
 20
1540345.87580527
 10
809538.429363171
 20
1541204.11476064
 10
808831.486602171
 20
1543073.20946521
 10
808314.71266751
 20
1543917.01807738
 10
807501.485145625
 20
1544453.01649192
 10
805861.924740391
 20
1544640.86035021
 10
805134.931816456
 20
1545069.8932912
 10
799775.324096992
 20
1549446.0976772
 10
795840.545232605
 20
1553429.60884509
 10
794877.427102242
 20
1554886.16640039
 10
794246.600541707
 20
1556711.90053477
 10
793393.709424874
 20
1560754.37367338
 10
790445.225064906
 20
1565795.8129204
 10
789857.655839964
 20
1569998.62230622
 10
790608.68193647
 20
1578569.74361224
 10
791619.868238936
 20
1582496.21847051
 10
794431.461022873
 20
1590179.44997554
 10
795005.224195414
 20
1594296.00925813
 10
794299.771024596
 20
1596707.39676558
 10
792635.299815921
 20
1597180.57088408
 10
790617.530761585
 20
1597111.45649848
 10
788887.773732385
 20
1597881.71768513
 10
787810.777967363
 20
1598848.71192809
 10
784887.780912957
 20
1600891.46315055
 10
783567.186134699
 20
1602167.16269421
 10
780691.506825562
 20
1606292.78362741
 10
780018.448451631
 20
1607731.32215421
 10
779744.768834398
 20
1609790.04079036
 10
779938.4997184
 20
1614632.39410091
 10
779662.55881108
 20
1615982.41581754
 10
770566.213174079
 20
1623640.00227235
 10
767834.486960655
 20
1626698.32258349
 10
765990.206758463
 20
1630044.39125179
 10
764931.315203443
 20
1633622.48885329
 10
764433.664990605
 20
1637441.60749038
 10
764329.217604797
 20
1641532.91744879
 10
764053.694072054
 20
1643054.78691838
 10
762588.179169363
 20
1646995.63993375
 10
761042.506518794
 20
1649753.78882236
 10
760071.957561975
 20
1653935.13546181
 10
759379.352567327
 20
1655725.77942271
 10
755009.88435918
 20
1661640.37198825
 10
753088.782732641
 20
1665006.91137291
 10
751546.170085736
 20
1672161.54233863
 10
748138.382108458
 20
1679395.09144392
 10
747283.260903107
 20
1683099.1538935
 10
747599.3822215
 20
1686486.49730535
 10
749880.286054914
 20
1694035.88521374
 10
751251.052544625
 20
1697273.36888363
 10
751770.535100197
 20
1700468.38093678
 10
750032.653613191
 20
1707194.63076708
 10
749502.590600341
 20
1710542.05112822
 10
749941.590829562
 20
1714086.73221012
 10
751024.971759713
 20
1718320.0927832
 10
752525.585128105
 20
1722295.03364157
 10
754216.196455092
 20
1725048.36409038
 10
762602.217202168
 20
1733468.70961609
 10
764626.964340827
 20
1737055.03206544
 10
765938.82358847
 20
1740879.66877073
 10
766785.025273906
 20
1742500.21295875
 10
768201.992300768
 20
1744054.82164106
 10
773729.519074761
 20
1747745.31561345
 10
775065.783858945
 20
1749550.27228863
 10
775549.147142097
 20
1752476.52054381
 10
774705.035392881
 20
1759618.92492844
 10
774750.930598861
 20
1762851.23272502
 10
776503.207012984
 20
1770424.28340757
 10
780545.425698934
 20
1781384.05916658
 10
781424.098861743
 20
1785121.89014623
 10
782036.364204787
 20
1793252.1095835
 10
781371.159719072
 20
1797317.80649484
 10
778425.849939361
 20
1804344.31610919
 10
777749.224088112
 20
1808052.67906947
 10
778286.038468927
 20
1811709.38573131
 10
780776.858689025
 20
1818866.63203044
 10
781693.170233251
 20
1824772.78640068
 10
782258.16329741
 20
1826041.36541458
  0
LWPOLYLINE
  5
20019
100
AcDbEntity
  8
0
100
AcDbPolyline
 70
0
 90
160
 10
655534.321626051
 20
3393799.19893978
 10
655239.227687149
 20
3394767.67337123
 10
654645.974214853
 20
3395550.77434697
 10
653605.510540522
 20
3396067.07155867
 10
649500.860042254
 20
3396482.26441132
 10
648116.722531473
 20
3397073.81200892
 10
645915.055257397
 20
3399053.90762685
 10
643044.63666057
 20
3400450.13503244
 10
640457.514331744
 20
3402252.00362401
 10
639186.032397462
 20
3402766.01041504
 10
637761.832466461
 20
3403766.25130642
 10
636920.722222805
 20
3403996.47532036
 10
635996.383764544
 20
3403795.59261251
 10
634531.205743036
 20
3402837.51284168
 10
633724.693611685
 20
3402549.52382235
 10
631569.200898141
 20
3402579.83715183
 10
629707.618890096
 20
3403147.34790228
 10
628411.848773432
 20
3404211.61853723
 10
627917.845732854
 20
3405719.84965411
 10
627805.578941789
 20
3407992.55009504
 10
627490.058037899
 20
3409051.31983666
 10
626823.976911901
 20
3409498.95831777
 10
626696.313137539
 20
3409754.45418751
 10
625465.754072532
 20
3410240.64723783
 10
624280.925778022
 20
3410545.86301944
 10
623286.019068416
 20
3410860.49426412
 10
622978.240520388
 20
3410928.15187545
 10
622263.273916277
 20
3412349.20979302
 10
622060.556531539
 20
3413375.02396726
 10
622089.075597067
 20
3414509.09842325
 10
621937.41963029
 20
3415430.56739245
 10
621153.092245296
 20
3415811.34996543
 10
618331.695314514
 20
3416420.03721474
 10
615031.637085738
 20
3414440.10686855
 10
613124.243839493
 20
3415212.43477453
 10
612445.176785687
 20
3416650.08500822
 10
613141.532783814
 20
3418042.03124988
 10
618010.067569168
 20
3419161.02650277
 10
617330.254660524
 20
3420293.72526237
 10
614332.026957836
 20
3422058.06999315
 10
614037.935781366
 20
3423508.59860063
 10
614339.26306555
 20
3424967.32217098
 10
614804.485017125
 20
3426281.97589804
 10
615063.679601094
 20
3427307.63871095
 10
614861.032763091
 20
3428378.84959137
 10
614340.340085368
 20
3429527.3750538
 10
612908.788398564
 20
3431805.20995306
 10
613701.604558758
 20
3432749.87583536
 10
614464.16370721
 20
3433909.51900215
 10
614980.761139631
 20
3435235.18203114
 10
615087.06838473
 20
3436700.03237453
 10
614240.758410641
 20
3436956.59617791
 10
613444.8378045
 20
3436835.05117926
 10
612767.203777564
 20
3436804.61740914
 10
612214.157151267
 20
3437337.12476404
 10
611918.523933253
 20
3438177.73392999
 10
611935.954093541
 20
3438997.73509472
 10
612466.359437938
 20
3439683.03034397
 10
613658.256972955
 20
3440094.97775688
 10
613660.140470547
 20
3440853.11826748
 10
611506.420194102
 20
3441735.0669512
 10
610201.934479315
 20
3443540.64376444
 10
609540.657562071
 20
3445986.01918305
 10
609320.286344695
 20
3450292.45242546
 10
609067.192803069
 20
3451741.0987856
 10
608515.51824403
 20
3452847.44498622
 10
607556.666635983
 20
3453288.80424833
 10
607039.836520984
 20
3453955.93463305
 10
607782.557137552
 20
3455384.31552921
 10
608833.029047669
 20
3456705.71273614
 10
609388.349018197
 20
3457074.13866919
 10
608956.050190609
 20
3458714.45715909
 10
607862.687290758
 20
3458741.79823511
 10
606439.785227579
 20
3458363.24122948
 10
605029.176145867
 20
3458810.37568062
 10
604836.838724169
 20
3459927.33889446
 10
605599.927817806
 20
3461285.78607536
 10
606639.76838501
 20
3462453.64179136
 10
607246.886788357
 20
3463006.50282834
 10
610020.52707459
 20
3463620.50692649
 10
611346.341884626
 20
3464166.58660623
 10
611487.307701031
 20
3465119.53196613
 10
610487.817786109
 20
3465752.55451524
 10
608998.895046915
 20
3465682.33927971
 10
605763.3687949
 20
3465133.63426108
 10
608205.292796637
 20
3466538.92578628
 10
608694.441593164
 20
3467128.77599496
 10
609045.974073959
 20
3468120.30506073
 10
609120.699114203
 20
3469277.37494838
 10
608727.772487906
 20
3470238.51149102
 10
607599.342692983
 20
3470640.09986427
 10
605264.538840995
 20
3471064.31776011
 10
605585.410442269
 20
3472117.05090023
 10
607005.62552679
 20
3473459.83171033
 10
607932.929101814
 20
3474769.17680504
 10
607423.627978612
 20
3476428.7731516
 10
604936.444352811
 20
3479640.01803819
 10
604722.235181999
 20
3480218.48313971
 10
605981.727375429
 20
3480903.96171128
 10
604907.292492474
 20
3482411.42441626
 10
603114.003030862
 20
3483885.98273993
 10
602216.98507925
 20
3484473.22678541
 10
601921.310448123
 20
3485334.25686913
 10
602263.791407015
 20
3486825.25897898
 10
602225.204553713
 20
3487845.17026199
 10
601755.278667946
 20
3488834.08221166
 10
600306.336316746
 20
3490483.65315269
 10
599999.411353523
 20
3490946.22215581
 10
599246.870611996
 20
3491844.61042183
 10
594282.447710141
 20
3494108.67930458
 10
589460.066046607
 20
3499994.69694591
 10
588624.898918706
 20
3500720.61467178
 10
587470.465039884
 20
3501054.63214074
 10
586855.046075493
 20
3501350.54698465
 10
585687.577229657
 20
3502685.59607185
 10
584897.767968601
 20
3503060.37334195
 10
584086.410981446
 20
3503008.32037686
 10
583675.006897827
 20
3502732.06615363
 10
583335.461096189
 20
3502445.82022641
 10
582811.595964359
 20
3502378.35924901
 10
582790.942025374
 20
3502329.33875317
 10
580978.631455078
 20
3502382.67620929
 10
580995.390860469
 20
3502959.18275401
 10
580365.153953437
 20
3505695.70240392
 10
579884.544908536
 20
3506560.10234293
 10
579165.723258517
 20
3506561.78837317
 10
579163.975633477
 20
3505816.24404363
 10
578506.769486922
 20
3505817.78372174
 10
578266.163560107
 20
3506122.45987198
 10
578230.50919978
 20
3506245.16611259
 10
578138.308144708
 20
3506338.57391876
 10
577728.079943779
 20
3506565.15415982
 10
577729.5478657
 20
3507192.93426551
 10
578938.557176435
 20
3508219.9693797
 10
579851.081755894
 20
3509804.09026547
 10
580461.462617919
 20
3511721.98919265
 10
580681.905380161
 20
3513760.48049967
 10
580571.408523118
 20
3514809.47928506
 10
580265.196975373
 20
3515604.02536317
 10
579794.294260895
 20
3516237.20340864
 10
579189.681467572
 20
3516782.46299678
 10
578769.259398784
 20
3517048.00840322
 10
577882.007092936
 20
3517495.9008825
 10
577420.780266344
 20
3517879.08947477
 10
576600.129841493
 20
3518265.5503238
 10
575998.361515341
 20
3517833.42192152
 10
575657.88624185
 20
3517153.25992176
 10
575595.42551903
 20
3516790.86212369
 10
574646.244620258
 20
3517106.62336723
 10
573954.249015707
 20
3517617.73048765
 10
573534.855639392
 20
3518329.01724161
 10
573383.042364197
 20
3519289.42958345
 10
572943.871078769
 20
3520331.21782253
 10
571979.580935959
 20
3520781.55847158
 10
571004.456125928
 20
3520989.49485525
 10
570584.160240029
 20
3521316.11819097
 10
570656.6500815
 20
3523800.81607588
 10
570455.767870836
 20
3525754.42820511
 10
569457.237428073
 20
3526955.82827016
 10
567722.216816757
 20
3527204.51559126
  0
LWPOLYLINE
  5
2001A
100
AcDbEntity
  8
0
100
AcDbPolyline
 70
0
 90
168
 10
645915.055257397
 20
3399053.90762685
 10
644754.577121827
 20
3400792.82931512
 10
642769.333559055
 20
3403128.57253219
 10
642336.118161998
 20
3404294.77584612
 10
642317.894841859
 20
3407154.86868355
 10
642014.127034265
 20
3408761.27866933
 10
641246.079954454
 20
3409461.93422203
 10
641617.098747852
 20
3413983.70604236
 10
641578.6881537
 20
3415003.97906519
 10
640442.315089871
 20
3416182.96674952
 10
637716.139567481
 20
3417873.36484127
 10
636559.840547777
 20
3419299.5367919
 10
638868.318656086
 20
3418828.27783449
 10
639833.288013467
 20
3418840.63075987
 10
640932.836775872
 20
3419288.22756585
 10
641899.828690034
 20
3420077.66152437
 10
641993.837558365
 20
3420701.02819605
 10
641713.071359263
 20
3421290.68767387
 10
641596.832235863
 20
3421988.75008103
 10
641579.322281499
 20
3423151.61910805
 10
641333.871016531
 20
3423506.02504752
 10
641426.131744475
 20
3423456.30737646
 10
642385.735477517
 20
3423372.17593442
 10
643221.324041115
 20
3422969.22305165
 10
643563.409560121
 20
3422275.58983882
 10
643845.32069694
 20
3422126.40438344
 10
644541.474332159
 20
3423366.55978922
 10
644899.20296462
 20
3424733.58959211
 10
644840.10887411
 20
3425690.9556896
 10
644986.041546864
 20
3426538.87694724
 10
645989.64873513
 20
3427574.89123596
 10
646966.143831108
 20
3428054.52146441
 10
648727.410281202
 20
3428321.89407724
 10
649586.085905444
 20
3428888.32254207
 10
649705.584948738
 20
3429436.88164029
 10
649563.737727082
 20
3430149.26050443
 10
649539.685747646
 20
3430762.39806971
 10
649976.655572582
 20
3431018.33231531
 10
650089.878086736
 20
3431131.74270853
 10
651733.922964878
 20
3431705.81730389
 10
654680.566786439
 20
3433774.07253209
 10
654682.223869585
 20
3434399.26675
 10
654083.665776629
 20
3435154.4963792
 10
653881.108248036
 20
3436197.68155786
 10
654073.775855743
 20
3437234.76766083
 10
654691.718910238
 20
3437981.61234976
 10
655281.708041387
 20
3437863.95063057
 10
655973.004052489
 20
3437237.14194875
 10
656911.160391546
 20
3436789.97891136
 10
658267.422007916
 20
3437218.68636238
 10
657131.365676057
 20
3438525.96015046
 10
657404.554345398
 20
3440881.32405507
 10
659008.142693538
 20
3445501.11485736
 10
659184.801454477
 20
3448222.68840296
 10
657949.79392724
 20
3452868.70052744
 10
657608.014992481
 20
3455606.82089711
 10
657384.147187838
 20
3456359.39576407
 10
656891.898496011
 20
3456570.26204888
 10
656409.522047973
 20
3456633.17779736
 10
656179.370914048
 20
3456954.27792756
 10
655467.266744532
 20
3459433.42819897
 10
655067.861249378
 20
3463684.99714301
 10
654069.18754294
 20
3464581.85727654
 10
653557.719965148
 20
3465297.53603995
 10
653277.262595748
 20
3466012.54823016
 10
653817.424016045
 20
3466439.65643816
 10
656206.074609836
 20
3467007.13843658
 10
656910.329266991
 20
3467362.3445607
 10
657362.186986494
 20
3467398.08079673
 10
657578.552896451
 20
3467680.69318116
 10
657643.040926289
 20
3468763.94930718
 10
657407.927467146
 20
3469153.59369406
 10
656829.19823265
 20
3469672.15938827
 10
656137.474081667
 20
3470171.30029008
 10
655496.677830437
 20
3470517.6515213
 10
656292.713672554
 20
3470633.7003383
 10
656729.515871056
 20
3470797.47244562
 10
657089.431216514
 20
3471005.75526041
 10
657649.529171665
 20
3471201.19132405
 10
656235.470387003
 20
3472275.6707818
 10
656596.957288608
 20
3473074.59356369
 10
657676.956692029
 20
3473790.3278793
 10
658367.149358472
 20
3474639.91807465
 10
658283.264594143
 20
3475912.22094741
 10
657797.669529417
 20
3476708.17035613
 10
657430.142070285
 20
3477501.27627579
 10
657669.671412217
 20
3478767.41487888
 10
658534.893336396
 20
3479790.70417272
 10
659665.109408592
 20
3480072.96620862
 10
660897.617521945
 20
3480209.8482346
 10
662059.52372781
 20
3480821.52131964
 10
662302.004637868
 20
3481263.49069141
 10
662992.501396027
 20
3484125.86710868
 10
663527.127195704
 20
3484382.5387393
 10
664210.230319023
 20
3484486.40141485
 10
664863.462702788
 20
3484936.92349875
 10
665615.561707104
 20
3485876.25746641
 10
666336.179159967
 20
3486562.4551713
 10
667241.27379698
 20
3487117.86011892
 10
668531.432577344
 20
3487674.6438319
 10
669250.564329672
 20
3487807.84584839
 10
671791.551797746
 20
3487665.80045579
 10
672356.978541974
 20
3487914.90013443
 10
672538.295227654
 20
3488511.48638989
 10
672586.408804918
 20
3489211.58468586
 10
672844.684388855
 20
3489788.22537204
 10
676844.031873316
 20
3495359.72981355
 10
678603.463782936
 20
3496641.36246676
 10
678605.189868491
 20
3497269.79241243
 10
678263.566809831
 20
3498134.75926129
 10
679020.314269922
 20
3498864.09706485
 10
680116.171960415
 20
3499680.79071252
 10
680838.104500723
 20
3500814.98451123
 10
682273.917576262
 20
3500160.74158516
 10
683992.75475195
 20
3499738.80338448
 10
685019.954817983
 20
3499858.66081743
 10
684355.112405257
 20
3500805.26779505
 10
684356.845515012
 20
3501430.96252302
 10
684778.371153584
 20
3501613.81658442
 10
684860.72455751
 20
3501687.19570378
 10
684861.030604272
 20
3501797.60484272
 10
685077.557127197
 20
3502115.96040606
 10
688284.076615355
 20
3501228.66779334
 10
692057.484146553
 20
3501102.80279221
 10
695407.598749485
 20
3501993.86961345
 10
697354.445935406
 20
3504137.39046142
 10
697265.951225471
 20
3505528.34340893
 10
696652.172764492
 20
3506363.90669383
 10
696684.134261191
 20
3506773.3480677
 10
698481.507750733
 20
3506881.07561429
 10
700505.744284386
 20
3507321.63455398
 10
702013.065286473
 20
3508347.17343414
 10
702196.033350158
 20
3509494.03022275
 10
700247.195111178
 20
3510301.17008157
 10
700531.795835267
 20
3511077.39231361
 10
700712.519912273
 20
3511434.73213149
 10
700970.094554085
 20
3511733.01890177
 10
701688.931248409
 20
3511730.97850232
 10
702560.075539782
 20
3511120.65489568
 10
703443.201557468
 20
3511113.2398338
 10
703793.641130062
 20
3511565.68060287
 10
703128.383091152
 20
3512351.84913123
 10
703130.510128171
 20
3513099.29313119
 10
705396.892236802
 20
3515604.31482296
 10
706335.701104407
 20
3517108.19521481
 10
706731.189415192
 20
3518944.00313761
 10
706629.252152254
 20
3519208.78408077
 10
706403.934136868
 20
3519422.48431501
 10
706178.916655914
 20
3519741.47606704
 10
706077.867060718
 20
3520317.21527742
 10
706345.887418836
 20
3520671.496308
 10
706992.759179654
 20
3520632.91799437
 10
707711.284081841
 20
3520513.32878739
 10
708235.32830176
 20
3520617.11672723
 10
709599.005849267
 20
3521648.88875396
 10
710047.418056106
 20
3522235.17241133
 10
710399.798137676
 20
3523352.89034191
 10
711784.781083736
 20
3522859.32290491
 10
713316.251874887
 20
3523307.7696052
 10
716206.060327154
 20
3524699.47468462
 10
716208.067863562
 20
3525392.07930209
 10
715261.856676757
 20
3526684.45420045
 10
715590.014830481
 20
3528293.45800658
 10
716672.31546279
 20
3529660.27412778
 10
717993.659974306
 20
3530231.26777371
 10
717723.426908555
 20
3530892.45185263
 10
718343.935219023
 20
3532375.14924351
 10
719830.521833936
 20
3535018.85191926
  0
ENDSEC
  0
SECTION
  2
OBJECTS
  0
DICTIONARY
  5
C
330
0
100
AcDbDictionary
281
     1
  3
ACAD_GROUP
350
D
  3
ACAD_LAYOUT
350
1A
  3
ACAD_MLEADERSTYLE
350
43
  3
ACAD_PLOTSETTINGS
350
19
  3
ACAD_PLOTSTYLENAME
350
E
  3
ACAD_TABLESTYLE
350
42
  0
DICTIONARY
  5
D
102
{ACAD_REACTORS
330
C
102
}
330
C
100
AcDbDictionary
281
     1
  0
DICTIONARY
  5
1A
102
{ACAD_REACTORS
330
C
102
}
330
C
100
AcDbDictionary
281
     1
  3
Layout1
350
1E
  3
Model
350
22
  0
DICTIONARY
  5
43
102
{ACAD_REACTORS
330
C
102
}
330
C
100
AcDbDictionary
281
     1
  0
DICTIONARY
  5
19
102
{ACAD_REACTORS
330
C
102
}
330
C
100
AcDbDictionary
281
     1
  0
ACDBDICTIONARYWDFLT
  5
E
102
{ACAD_REACTORS
330
C
102
}
330
C
100
AcDbDictionary
281
     1
  3
Normal
350
F
100
AcDbDictionaryWithDefault
340
F
  0
DICTIONARY
  5
42
102
{ACAD_REACTORS
330
C
102
}
330
C
100
AcDbDictionary
281
     1
  0
LAYOUT
  5
1E
102
{ACAD_REACTORS
330
1A
102
}
330
1A
100
AcDbPlotSettings
  1

  2
none_device
  4

  6

 40
0.0
 41
0.0
 42
0.0
 43
0.0
 44
0.0
 45
0.0
 46
0.0
 47
0.0
 48
0.0
 49
0.0
140
0.0
141
0.0
142
1.0
143
1.0
 70
   688
 72
     0
 73
     0
 74
     5
  7

 75
    16
 76
     0
 77
     2
 78
   300
147
1.0
148
0.0
149
0.0
100
AcDbLayout
  1
Layout1
 70
     1
 71
     1
 10
0.0
 20
0.0
 11
12.0
 21
9.0
 12
0.0
 22
0.0
 32
0.0
 14
1.000000000000000E+20
 24
1.000000000000000E+20
 34
1.000000000000000E+20
 15
-1.000000000000000E+20
 25
-1.000000000000000E+20
 35
-1.000000000000000E+20
146
0.0
 13
0.0
 23
0.0
 33
0.0
 16
1.0
 26
0.0
 36
0.0
 17
0.0
 27
1.0
 37
0.0
 76
     0
330
1B
  0
LAYOUT
  5
22
102
{ACAD_REACTORS
330
1A
102
}
330
1A
100
AcDbPlotSettings
  1

  2
none_device
  4

  6

 40
0.0
 41
0.0
 42
0.0
 43
0.0
 44
0.0
 45
0.0
 46
0.0
 47
0.0
 48
0.0
 49
0.0
140
0.0
141
0.0
142
1.0
143
1.0
 70
  1712
 72
     0
 73
     0
 74
     0
  7

 75
     0
 76
     0
 77
     2
 78
   300
147
1.0
148
0.0
149
0.0
100
AcDbLayout
  1
Model
 70
     1
 71
     0
 10
0.0
 20
0.0
 11
12.0
 21
9.0
 12
0.0
 22
0.0
 32
0.0
 14
30.0
 24
49.75
 34
0.0
 15
130.5
 25
163.1318914119703
 35
0.0
146
0.0
 13
0.0
 23
0.0
 33
0.0
 16
1.0
 26
0.0
 36
0.0
 17
0.0
 27
1.0
 37
0.0
 76
     0
330
1F
331
29
  0
ACDBPLACEHOLDER
  5
F
102
{ACAD_REACTORS
330
E
102
}
330
E
  0
ENDSEC
  0
EOF
