<?xml version="1.0" encoding="utf-8"?><svg xmlns="http://www.w3.org/2000/svg" version="1.1" baseProfile="tiny" width="256" height="256" viewBox="0 0 256 256"><g><g stroke="#000000" stroke-width=".98" fill="none"><path d="m142.09 97.85l-.11-.16-.44-.35-.12-.13-.06-.16.05-.17" /><path d="m135.67 58.13l-.01.08-.01.15-.03.17-.06.26.05.18.12.21.09.21.12.17 0 .25-.2.62-.12.21-.04.22-.04.3-.03.13.06.09.12.11.08.14.05.26-.02.2.1.21.19.24.05.19-.02.2-.1.12-.34.27-.1.18-.18.15-.28.06-.14.23-.2.38-.22.21-.12.17-.15.43-.11.16-.14.16-.1.09-.08.04-.1.06-.11.08-.08.16.02.23-.01.23-.04.2-.05.16-.1.08-.19.06-.18.1-.17.11-.18.1-.11.08-.12.17-.13.2-.06.12-.15.05-.23 0-.21-.05-.13-.05-.12-.14-.01-.2-.15-.19-.25-.2-.23-.09-.35.04-.23.06-.19.07-.3.15-.27.16-.42.39-.14.18-.13.2-.09.24-.04.27-.12.19-.24.14-.3.1-.19.08-.23.19-.86.63-.51.5-.31.27-.32.24-.16.13-.17.26-.13.27-.09.38-.07.45-.07.24-.18.3-.16.22-.33.2-.18.17-.15.21-.05.12-.02.2-.05.19-.05.16-.12.12-.2.05-.16.1-.08.11-.05.06" /><path d="m132.93 117.01l.06-.13.02-.11.01-.12.05-.25.11-.32.03-.11 0-.12-.08-.22-.01-.1.23-.27 0-.26-.1-.5 0-.88.03-.16.03-.05.02-.15.02-.07.04-.05.18-.16.07-.1.05-.11.07-.11.12-.09.29-.07.1-.06.04-.16.02-.15.06-.07.22-.07.01-.18.08-.1.27-.18.03-.06.06-.13.27-.17.22-.26.78-.32.16-.02.12.04.11.08.13.04.15.01.17-.01.24-.07.19-.12.7-.63.18-.13.8-.19.24-.1.2-.11.19-.14.11-.07.12-.03.31-.02.16-.03.13-.05.18-.18.4-.74.18-.22.16-.26.09-.28-.05-.3-.06-.09-.08-.1-.06-.1-.03-.12.03-.18.09-.11.11-.11.1-.15.03-.14-.03-.47.03-.18.07-.14.11-.12.34-.31.18-.22.14-.25.1-.3.05-.33.06-.18.1-.08.16-.04.14-.13.11-.15.05-.15.01-.16-.05-.45.01-.15.08-.45-.11-1.53-.32-1.7-.22-.37-.32.02 0-.04-.24.01-.18-.23-.25-.71-.04-.08-.06-.06-.07-.02-.17-.02-.07-.03-.09-.14-.01-.14.12-.51-.01-.42-.03-.14-.05-.13-.11-.17-.04-.03-.05-.03-.07-.01-.09 0-.09-.01-.03-.05-.04-.03-.23 0-.08-.02-.05-.06-.03-.07-.01-.09.01-.04.03-.13.01-.08-.02-.07-.08-.19.02-.44.03-.11.12-.22.03-.07.01-.09-.02-1.16-.11-.27-.2-.19-.39-.2-.25-.18-.13-.06-.02-.05-.01-.14-.01-.1-.04-.06-.09-.11-.06-.15-.09-.48" /><path d="m139.19 90.3l-.2-.14-.23-.13-.24-.1-1.4-.36-.19-.01-.16.02-.13.07-.13.1-.04.05-.05.12-.05.07-.07.04-.05.01-.06-.02-.09-.01-.3.07-.2.13-.32.43-.02.05-.01.04-.01.03-.06.02 0 .03-.02.04-.07.08-.16-.05-.12.11-.09.15-.17.13-.06.14-.08.29-.12.25-.19.17-.26.09-.34.02-.33-.03-.11.05-.05.15-.02.17-.03.09-.14.15-.07.19-.03.06-.06.06-.17.09-.08.06-.24.28-.18.28-.01.06-.01.07-.01.06-.06.05-.07.01-.1-.02-.08-.03-.04-.03-.06-.1-.15-.01-.58.16-.23.14-.48.36-.26.16-.12.09-.05.11.03.15.07.1.08.08.06.09.02.34-.14.3-.25.22-.3.1-.09.01-.1 0-.08-.02-.07-.04-.23.07-.06.03-.04.05-.08.15-.3.36-.11.22-.13.32-.05.31-.09.11-.27.17-.17.16-.08.11-.04.09-.05.17-.11.14-.27.25-.28.43-.16.19-.24.2-.26.14-.29.11-.3.06-.31-.02-.16-.03-.12 0-.11.04-.72.37-.25-.1-.12-.03-.13-.01-.15-.03-.13-.06-.23-.15-.14-.05-.12-.02-.3.02-.16-.06-.11-.12-.14-.26-.23-.15-.6-.1-.28-.18-.08-.12-.14-.34-.02-.14-.04-.11-.16-.25-.04-.15.01-.15.07-.25.02-.15-.01-.17-.03-.15-.04-.12-.07-.12-.08-.09-.41-.35-.26-.33-.07-.15-.13-.66-.16-.31-.14-.5-.08-.07-.09-.06-.05-.13-.03-.3-.1-.37 0-.11.13-.41.02-.15 0-1.09.02-.12-.03-.1-.05-.1-.04-.11 0-.1.03-.31.09-.2-.01-.13-.04-.13-.04-.09-.04-.13-.04-.41-.08-.2-.11-.18-.25-.26-.04-.1 0-.56-.02-.13-.17-.3-.02-.15 0-.1-.02-.09-.1-.1-.12-.05-.11-.03-.08-.06-.03-.15" /><path d="m117.51 87.45l.06-.28.17-.1.23-.03.26-.07.26-.19.13-.06.14-.02.41.02.19-.08.15-.21.1-.25.02-.23-.03-.09-.16-.29-.08-.27-.02-.26.01-.12.02-.13.14-.37 0-.1-.12-.2-.16-.22-.17-.11-.21-.05-.28-.01-.25.05-.11-.01-.1-.08-.21-.44-.2-.7-.12-.2-.1-.22.05-.23.13-.22.2-.25.07-.12.05-.13.01-.1-.07-.1-.09-.08-.07-.09.01-.12.06-.1.08-.09.1-.05.25.05.45-.1.25-.02.24-.05.17-.14.07-.28 0-.54.03-.04.09-.06.03-.06.01-.15.03-.07.17-.1.5-.22.11-.13-.07-.24-.12-.17-.06-.16.1-.23.16-.15.38-.22.16-.13.12-.07.25.01.11-.04.1-.07.22-.12.1-.08.28-.29.09-.08.1-.11.05-.11-.23-.29.13-.19.39-.28.13-.13.11-.15.15-.35" /><path d="m135.67 58.13l0-.15-.05-.45.02-.12.08-.26-.01-.13-.09-.29-.01-.09.01-.23.03-.1.16-.27.05-.13.02-.15-.01-.61.02-.06.04-.07.05-.09-.04-.04-.13-.04-.15-.26.04-.28.26-.57.07-.27.02-.28-.04-.57-.1-.28-.25-.45-.09-.23 0-.16.11-.2.03-.15-.02-.26-.07-.25-.11-.23-.15-.16-.67-.34-.38-.29-.5-.26-.23-.15-.17-.21-.06-.29.05-.55-.03-.16-.06-.11-.15-.19-.18-.29-.11-.29.04-.26.25-.18" /><path d="m133.16 46.68l.34-.09.17-.08.49-.86.12-.12.15-.05.17-.01.15-.04.11-.09.03-.15-.05-.11-.19-.19-.04-.11.02-.17.05-.11.17-.18.12-.25.04-.17-.04-.14-.07-.13-.02-.32-.03-.15-.09-.1-.13-.09-.14-.07-.24-.08-.1-.09-.1-.06-.17.05-.06.06-.03.07-.02.07-.03.04-.07.02-.18.02-.04.04-.09.05-.7.03-.13.04-.12.08-.15.14-.15.08-.11-.04-.11-.06-.14-.01-.11.1-.05.13-.07.11-.18.05-.12-.05-.05-.1-.01-.14-.03-.15-.06-.08-.1-.09-.11-.08-.09-.04-.13-.07-.24-.46-.1-.07-.12-.03-.28 0-.03.09-.03.17-.08.11-.18-.08-.04-.12.06-.3-.04-.13-.34-.33-.51-.32-.04-.07-.06-.14-.14-.1-.14-.07-.1-.06-.09-.26-.02-.64-.13-.16-.1-.02-.05.02-.14.1-.09.03-.08.02-.15-.01-.04-.08.12-.49-.09-.11-.14 0-.15.02-.13-.03-.05-.05-.02-.05 0-.06 0-.09-.03-.09-.06-.07-.16-.1-.37-.38-.15-.22-.11-.22-.11-.4-.07-.14-.1-.13-.61-.47-.2-.22-.35-.53" /><path d="m124.56 36.2l-.04-.27-.13-.15-.19-.05-.25-.01-.13-.05-.07-.12-.05-.12-.04-.05-.04-.01-.04-.02-.05.01-.11.08-.06.02-.07.01-.06.01-.01-.07 0-.32-.02-.1-.09-.04-.31-.02-.13-.03-.09-.07-.1-.18-.09-.09-.21-.11-.02-.06.08-.12-.23-.08-.24-.12-.21-.14-.14-.14-.06-.13.02-.08.06-.08.03-.12-.02-.14-.08-.25 0-.16.05-.14.12-.25.03-.12.02-.04.05-.04.05-.05.02-.07-.01-.07-.06-.16-.02-.08 0-.56-.03-.04-.14-.06-.03-.04-.01-.06-.06-.1-.03-.06-.01-.13.01-.11.03-.11.02-.11-.01-.4-.05-.23-.01-.15-.02-.07" /><path d="m121.28 29.58l-.04-.04-.09-.09-.02-.04-.06-.06-.33-.25-.06-.09-.05-.1-.02-.12-.01-.15 0-.06.02-.07.02-.06.07-.06-.03-.1-.08-.15-.03-.14.03-.42.01-.04.04-.03.03-.05.02-.13.03-.06.03-.06.03-.04.34-.25.05-.07.01-.04.07-.12.02-.08-.01-.08-.03-.04-.03-.04-.03-.05-.03-.13.02-.11.04-.1.02-.12 0-.07.01-.06.02-.06.04-.05.03-.06-.02-.06-.03-.07 0-.08.05-.1.08-.09.07-.11.05-.27.04-.08.14-.17.06-.12.01-.11-.02-.28.03-.1.06-.12.15-.19.5-.48.13-.19.09-.28.08-.14.09-.07.08-.03.28-.21.22-.29.08-.07.08-.11.01-.04.01-.09.03-.05.03-.03.24-.37.03-.08-.06-.81.01-.09.02-.04.04-.04.03-.06.01-.1-.02-.08-.07-.08-.01-.08.01-.06.03-.04.05-.04.06-.05.06-.13.13-.41.04-.04.05-.03.04-.04.02-.08-.09-.2-.01-.09.01-.18.05-.13.08-.1.1-.07-.16-.2-.06-.11-.02-.15.02-.15.13-.21.04-.15 0-.26-.05-.3-.09-.26-.1-.19-.18-.18-.08-.1-.03-.13.12-.76-.01-.06" /><path d="m133.31 216.48l.1.03.07.1.04.11.35.33.09.07.08 0 .1-.04.12-.03.29.11.16.02.17-.02.15 0 .11.04.1.04.05.03.11.17.07.2.12.13.18.19" /><path d="m131.17 215.47l.13.03.14.05.2.11.16.14.16.04.21.07.16.09.17.1.17.06.15.11" /><path d="m135.77 217.96l.03.15.17.19.06.23.22.35.02.13 0 .16-.03.13-.15.13-.02.15.13.93.08.27.34.53.14.27.08.3.04.34-.02.31.02.15.24.57.09.12.42.35.16.21.05.26" /><path d="m132.82 216.27l.1.12.12.1.14.03.13-.04" /><path d="m125 211.75l.04-.02 0 0 0 0 0 0 .19-.06.35-.26.34-.09.25-.14.1-.03.48 0 .07.02.07.06.06.02.13-.02.67-.22.08-.07.14-.18.11-.09.13-.04.29-.05.12-.06.07.04.07.01.07-.01.08.02.07.04.17.12.15.06.28.26.08.02.21.02.07.04.18.09.22.07.24.18.16.01.08-.04.11-.12.05-.03.07-.02.25.02.12.06.11.13.13.24.07.49.05.12.08.11.05.15.04.16 0 .13-.03.09-.09.18-.02.1.02.08.05.04.07.01.1.03-.1.11-.04.05-.01.06 0 .15-.01.06-.04.05.03.14-.14.08-.18.05-.12.05-.03.07-.01.09-.02.07-.08.04-.08.02-.05.03-.06.02-.08-.03-.09.08-.32.06-.07.08-.05.07-.22.2-.07.1.05.13-.07.22.02.12.25-.13.26-.08.24.01.21.08" /><path d="m137.84 224.19l.07.09.08 0 .17.04.16.02.23.06-.04.26-.41.27-.22.17-.05.25-.08.3-.29.28-.39.64-.45 1.67-1.25 2.36-2.61 1.83-3.3 1.02-1.63.35" /><path d="m112.51 248.24l.01.03.18.15.07.03.09-.01.09-.03.07-.02.16.06.17.23.13.05.13-.01.37-.09.16.01.28.11.16.03.12.05.02.14-.06.29-.05.15 0 .07.05.07.09.06.04-.05.03-.07.05-.03.16 0 .07.02.09.22.08.09.11.09.1.11.04.17" /><path d="m115.52 250.16l0 .09-.02.07-.03.06-.07.07-.14.24-.03.02.05.14.11.11.13.04.05-.07.02-.08.05-.05.07-.03.16-.02.04-.03.03-.03.07-.03.32-.03.15-.04.13-.1.71-.69.09-.14.29-.25.06-.03.09-.03.05-.04.08-.19.01-.01.04-.27.05-.08.19-.05.01-.05 0-.15.02-.08.05-.03.05-.02.04-.11.03-.04.05-.02.07-.01.04-.04.11-.16.07-.04-.03-.1-.06-.05-.04-.06.03-.08-.13-.03-.1-.1-.18-.23-.02-.12.09-.16.15-.21 0-.18.02-.11.06-.09.41-.42.04-.14.04-.04.13-.08.04-.04.05-.1.03-.03.12-.07.11-.02.1.01.11-.01.09-.03.04-.02.01-.03.03-.05.07 0 .09.03.11-.08.04-.08.03-.09.06-.09.15-.11.17-.08.14-.1.08-.15-.01-.03-.05-.09-.01-.02-.04-.03.01-.05.04-.06.01-.01.05-.38 0 0 0 0 0 0 0 0 .15-.09.12-.06.09-.06.07-.13.03-.15-.03-.48.07-.31.24-.78-.06-.21-.08-.1-.1-.11-.13-.06-.13.03.09-.41-.02-.19-.21-.03.03-.06.05-.05.11-.09-.05-.12.04-.11.07-.11.04-.11-.06-.29-.03-.07.09-.2-.02-.06-.06-.1-.02-.03 0-.08.09-.55.01-.19-.05-.15-.17.07-.11-.09-.07-.16-.07-.25-.03-.05-.09-.1-.11-.15-.04-.1.03-.04.03-.08.01-.18-.04-.19-.14-.08-.14-.02-.46-.17" /><path d="m119.83 236.85l-.07-.04-.1-.1-.08-.05-.2-.09-.1-.07-.03-.11 0-.05.02-.05.02-.03 0-.02-.01-.06-.07-.08-.04-.14-.13-.22-.04-.1-.03-.18-.03-.05-.08-.06-.03.01-.05.02-.06.01-.06-.04-.01-.04.02-.04.03-.04.01-.04-.02-.1-.1-.07-.03-.08.03-.08.05-.07.06-.07.06-.05 0 0 0 0 0 0 0 0 .09.01.05.04.04.04.04.01.08 0 .13-.03.36-.04.15.02.17.05.09-.07.25-.27.1-.05.27-.09.27-.13.25.06.11.05.16.06.4.09.09.07.19.24.33.3.26.41.11.11.14.04.09 0 .07-.02.06-.03.07-.07.07-.03.07.01.08.03.07.02.12 0 .13.02.12.04.14.08.43.33.15.06.05-.1.12-.04.13.03.09.11.08-.09.12-.06.13 0 .1.05.08-.03.06-.05.02-.07-.01-.09.03.05.11.14.07-.23.05-.02.1.08.05.03.04-.03.03-.05.04-.02.06.02.04.03.05.05.08-.02.11-.05.08-.07-.01-.13.03-.14-.03-.03-.07-.01 0-.03.07-.07.07-.09.02-.07.01-.09.03-.12.03-.05.05-.02.04-.03.02-.07-.04-.12-.01-.07.03-.03.18-.07.39-.27.18.01.03-.07.04-.02.06 0 .06.04-.02-.05-.01-.07-.02-.03.08-.02.08-.04.07-.04" /><path d="m125.01 211.75l-.01 0 0 0-.07.03-.11-.09-.05-.17.03-.14.1-.2.12-.15.3-.18.12-.04.17-.08.08-.09.03-.11.03-.15.02-.09" /><path d="m129.58 201.74l.05.19-.1.06-.35.1-.08.1-.04.15-.1.13-.14.07-.15.02-.09-.03-.08-.04-.08-.05-.07-.05-.13.01-.07-.02.01-.04.01-.05-.08.01-.15.06-.17.15-.07.05-.16.03-.16.01-.07.03-.05.07-.03.07-.13.09-.04.16-.04.18-.04.13-.25.24-.1.14-.06.24-.04.05-.05.05-.04.05-.02.05-.03.19-.08.3-.28.59-.26.39-.32.34-.1.15-.09.27-.18.36-.07.29.03.29.15.25.14.1.1.05.07.09.04.25.03.08.02.08-.01.09-.04.03-.12.07-.04.04-.02.16.05.15.09.13.1.11.08.15.11.3.12.11.06-.01.08-.02.07-.01.03.06-.01.08-.03.07-.05.05-.08.02-.11.05-.06.12-.04.16 0 .16" /><path d="m127.16 185.41l.06.19.24.45.27.35.1.22.19 1.02.02.57-.06.23-.23.42-.05.22.01.11.07.22.01.1.02.79-.02.1-.16.21-.04.11-.09.5-.54 1.26-.05.25-.03.11-.2.35-.05.14-.04.28 0 .48.02.06-.01.06-.06.05-.08.04-.07.04-.09.12-.12.25-.22.21.04.14.15.3.03.14-.05.55-.1.29-.03.1.02.16.08.4 0 .32.11.13.01.03.05.07.21.68.11.22.13.18.4.45.04.07.07.09.47.42.33.37.49.4.41.51.12.22.53.58" /><path d="m127.16 185.41l-.05-.08-.05 0-.04.03-.04 0-.06-.06-.07-.09-.05-.09-.02-.07-.02-.15-.22-.55-.07-.11-.08-.1-.07-.04-.08-.07-.06-.18-.08-.32-.17-.36-.03-.28-.03-.13-.04-.12-.06-.09-.45-.54-.08-.18-.03-.3-.04-.13-.1-.05-.13-.03-.09-.06-.06-.11-.04-.14-.04-.33-.05-.14-.08-.06-.04-.03-.02-.06 0-.07-.03-.06-.22-.21-.06-.13-.03-.12-.06-.1-.12-.04-.09-.04-.06-.1-.11-.2-.16-.16-.11-.09" /><path d="m123.47 179.07l-.14-.06-.05-.04-.1-.11-.05-.03-.13-.06-.04-.03-.02-.06-.03-.16-.04-.07-.08-.04-.17-.04-.07-.04-.1-.07-.24-.11-.47-.4-.06-.02-.17-.04-.07-.01-.06-.01-.04-.04-.19-.27-.05-.11-.02-.13-.05-.08-.34-.18-.14-.19-.09-.07-.04-.04-.03-.22-.04-.09-.07-.08-.07-.14-.05-.19-.11-.13-.05-.11-.03-.29-.07-.14-.22-.23-.05-.13-.02-.1-.05-.01-.07 0-.05-.02-.01-.03.02-.08-.01-.03-.08-.07-.02-.03-.04-.02-.07-.07-.05-.07.04-.03.09-.01.05-.02.02-.05.01-.09-.02-.13-.06-.14-.09-.1-.16-.07-.01-.07.01-.08-.01-.06-.04-.05-.12-.08-.03-.06.01-.06.05-.05.04-.04-.05-.13.05-.32.03-.05.03-.03.03-.05.04-.05.05-.04.02-.05-.06-.06 0-.05.05 0 .03-.01.03-.02.04-.01-.14-.04-.06 0 0-.06.1-.06-.05-.05-.09-.04-.06-.06 0-.2-.01-.05-.07-.04-.07-.26-.42-.49.07-.07-.08-.13-.14-.15-.09-.14-.01-.1.01-.1-.01-.1-.05-.08-.08 0-.09.03-.06 0 0-.13-.19.09-.1-.22-.02-.3.04-.15.11-.04-.01-.08-.05-.08 0-.04.13-.04-.01-.11-.14-.23.05-.02.14-.08-.05-.07-.03-.2-.07-.07.05-.2.04-.03.05-.03.04-.03.04-.19.03-.1.01-.1-.06-.14-.03 0-.09.01-.03-.01-.01-.03.02-.09-.01-.03-.2-.13-.04-.03-.02-.08-.1-.1-.03-.07.03-.09.03-.07.01-.06-.07-.04 0 .02.01.05-.01.02-.04 0 0-.08.02-.09.04-.09.03-.07.14-.18.06-.1-.01-.11-.04-.05-.05-.02-.05-.01-.05-.02-.28-.26-.06-.07-.05-.1.09-.07.07-.08.03-.09-.04-.1-.05.05-.04-.12.01-.24-.01-.12-.03-.06-.09-.08-.03-.06-.01-.04.01-.1 0-.05-.03-.11-.08-.15-.04-.08-.01-.12.02-.11.04-.1.05-.06.04-.02.12-.02.04-.01.12-.13.02-.01.01-.04.02-.11.02-.04.03-.03.1-.03.06-.04.08-.08.02-.07.04-.24.07-.12.1-.07.1-.06.08-.09-.05-.05.02-.04.04-.04.03-.05 0-.46-.01-.11-.05-.04-.06-.02-.07-.05-.09-.18.08-.07.13-.05.07-.11.04-.16.08-.1.09-.07.08-.09.07-.22.07-.08.12-.03.1-.04.08-.08.07-.1.07-.07.12-.06.13-.03.86.04.9.21.31.04.56 0 .11-.03.09-.04.1-.04.15.01.31.1.85.47" /><path d="m123.3 160.72l1.12.29.31.04.15.04.07.09.05.06.13.05.15.05.1.01.31-.04.32-.11.3-.15.23-.18.2-.26.1-.16.04-.14.02-.03.1-.1.02-.06-.02-.06-.1-.12-.02-.08.02-.14.18-.17.06-.15.05-.02.15-.01.05-.03.11-.21.14-.08.14-.05.33-.01.15-.04.65-.48.14-.04.17-.02.08-.05.07-.11.12-.23.16-.21.47-.31.23-.21.21-.27.1-.15.05-.2.05-.05.07-.04.08-.01.06-.03.04-.06.14-.39.06-.1.09-.04.05-.07.1-.33.01-.13-.03-.13-.13-.2-.04-.13-.07-.13-.01-.07 0-.08.04-.15 0-.09-.02-.07-.07-.21-.01-.09.01-.23-.03-.15-.07-.07-.12-.04-.5.01-.17-.05-.08-.13.02-.29.03-.13.05-.14.17-.25.75-.67.41-.49.25-.21.25-.12.07 0 .16.01.06-.01.09-.06.46-.62.1-.18.08-.11.05-.04.25-.08.1-.11.28-.14.09-.06.15-.28.04-.26 0-1.22-.01-.07-.07-.14-.01-.08.01-.16.03-.16.22-.46.03-.14.04-.6.14-.52.11-.24.14-.21.14-.28.05-.35-.02-.36-.08-.31-.21-.6-.02-.35.19-.26" /><path d="m134.75 142.66l-.02-.23-.12-.54.01-.69-.07-.13.02-.24.04-.26.08-.25.19-.29.04-.12.04-.39.13-.39.04-.5-.34-1.43 0-.13.03-.09.04-.1.03-.11.01-.14-.03-.14-.1-.26.03-.17.29-.42.09-.18 0-.14-.05-.09-.07-.07-.07-.08-.06-.37-.06-.09-.04-.06-.05-.11-.03-.05-.06-.03-.11-.02-.05-.02-.36-.27-.27-.24-.06-.09-.05-.11-.06-.25-.2-.31-.04-.26.05-.52.07-.24.19-.48.04-.25-.05-.15-.11-.03-.14.01-.12-.05-.07-.06-.2-.12-.09-.08-.19-.25-.05-.09-.02-.13.01-.3-.01-.08-.62-.47-.19-.19-.12-.2-.07-.22-.04-.24-.01-.25-.01-.09-.1-.24-.11-.17-.07-.26-.04-.11-.3-.36-.13-.21-.11-.44-.23-.45-.06-.23.02-.2.16-.47.09-.2.03-.2-.12-.41-.03-.21.03-.22.07-.26.1-.25.11-.17.57-.52.13-.22.09-.24.06-.1.09-.09.38-.23.09-.11.03-.18-.06-.45 0-.2.12-.47.27-.67.06-.24.04-.5-.05-.25-.2-.44-.05-.23.04-.22.17-.45.06-.36.04-.08" /><path d="m124.09 14.88l-.02-.07-.04-.05-.07-.04-.27-.03-.1-.04-.14-.13-.2-.1-.17-.13-.09-.03-.09-.07-.06-.02-.06.02-.1.07-.05.02-.15-.01-.12-.04-.09-.07-.03-.1-.01-.16-.02-.07-.05-.04 0-.01-.09-.04-.08-.02-.06-.02-.02 0-.05-.1-.02-.07.01-.08-.01-.07-.06-.02-.19-.05-.22.14-.13-.05-.04-.1.04-.1.33-.08-.04-.07-.21-.13-.02-.1.02-.1.03-.09.02-.07-.01-.08-.04-.08-.09-.15.05-.07.05-.08.04-.09 0-.11-.05-.01-.06 0-.04.01-.04-.04-.02-.06 0-.06.04-.04.08-.03 0-.06-.15-.06-.09-.12-.04-.17-.02-.3-.01-.1-.04-.08-.07-.03-.03-.05.05-.1.07-.09.04-.03-.03-.11-.08 0-.09.02-.1-.03-.01-.07.05-.1.07-.08.04-.04.19-.04.09-.04.01-.07-.07-.04-.1 0-.22.04.17-.1.03-.04.02-.07.01-.08-.03-.07-.08-.02-.15-.03.02-.08.09-.09.07-.09-.04-.12-.17-.22-.01-.04.08-.05-.07-.11-.12-.1-.06-.04-.02-.06.02-.1 0-.08-.03-.07-.1-.11-.02-.03-.05-.07-.33-.15-.33-.42-.05-.05-.08-.02-.04-.02-.08-.09-.05-.03-.06 0-.02.02-.03.02-.03.01 0 0-.13 0 .01-.04-.05-.19-.03-.06-.05 0 0 .05-.04 0-.02-.02 0-.01-.01-.01-.02-.01 0-.05.08-.07.06-.11.04-.14.01-.14 0-.07-.03-.06-.03-.04-.04-.04-.03-.02-.06-.03-.03-.03-.05-.03-.04.04-.02.04-.01.03-.06-.02-.05-.04-.03-.05-.01-.07-.03-.07-.06-.03-.07-.02-.02-.02 0-.17-.01-.14-.07-.09-.12-.01" /><path d="m123.45 14.52l-.08-.12-.14-.17-.03-.08 0-.2-.02-.11-.05-.05.02-.31 0-.07-.07-.08-.19-.12-.08-.1.16.03.06 0 .08-.03.06-.05.01-.05-.02-.04-.01-.05 0-.08-.02-.02.01 0 .06.01.06.02.02.05.02.01.05-.08.02-.1 0-.06.01-.06.07-.08.06-.03.12-.02.06-.04 0-.04-.01-.05 0-.04.03-.02.01 0 .11-.04.2-.15 0-.04-.04-.06-.02-.07.02-.07.04-.05.04.01.04.04.07.03.09-.03-.08-.09.02-.16.11-.33.01-.19-.09-.32-.02-.19-.02-.05-.03-.02-.03 0-.02-.03-.04-.17-.03-.3-.07-.06-.03-.05-.02-.05.03-.03.16-.04.05-.02.03-.01.02-.02 0-.07-.02-.03-.03-.03-.05-.04-.04-.02.05-.01.03-.01.02-.02.04-.01-.1-.08.03-.05.07-.05.05-.06-.01-.09-.03-.06-.03-.05.02-.09.06-.07.07-.02.09-.01.07-.04.02-.04.05-.2.03-.01.05-.01.04-.03.05-.07.05-.05.06-.04.09-.04.04-.01.17.01.04-.01.01-.05.01-.04.02-.04.26-.4.12-.09 0-.04-.02-.06.05-.05.07-.06.05-.08.1.05.11.03.07-.01-.05-.07 0-.04.03-.02.01 0 0-.01.01-.02.22.06.25.01.23-.06.13-.16-.01-.09-.04-.06 0-.03.12-.01.14-.03.1-.07.01-.08-.13-.06.02-.05.01-.03.02-.02.04 0 .06.04.06 0 .03-.03-.05-.05 0-.06.15-.17.06-.11.03-.13-.01-.02-.01-.01-.02-.02 0-.04.01-.03.05 0 .05.01.03 0 .09-.08.03-.04.03-.08.09.04.1-.03.2-.1 0-.05-.07-.09.02-.12.08-.09.08-.04-.01-.05.04-.1.1-.19" /></g></g></svg>